<?xml version="1.0" encoding="utf-8"?>
<!-- Generator: Adobe Illustrator 23.0.1, SVG Export Plug-In . SVG Version: 6.00 Build 0)  -->
<svg version="1.1" id="Capa_1" xmlns="http://www.w3.org/2000/svg" xmlns:xlink="http://www.w3.org/1999/xlink" x="0px" y="0px"
	 viewBox="0 0 170 170" style="enable-background:new 0 0 170 170;" xml:space="preserve" opacity="0.3">
<g>
	<g>
		<path d="M5.7,40.4c0.1-2.7,0.7-5.3,0.1-8.1c-0.5-2.2-4-2.2-4.5,0c-0.8,3.2-1,6.7-1.1,10.1c-0.1,2.4-0.2,5,0.8,7.3
			c1.2,2.6,3.8,1.4,4.6-0.4C5.9,48.6,6,47.7,6,46.7C6.1,44.6,5.6,42.1,5.7,40.4z"/>
	</g>
</g>
<g>
	<g>
		<path d="M5.7,70c0.1-2.7,0.7-5.3,0.1-8.1c-0.5-2.2-4-2.2-4.5,0c-0.8,3.2-1,6.7-1.1,10.1c-0.1,2.4-0.2,5,0.8,7.3
			c1.2,2.6,3.8,1.4,4.6-0.4C5.9,78.1,6,77.2,6,76.2C6.1,74.1,5.6,71.6,5.7,70z"/>
	</g>
</g>
<g>
	<g>
		<path d="M6,122.7c0-1-0.1-1.9-0.5-2.6c-0.8-1.7-3.4-3-4.6-0.4c-1.1,2.2-1,4.8-0.8,7.3c0.1,3.3,0.3,6.8,1.1,10.1
			c0.5,2.2,4,2.2,4.5,0c0.7-2.8,0-5.3-0.1-8.1C5.6,127.3,6.1,124.8,6,122.7z"/>
	</g>
</g>
<g>
	<g>
		<path d="M6,93.2c0-1-0.1-1.9-0.5-2.6c-0.8-1.7-3.4-3-4.6-0.4c-1.1,2.2-1,4.8-0.8,7.3c0.1,3.3,0.3,6.8,1.1,10.1
			c0.5,2.2,4,2.2,4.5,0c0.7-2.8,0-5.3-0.1-8.1C5.6,97.8,6.1,95.3,6,93.2z"/>
	</g>
</g>
<g>
	<g>
		<path d="M169.9,42.4c-0.1-3.3-0.3-6.8-1.1-10.1c-0.5-2.2-4-2.2-4.5,0c-0.7,2.8,0,5.3,0.1,8.1c0,1.6-0.4,4.1-0.4,6.3
			c0,1,0.1,1.9,0.5,2.6c0.8,1.7,3.4,3,4.6,0.4C170.2,47.4,170,44.8,169.9,42.4z"/>
	</g>
</g>
<g>
	<g>
		<path d="M169.9,71.9c-0.1-3.3-0.3-6.8-1.1-10.1c-0.5-2.2-4-2.2-4.5,0c-0.7,2.8,0,5.3,0.1,8.1c0,1.6-0.4,4.1-0.4,6.3
			c0,1,0.1,1.9,0.5,2.6c0.8,1.7,3.4,3,4.6,0.4C170.2,77,170,74.3,169.9,71.9z"/>
	</g>
</g>
<g>
	<g>
		<path d="M169.1,119.7c-1.2-2.6-3.8-1.4-4.6,0.4c-0.3,0.7-0.5,1.6-0.5,2.6c0,2.1,0.4,4.6,0.4,6.3c-0.1,2.7-0.7,5.3-0.1,8.1
			c0.5,2.2,4,2.2,4.5,0c0.8-3.2,1-6.7,1.1-10.1C170,124.6,170.2,122,169.1,119.7z"/>
	</g>
</g>
<g>
	<g>
		<path d="M169.1,90.2c-1.2-2.6-3.8-1.4-4.6,0.4c-0.3,0.7-0.5,1.6-0.5,2.6c0,2.1,0.4,4.6,0.4,6.3c-0.1,2.7-0.7,5.3-0.1,8.1
			c0.5,2.2,4,2.2,4.5,0c0.8-3.2,1-6.7,1.1-10.1C170,95.1,170.2,92.4,169.1,90.2z"/>
	</g>
</g>
<g>
	<g>
		<path d="M17.8,0.8c-3.5-1-6.5-0.3-10-0.3C5,0.4,1.9,1.1,0.9,4.1c-1,2.9-0.3,7-0.2,10.1c0.1,2.3-0.5,4.5,1.1,6.4
			c2.6,3,4-0.6,4.1-2.4c0.2-3.6-0.4-7,0.3-10.6c0.6-3.1,9.1-2.8,11.5-3.5C19.4,3.6,19.4,1.2,17.8,0.8z"/>
	</g>
</g>
<g>
	<g>
		<path d="M169.3,14.2c0.1-3,0.7-7.2-0.2-10.1c-1-3-4-3.7-6.8-3.7c-3.5,0.1-6.5-0.7-10,0.3c-1.6,0.5-1.6,2.8,0,3.3
			c2.5,0.7,10.9,0.4,11.5,3.5c0.7,3.6,0.1,7,0.3,10.6c0.1,1.9,1.6,5.4,4.1,2.4C169.8,18.6,169.2,16.5,169.3,14.2z"/>
	</g>
</g>
<g>
	<g>
		<path d="M137.6,0.3c-2.8-0.7-5.3,0-8.1,0.1c-1.6,0-4.1-0.4-6.3-0.4c-1,0-1.9,0.1-2.6,0.5c-1.7,0.8-3,3.4-0.4,4.6
			c2.2,1.1,4.8,1,7.3,0.8c3.3-0.1,6.8-0.3,10.1-1.1C139.8,4.3,139.8,0.8,137.6,0.3z"/>
	</g>
</g>
<g>
	<g>
		<path d="M108.1,0.3c-2.8-0.7-5.3,0-8.1,0.1c-1.6,0-4.1-0.4-6.3-0.4c-1,0-1.9,0.1-2.6,0.5c-1.7,0.8-3,3.4-0.4,4.6
			C93,6.2,95.6,6.1,98,6c3.3-0.1,6.8-0.3,10.1-1.1C110.3,4.3,110.3,0.8,108.1,0.3z"/>
	</g>
</g>
<g>
	<g>
		<path d="M49.8,0.5C49.1,0.1,48.2,0,47.2,0c-2.1,0-4.6,0.4-6.3,0.4c-2.7-0.1-5.3-0.7-8.1-0.1c-2.2,0.5-2.2,4,0,4.5
			c3.2,0.8,6.7,1,10.1,1.1c2.4,0.1,5,0.2,7.3-0.8C52.8,3.9,51.6,1.3,49.8,0.5z"/>
	</g>
</g>
<g>
	<g>
		<path d="M79.4,0.5C78.7,0.1,77.7,0,76.8,0c-2.1,0-4.6,0.4-6.3,0.4c-2.7-0.1-5.3-0.7-8.1-0.1c-2.2,0.5-2.2,4,0,4.5
			c3.2,0.8,6.7,1,10.1,1.1c2.4,0.1,5,0.2,7.3-0.8C82.3,3.9,81.1,1.3,79.4,0.5z"/>
	</g>
</g>
<g>
	<g>
		<path d="M17.8,165.3c-2.5-0.7-10.9-0.4-11.5-3.5c-0.7-3.6-0.1-7-0.3-10.6c-0.1-1.9-1.6-5.4-4.1-2.4c-1.7,1.9-1.1,4.1-1.1,6.4
			c-0.1,3-0.7,7.2,0.2,10.1c1,3,4,3.7,6.8,3.7c3.5-0.1,6.5,0.7,10-0.3C19.4,168.2,19.4,165.8,17.8,165.3z"/>
	</g>
</g>
<g>
	<g>
		<path d="M169.3,155.2c-0.1-2.3,0.5-4.5-1.1-6.4c-2.6-3-4,0.6-4.1,2.4c-0.2,3.6,0.4,7-0.3,10.6c-0.6,3.1-9.1,2.8-11.5,3.5
			c-1.6,0.5-1.6,2.8,0,3.3c3.5,1,6.5,0.3,10,0.3c2.8,0,5.8-0.7,6.8-3.7C170,162.4,169.4,158.3,169.3,155.2z"/>
	</g>
</g>
<g>
	<g>
		<path d="M137.6,164.3c-2.8-0.7-5.3,0-8.1,0.1c-1.6,0-4.1-0.4-6.3-0.4c-1,0-1.9,0.1-2.6,0.5c-1.7,0.8-3,3.4-0.4,4.6
			c2.2,1.1,4.8,1,7.3,0.8c3.3-0.1,6.8-0.3,10.1-1.1C139.8,168.3,139.8,164.8,137.6,164.3z"/>
	</g>
</g>
<g>
	<g>
		<path d="M108.1,164.3c-2.8-0.7-5.3,0-8.1,0.1c-1.6,0-4.1-0.4-6.3-0.4c-1,0-1.9,0.1-2.6,0.5c-1.7,0.8-3,3.4-0.4,4.6
			c2.2,1.1,4.8,1,7.3,0.8c3.3-0.1,6.8-0.3,10.1-1.1C110.3,168.3,110.3,164.8,108.1,164.3z"/>
	</g>
</g>
<g>
	<g>
		<path d="M49.8,164.5c-0.7-0.3-1.6-0.5-2.6-0.5c-2.1,0-4.6,0.4-6.3,0.4c-2.7-0.1-5.3-0.7-8.1-0.1c-2.2,0.5-2.2,4,0,4.5
			c3.2,0.8,6.7,1,10.1,1.1c2.4,0.1,5,0.2,7.3-0.8C52.8,167.8,51.6,165.3,49.8,164.5z"/>
	</g>
</g>
<g>
	<g>
		<path d="M79.4,164.5c-0.7-0.3-1.6-0.5-2.6-0.5c-2.1,0-4.6,0.4-6.3,0.4c-2.7-0.1-5.3-0.7-8.1-0.1c-2.2,0.5-2.2,4,0,4.5
			c3.2,0.8,6.7,1,10.1,1.1c2.4,0.1,5,0.2,7.3-0.8C82.3,167.8,81.1,165.3,79.4,164.5z"/>
	</g>
</g>
</svg>
