<?xml version="1.0" encoding="utf-8"?>
<!-- Generator: Adobe Illustrator 23.0.1, SVG Export Plug-In . SVG Version: 6.00 Build 0)  -->
<svg version="1.1" id="Layer_1" xmlns="http://www.w3.org/2000/svg" xmlns:xlink="http://www.w3.org/1999/xlink" x="0px" y="0px"
	 viewBox="0 0 649.4 342.6" style="enable-background:new 0 0 649.4 342.6;" xml:space="preserve">
<style type="text/css">
	.st0{fill:#D7E2E2;}
	.st1{fill:#F2F4F4;}
</style>
<g>
	<path id="XMLID_344_" class="st0" d="M649.4,227.9c0-30-51.7-54.3-115.5-54.3c-13.2,0-26,1.1-37.8,3c1.8-5,2.8-10.3,2.8-15.8
		c0-31.1-31.2-56.4-69.6-56.4c-6.6,0-12.9,0.8-19,2.1c0.3-2.9,0.5-5.9,0.5-9c0-45.3-39.2-82-87.5-82s-87.5,36.7-87.5,82
		c0,5,0.5,9.9,1.4,14.7c-13.8-5-29.5-7.8-46.1-7.8c-55.1,0-99.8,31-99.8,69.2c0,2.1,0.1,4.2,0.4,6.3c-2.5-0.2-5-0.3-7.5-0.3
		c-43,0-77.9,28.3-77.9,63.2s34.9,63.2,77.9,63.2c6.8,0,13.4-0.7,19.7-2c12,19.6,33.5,32.6,58.2,32.6c26.4,0,49.3-15,60.6-37
		c33.8,4.1,72.7,6.4,114,6.4c12.8,0,25.3-0.2,37.6-0.7c7.1,21,48.6,37.1,98.6,37.1c55.1,0,99.7-19.5,99.7-43.5
		c0-6.7-3.4-13-9.6-18.6C612.8,274.4,649.4,253.2,649.4,227.9z"/>
	<path id="XMLID_342_" class="st1" d="M643,212.4c0-30-51.7-54.3-115.5-54.3c-13.2,0-26,1.1-37.8,3c1.8-5,2.8-10.3,2.8-15.8
		c0-31.1-31.2-56.4-69.6-56.4c-6.6,0-12.9,0.8-19,2.1c0.3-2.9,0.5-5.9,0.5-9c0-45.3-39.2-82-87.5-82c-48.3,0-87.5,36.7-87.5,82
		c0,5,0.5,9.9,1.4,14.7c-13.8-5-29.5-7.8-46.1-7.8c-55.1,0-99.8,31-99.8,69.2c0,2.1,0.1,4.2,0.4,6.3c-2.5-0.2-5-0.3-7.5-0.3
		c-43,0-77.9,28.3-77.9,63.2s34.9,63.2,77.9,63.2c6.8,0,13.4-0.7,19.7-2c12,19.6,33.5,32.6,58.2,32.6c26.4,0,49.3-15,60.6-37
		c33.8,4.1,72.7,6.4,114,6.4c12.8,0,25.3-0.2,37.6-0.7c7.1,21,48.6,37.1,98.6,37.1c55.1,0,99.7-19.5,99.7-43.5
		c0-6.7-3.4-13-9.6-18.6C606.3,258.8,643,237.6,643,212.4z"/>
</g>
</svg>
