<?xml version="1.0" encoding="utf-8"?>
<!-- Generator: Adobe Illustrator 23.0.1, SVG Export Plug-In . SVG Version: 6.00 Build 0)  -->
<svg version="1.1" id="Layer_1" xmlns="http://www.w3.org/2000/svg" xmlns:xlink="http://www.w3.org/1999/xlink" x="0px" y="0px"
	 viewBox="0 0 535.4 340.6" style="enable-background:new 0 0 535.4 340.6;" xml:space="preserve">
<style type="text/css">
	.st0{fill:#D7E2E2;}
	.st1{fill:#F2F4F4;}
</style>
<g>
	<path class="st0" d="M119.5,169.2c-12.4-36.7-10.4-70.2,8.7-101.8c14.7-24.3,35.6-41.3,62.4-50.2c32.4-10.7,64.1-8.1,94.3,8
		c30.3,16.1,49.2,41.4,58,75.4c25.9-20,52.3-23.8,78.4-4.5c22.6,16.7,27.2,40.2,19.5,67.6c3,0.7,5.9,1.6,8.7,2.1
		c46.7,7.6,77.8,47.9,74.2,96.2c-3.3,43.1-42.3,78.6-87.1,78.7c-116.4,0.2-232.8,0.3-349.1,0c-46.2-0.1-84-36.5-87.3-82.8
		c-3.1-43.4,30.2-86,73.8-92.6c10.9-1.7,22.4,1.1,33.6,1.9C110.9,167.2,114.1,168.1,119.5,169.2z"/>
	<path class="st1" d="M131,158.5c-12.4-36.7-10.4-70.2,8.7-101.8c14.7-24.3,35.6-41.3,62.4-50.2c32.4-10.7,64.1-8.1,94.3,8
		c30.3,16.1,49.2,41.4,58,75.4c25.9-20,52.3-23.8,78.4-4.5c22.6,16.7,27.2,40.2,19.5,67.6c3,0.7,5.9,1.6,8.7,2.1
		c46.7,7.6,77.8,47.9,74.2,96.2c-3.3,43.1-42.3,78.6-87.1,78.7c-116.4,0.2-232.8,0.3-349.1,0c-46.2-0.1-84-36.5-87.3-82.8
		c-3.1-43.4,30.2-86,73.8-92.6c10.9-1.7,22.4,1.1,33.6,1.9C122.3,156.5,125.5,157.5,131,158.5z"/>
</g>
</svg>
