<?xml version="1.0" encoding="utf-8"?>
<!-- Generator: Adobe Illustrator 23.0.1, SVG Export Plug-In . SVG Version: 6.00 Build 0)  -->
<svg version="1.1" id="Capa_1" xmlns="http://www.w3.org/2000/svg" xmlns:xlink="http://www.w3.org/1999/xlink"
	 x="0px" y="0px" viewBox="0 0 116 6.1" style="enable-background:new 0 0 116 6.1;" xml:space="preserve" fill="#e8ad82">
<g>
	<g>
		<path d="M110.4,0.3c-2.8-0.7-5.3,0-8.1,0.1c-1.6,0-4.1-0.4-6.4-0.4c-1,0-1.9,0.1-2.6,0.5c-1.7,0.8-3,3.4-0.4,4.6
			c2.2,1.1,4.8,1,7.3,0.8c3.3-0.1,6.8-0.3,10.1-1.1C112.6,4.3,112.6,0.8,110.4,0.3z"/>
	</g>
</g>
<g>
	<g>
		<path d="M80.9,0.3c-2.8-0.7-5.3,0-8.1,0.1c-1.6,0-4.1-0.4-6.3-0.4c-1,0-1.9,0.1-2.6,0.5c-1.7,0.8-3,3.4-0.4,4.6
			c2.3,1.1,4.9,1,7.3,0.9c3.3-0.1,6.8-0.3,10.1-1.1C83.1,4.3,83.1,0.8,80.9,0.3z"/>
	</g>
</g>
<g>
	<g>
		<path d="M22.6,0.5C21.9,0.1,21,0,20,0c-2.1,0-4.6,0.4-6.3,0.4c-2.7-0.1-5.3-0.7-8-0.1c-2.2,0.5-2.2,4,0,4.5
			c3.2,0.8,6.7,1,10.1,1.1c2.4,0.1,5,0.2,7.3-0.8C25.6,3.9,24.4,1.3,22.6,0.5z"/>
	</g>
</g>
<g>
	<g>
		<path d="M52.3,0.5C51.5,0.1,50.5,0,49.7,0c-2.1,0-4.6,0.4-6.3,0.4c-2.7-0.1-5.3-0.7-8.1-0.1c-2.2,0.5-2.2,4,0,4.5
			c3.2,0.8,6.7,1,10.1,1.1c2.4,0.1,5,0.2,7.3-0.8C55.2,3.9,53.9,1.3,52.3,0.5z"/>
	</g>
</g>
</svg>
