<?xml version="1.0" encoding="utf-8"?>
<!-- Generator: Adobe Illustrator 23.0.1, SVG Export Plug-In . SVG Version: 6.00 Build 0)  -->
<svg version="1.1" id="Layer_1" xmlns="http://www.w3.org/2000/svg" xmlns:xlink="http://www.w3.org/1999/xlink" x="0px" y="0px"
	 viewBox="0 0 305.1 101" style="enable-background:new 0 0 305.1 101;" xml:space="preserve">
<style type="text/css">
	.st0{opacity:0.5;}
</style>
<g class="st0">
	
		<image style="overflow:visible;" width="303" height="102" xlink:href="8DB72652.png"  transform="matrix(1 0 0 1 2.5828 -2.342020e-02)">
	</image>
	
		<image style="overflow:visible;opacity:0.9;" width="69" height="40" xlink:href="8DB72656.png"  transform="matrix(1 0 0 1 108.5828 8.9766)">
	</image>
	
		<image style="overflow:visible;opacity:0.9;" width="54" height="32" xlink:href="8DB72651.png"  transform="matrix(1 0 0 1 21.5828 44.9766)">
	</image>
	
		<image style="overflow:visible;opacity:0.9;" width="42" height="25" xlink:href="8DB72653.png"  transform="matrix(1 0 0 1 10.5828 57.9766)">
	</image>
	
		<image style="overflow:visible;opacity:0.9;" width="60" height="37" xlink:href="8DB72650.png"  transform="matrix(1 0 0 1 140.5828 23.9766)">
	</image>
	
		<image style="overflow:visible;opacity:0.9;" width="60" height="36" xlink:href="8DB7265E.png"  transform="matrix(1 0 0 1 184.5828 29.9766)">
	</image>
	
		<image style="overflow:visible;opacity:0.6;" width="61" height="37" xlink:href="8DB72655.png"  transform="matrix(1 0 0 1 63.5828 23.9766)">
	</image>
	
		<image style="overflow:visible;opacity:0.6;" width="56" height="28" xlink:href="8DB72657.png"  transform="matrix(1 0 0 1 55.5828 49.9766)">
	</image>
	
		<image style="overflow:visible;opacity:0.6;" width="57" height="28" xlink:href="8DB72654.png"  transform="matrix(1 0 0 1 227.5828 53.9766)">
	</image>
	
		<image style="overflow:visible;opacity:0.6;" width="57" height="29" xlink:href="7B788A25.png"  transform="matrix(1 0 0 1 245.5828 48.9766)">
	</image>
	
		<image style="overflow:visible;opacity:0.6;" width="57" height="28" xlink:href="7B788A3B.png"  transform="matrix(1 0 0 1 240.5828 57.9766)">
	</image>
	
		<image style="overflow:visible;opacity:0.6;" width="57" height="28" xlink:href="7B788A3D.png"  transform="matrix(1 0 0 1 39.5828 40.9766)">
	</image>
	
		<image style="overflow:visible;opacity:0.6;" width="61" height="37" xlink:href="7B788A3F.png"  transform="matrix(1 0 0 1 92.5828 15.9766)">
	</image>
	
		<image style="overflow:visible;opacity:0.7;" width="60" height="36" xlink:href="7B788A3C.png"  transform="matrix(1 0 0 1 214.5828 38.9766)">
	</image>
	
		<image style="overflow:visible;opacity:0.7;" width="57" height="28" xlink:href="7B788A24.png"  transform="matrix(1 0 0 1 114.5828 42.9766)">
	</image>
	
		<image style="overflow:visible;opacity:0.7;" width="58" height="27" xlink:href="7B788A27.png"  transform="matrix(1 0 0 1 94.5828 57.9766)">
	</image>
	
		<image style="overflow:visible;opacity:0.7;" width="57" height="27" xlink:href="7B788A22.png"  transform="matrix(1 0 0 1 -0.4172 51.9766)">
	</image>
	
		<image style="overflow:visible;" width="118" height="56" xlink:href="7B788A23.png"  transform="matrix(1 0 0 1 155.5828 39.9766)">
	</image>
	
		<image style="overflow:visible;" width="86" height="38" xlink:href="7B788A2B.png"  transform="matrix(1 0 0 1 124.5828 52.9766)">
	</image>
	
		<image style="overflow:visible;" width="86" height="37" xlink:href="7B788A40.png"  transform="matrix(1 0 0 1 143.5828 60.9766)">
	</image>
	
		<image style="overflow:visible;opacity:0.7;" width="80" height="39" xlink:href="7B788A43.png"  transform="matrix(1 0 0 1 130.5828 38.9766)">
	</image>
	
		<image style="overflow:visible;opacity:0.7;" width="81" height="39" xlink:href="7B788A41.png"  transform="matrix(1 0 0 1 146.5828 27.9766)">
	</image>
	
		<image style="overflow:visible;opacity:0.2;" width="80" height="39" xlink:href="7B788A4F.png"  transform="matrix(1 0 0 1 167.5828 44.9766)">
	</image>
</g>
</svg>
