<?xml version="1.0" encoding="utf-8"?>
<!-- Generator: Adobe Illustrator 23.0.1, SVG Export Plug-In . SVG Version: 6.00 Build 0)  -->
<svg version="1.1" id="Layer_1" xmlns="http://www.w3.org/2000/svg" xmlns:xlink="http://www.w3.org/1999/xlink" x="0px" y="0px"
	 viewBox="0 0 549.7 551.1" style="enable-background:new 0 0 549.7 551.1;" xml:space="preserve">
<style type="text/css">
	.st0{display:none;fill:url(#SVGID_1_);}
	.st1{display:none;fill:url(#SVGID_2_);}
	.st2{display:none;fill:url(#SVGID_3_);}
	.st3{display:none;fill:url(#SVGID_4_);}
	.st4{display:none;fill:url(#SVGID_5_);}
	.st5{display:none;fill:url(#SVGID_6_);}
	.st6{display:none;fill:url(#SVGID_7_);}
	.st7{display:none;fill:url(#SVGID_8_);}
	.st8{display:none;fill:url(#SVGID_9_);}
	.st9{display:none;fill:url(#SVGID_10_);}
	.st10{display:none;fill:url(#SVGID_11_);}
	.st11{display:none;fill:url(#SVGID_12_);}
	.st12{fill:url(#SVGID_13_);}
	.st13{fill:url(#SVGID_14_);}
	.st14{fill:url(#SVGID_15_);}
	.st15{fill:url(#SVGID_16_);}
	.st16{fill:url(#SVGID_17_);}
	.st17{fill:url(#SVGID_18_);}
	.st18{fill:url(#SVGID_19_);}
	.st19{fill:url(#SVGID_20_);}
	.st20{fill:url(#SVGID_21_);}
	.st21{fill:url(#SVGID_22_);}
	.st22{fill:url(#SVGID_23_);}
	.st23{fill:url(#SVGID_24_);}
	.st24{fill:url(#SVGID_25_);}
</style>
<g>
	<linearGradient id="SVGID_1_" gradientUnits="userSpaceOnUse" x1="261.6582" y1="57.8525" x2="289.0193" y2="57.8525">
		<stop  offset="9.999999e-08" style="stop-color:#F9E933"/>
		<stop  offset="1" style="stop-color:#FBB83E"/>
	</linearGradient>
	<path class="st0" d="M289,58.1c0,13.8,0.1,27.6,0,41.4c-0.1,9.6-5.1,15.6-12.8,16c-7.9,0.4-14.2-6-14.3-15.7
		c-0.2-27.9-0.2-55.8,0-83.6c0.1-10.1,5.7-15.9,14-15.8c8.3,0.2,13,5.9,13.1,16.5C289.1,30.5,289,44.3,289,58.1z"/>
	<linearGradient id="SVGID_2_" gradientUnits="userSpaceOnUse" x1="344.8284" y1="85.7338" x2="415.604" y2="85.7338">
		<stop  offset="9.999999e-08" style="stop-color:#F9E933"/>
		<stop  offset="1" style="stop-color:#FBB83E"/>
	</linearGradient>
	<path class="st1" d="M413.5,41.2c2.1,2.5,2.7,6,1.5,9c-1.2,2.9-2,5.1-3.2,7.2c-13.2,23.1-26.5,46.2-39.9,69.2
		c-5.8,9.9-13.5,12.7-21,8.1c-6.9-4.3-7.9-12.3-2.4-21.9c13.6-23.6,27.2-47.2,40.9-70.7c3.7-6.4,14-9.2,21.4-5.9
		C413.6,37.4,411.2,38.4,413.5,41.2z"/>
	<linearGradient id="SVGID_3_" gradientUnits="userSpaceOnUse" x1="413.0033" y1="380.7192" x2="516.4141" y2="380.7192">
		<stop  offset="9.999999e-08" style="stop-color:#F9E933"/>
		<stop  offset="1" style="stop-color:#FBB83E"/>
	</linearGradient>
	<path class="st2" d="M425,344.4c5.2,2.3,8.4,3.4,11.3,5c23.6,13.5,47.3,27.1,70.8,40.8c9,5.2,11.8,13.4,7.3,20.6
		c-4.3,6.9-11.9,8.1-21,2.9c-23.9-13.7-47.8-27.4-71.6-41.3c-6.4-3.7-10.9-9.3-7.5-16.6C416.2,351.3,421.4,348.1,425,344.4z"/>
	<linearGradient id="SVGID_4_" gradientUnits="userSpaceOnUse" x1="351.0473" y1="462.8073" x2="421.7961" y2="462.8073">
		<stop  offset="9.999999e-08" style="stop-color:#F9E933"/>
		<stop  offset="1" style="stop-color:#FBB83E"/>
	</linearGradient>
	<path class="st3" d="M367.6,411.3c1.8,1.5,6.6,3.8,8.8,7.5c14.7,24.7,29.1,49.6,43.2,74.6c4.3,7.6,2,15.5-4.6,19.2
		c-6.6,3.6-14.5,1.6-18.9-5.8c-14.6-24.8-29-49.7-43.1-74.7C347.4,421.9,354,410.9,367.6,411.3z"/>
	<linearGradient id="SVGID_5_" gradientUnits="userSpaceOnUse" x1="410.9441" y1="164.2672" x2="512.9895" y2="164.2672">
		<stop  offset="9.999999e-08" style="stop-color:#F9E933"/>
		<stop  offset="1" style="stop-color:#FBB83E"/>
	</linearGradient>
	<path class="st4" d="M421.7,200.2c-3.5-2.9-9.2-5.4-10.4-9.2c-1.3-4.4,1.1-10.1,2.6-15c0.5-1.6,3.2-2.6,5.1-3.7
		c23.6-13.6,47.1-27.3,70.8-40.8c9.4-5.4,17.2-3.8,21.4,3.8c4,7.2,1.4,14.2-7.7,19.6c-23.5,13.7-47.1,27.3-70.7,40.9
		C429.9,197.3,426.6,198.2,421.7,200.2z"/>
	<linearGradient id="SVGID_6_" gradientUnits="userSpaceOnUse" x1="434.7564" y1="272.0866" x2="549.871" y2="272.0866">
		<stop  offset="9.999999e-08" style="stop-color:#F9E933"/>
		<stop  offset="1" style="stop-color:#FBB83E"/>
	</linearGradient>
	<path class="st5" d="M492,258.5c13.2,0,26.3,0,39.5,0c11.8,0.1,18.2,4.8,18.3,13.4c0.2,8.7-6.3,13.8-17.9,13.8
		c-26.6,0.1-53.3,0.1-79.9,0c-11.1,0-17.2-4.9-17.3-13.4c-0.1-8.8,6.1-13.8,17.8-13.9C465.7,258.4,478.9,258.5,492,258.5z"/>
	<linearGradient id="SVGID_7_" gradientUnits="userSpaceOnUse" x1="264.1897" y1="493.7188" x2="291.4246" y2="493.7188">
		<stop  offset="9.999999e-08" style="stop-color:#F9E933"/>
		<stop  offset="1" style="stop-color:#FBB83E"/>
	</linearGradient>
	<path class="st6" d="M291.4,493.6c0,13.8,0.1,27.6,0,41.3c-0.1,10.4-5.2,16.2-13.4,16.3c-8.3,0.1-13.6-5.7-13.6-16
		c-0.2-27.6-0.1-55.1,0-82.7c0.1-10.3,5.2-16.3,13.3-16.4c8.1-0.1,13.5,6,13.7,16.1C291.5,466,291.4,479.8,291.4,493.6z"/>
	
		<linearGradient id="SVGID_8_" gradientUnits="userSpaceOnUse" x1="1277.6112" y1="84.9712" x2="1349.8104" y2="84.9712" gradientTransform="matrix(-1 0 0 1 1490.0995 0)">
		<stop  offset="9.999999e-08" style="stop-color:#F9E933"/>
		<stop  offset="1" style="stop-color:#FBB83E"/>
	</linearGradient>
	<path class="st7" d="M140.3,45.2c2.4,5.6,3.5,9.1,5.3,12.2c13.2,23.1,26.5,46.2,39.9,69.2c5.8,9.9,13.5,12.7,21,8.1
		c6.9-4.3,7.9-12.3,2.4-21.9c-13.6-23.6-27.2-47.2-40.9-70.7c-3.7-6.4-9.2-11-16.5-7.8C147,36.3,143.8,41.6,140.3,45.2z"/>
	
		<linearGradient id="SVGID_9_" gradientUnits="userSpaceOnUse" x1="1345.7861" y1="380.7192" x2="1449.1969" y2="380.7192" gradientTransform="matrix(-1 0 0 1 1490.0995 0)">
		<stop  offset="9.999999e-08" style="stop-color:#F9E933"/>
		<stop  offset="1" style="stop-color:#FBB83E"/>
	</linearGradient>
	<path class="st8" d="M132.4,344.4c-5.2,2.3-8.4,3.4-11.3,5c-23.6,13.5-47.3,27.1-70.8,40.8c-9,5.2-11.8,13.4-7.3,20.6
		c4.3,6.9,11.9,8.1,21,2.9c23.9-13.7,47.8-27.4,71.6-41.3c6.4-3.7,10.9-9.3,7.5-16.6C141.1,351.3,135.9,348.1,132.4,344.4z"/>
	
		<linearGradient id="SVGID_10_" gradientUnits="userSpaceOnUse" x1="1283.8301" y1="462.8073" x2="1354.579" y2="462.8073" gradientTransform="matrix(-1 0 0 1 1490.0995 0)">
		<stop  offset="9.999999e-08" style="stop-color:#F9E933"/>
		<stop  offset="1" style="stop-color:#FBB83E"/>
	</linearGradient>
	<path class="st9" d="M189.7,411.3c-1.8,1.5-6.6,3.8-8.8,7.5c-14.7,24.7-29.1,49.6-43.2,74.6c-4.3,7.6-2,15.5,4.6,19.2
		c6.6,3.6,14.5,1.6,18.9-5.8c14.6-24.8,29-49.7,43.1-74.7C209.9,421.9,203.4,410.9,189.7,411.3z"/>
	
		<linearGradient id="SVGID_11_" gradientUnits="userSpaceOnUse" x1="1343.7268" y1="164.2672" x2="1445.7723" y2="164.2672" gradientTransform="matrix(-1 0 0 1 1490.0995 0)">
		<stop  offset="9.999999e-08" style="stop-color:#F9E933"/>
		<stop  offset="1" style="stop-color:#FBB83E"/>
	</linearGradient>
	<path class="st10" d="M135.6,200.2c3.5-2.9,9.2-5.4,10.4-9.2c1.3-4.4-1.1-10.1-2.6-15c-0.5-1.6-3.2-2.6-5.1-3.7
		c-23.6-13.6-47.1-27.3-70.8-40.8c-9.4-5.4-17.2-3.8-21.4,3.8c-4,7.2-1.4,14.2,7.7,19.6c23.5,13.7,47.1,27.3,70.7,40.9
		C127.5,197.3,130.7,198.2,135.6,200.2z"/>
	
		<linearGradient id="SVGID_12_" gradientUnits="userSpaceOnUse" x1="1367.5392" y1="272.0866" x2="1482.6538" y2="272.0866" gradientTransform="matrix(-1 0 0 1 1490.0995 0)">
		<stop  offset="9.999999e-08" style="stop-color:#F9E933"/>
		<stop  offset="1" style="stop-color:#FBB83E"/>
	</linearGradient>
	<path class="st11" d="M65.3,258.5c-13.2,0-26.3,0-39.5,0c-11.8,0.1-18.2,4.8-18.3,13.4c-0.2,8.7,6.3,13.8,17.9,13.8
		c26.6,0.1,53.3,0.1,79.9,0c11.1,0,17.2-4.9,17.3-13.4c0.1-8.8-6.1-13.8-17.8-13.9C91.6,258.4,78.4,258.5,65.3,258.5z"/>
</g>
<linearGradient id="SVGID_13_" gradientUnits="userSpaceOnUse" x1="161.8728" y1="275.5565" x2="387.7846" y2="275.5565">
	<stop  offset="9.999999e-08" style="stop-color:#F9E933"/>
	<stop  offset="1" style="stop-color:#FBB83E"/>
</linearGradient>
<circle class="st12" cx="274.8" cy="275.6" r="113"/>
<linearGradient id="SVGID_14_" gradientUnits="userSpaceOnUse" x1="364.0631" y1="91.6331" x2="479.1753" y2="91.6331" gradientTransform="matrix(0.5 -0.866 0.866 0.5 89.928 404.8729)">
	<stop  offset="9.999999e-08" style="stop-color:#F9E933"/>
	<stop  offset="1" style="stop-color:#FBB83E"/>
</linearGradient>
<path class="st13" d="M414.1,52.9l-45.6,78.3c-3.4,5.8-10.9,7.8-16.7,4.5l-1.2-0.7c-5.8-3.4-7.8-10.9-4.5-16.7l45.6-78.3
	c3.4-5.8,10.9-7.8,16.7-4.5l1.2,0.7C415.5,39.5,417.5,47,414.1,52.9z"/>
<linearGradient id="SVGID_15_" gradientUnits="userSpaceOnUse" x1="347.2875" y1="-13.3339" x2="462.3996" y2="-13.3339" gradientTransform="matrix(-4.930116e-04 -1 1 -4.930116e-04 288.6277 462.3934)">
	<stop  offset="9.999999e-08" style="stop-color:#F9E933"/>
	<stop  offset="1" style="stop-color:#FBB83E"/>
</linearGradient>
<path class="st14" d="M288.2,12.2l-0.3,90.6c0,6.7-5.5,12.2-12.2,12.2l-1.4,0c-6.7,0-12.2-5.5-12.2-12.2l0.3-90.6
	c0-6.7,5.5-12.2,12.2-12.2l1.4,0C282.7,0,288.2,5.5,288.2,12.2z"/>
<linearGradient id="SVGID_16_" gradientUnits="userSpaceOnUse" x1="26.4001" y1="-13.5205" x2="-88.7129" y2="-13.5772" gradientTransform="matrix(-4.930116e-04 -1 1 -4.930116e-04 288.6277 462.3934)">
	<stop  offset="9.999999e-08" style="stop-color:#F9E933"/>
	<stop  offset="1" style="stop-color:#FBB83E"/>
</linearGradient>
<path class="st15" d="M288.2,448.2l-0.3,90.6c0,6.7-5.5,12.2-12.2,12.2l-1.4,0c-6.7,0-12.2-5.5-12.2-12.2l0.3-90.6
	c0-6.7,5.5-12.2,12.2-12.2l1.4,0C282.7,436,288.2,441.5,288.2,448.2z"/>
<linearGradient id="SVGID_17_" gradientUnits="userSpaceOnUse" x1="349.5276" y1="201.0897" x2="464.6398" y2="201.0897" gradientTransform="matrix(0.8593 -0.5115 0.5115 0.8593 10.4374 197.9975)">
	<stop  offset="9.999999e-08" style="stop-color:#F9E933"/>
	<stop  offset="1" style="stop-color:#FBB83E"/>
</linearGradient>
<path class="st16" d="M508.7,150.6l-78,46.1c-5.8,3.4-13.3,1.5-16.8-4.3l-0.7-1.2c-3.4-5.8-1.5-13.3,4.3-16.8l78-46.1
	c5.8-3.4,13.3-1.5,16.8,4.3l0.7,1.2C516.4,139.7,514.5,147.2,508.7,150.6z"/>
<linearGradient id="SVGID_18_" gradientUnits="userSpaceOnUse" x1="350.9009" y1="389.0157" x2="235.7836" y2="387.4784" gradientTransform="matrix(-0.8593 -0.5115 -0.5115 0.8593 915.751 197.9975)">
	<stop  offset="9.999999e-08" style="stop-color:#F9E933"/>
	<stop  offset="1" style="stop-color:#FBB83E"/>
</linearGradient>
<path class="st17" d="M419.4,369.6l78,46.1c5.8,3.4,13.3,1.5,16.8-4.3l0.7-1.2c3.4-5.8,1.5-13.3-4.3-16.8l-78-46.1
	c-5.8-3.4-13.3-1.5-16.8,4.3l-0.7,1.2C411.7,358.7,413.7,366.2,419.4,369.6z"/>
<linearGradient id="SVGID_19_" gradientUnits="userSpaceOnUse" x1="364.4219" y1="498.0708" x2="249.3069" y2="498.7996" gradientTransform="matrix(-0.5055 -0.8628 -0.8628 0.5055 971.2769 475.3871)">
	<stop  offset="9.999999e-08" style="stop-color:#F9E933"/>
	<stop  offset="1" style="stop-color:#FBB83E"/>
</linearGradient>
<path class="st18" d="M351.9,430.1l46.1,78c3.4,5.8,10.9,7.8,16.7,4.4l1.2-0.7c5.8-3.4,7.8-10.9,4.4-16.7l-46.1-78
	c-3.4-5.8-10.9-7.8-16.7-4.4l-1.2,0.7C350.4,416.7,348.5,424.3,351.9,430.1z"/>
<linearGradient id="SVGID_20_" gradientUnits="userSpaceOnUse" x1="330.2874" y1="309.7362" x2="445.3996" y2="309.7362" gradientTransform="matrix(0.9999 -1.176565e-02 1.176565e-02 0.9999 100.6332 -33.595)">
	<stop  offset="9.999999e-08" style="stop-color:#F9E933"/>
	<stop  offset="1" style="stop-color:#FBB83E"/>
</linearGradient>
<path class="st19" d="M537.6,284.1l-90.6,0.7c-6.7,0.1-12.3-5.4-12.4-12.1l0-1.4c-0.1-6.7,5.4-12.3,12.1-12.4l90.6-0.7
	c6.7-0.1,12.3,5.4,12.4,12.1l0,1.4C549.7,278.5,544.3,284.1,537.6,284.1z"/>
<linearGradient id="SVGID_21_" gradientUnits="userSpaceOnUse" x1="207.0631" y1="-180.2989" x2="322.1753" y2="-180.2989" gradientTransform="matrix(-0.5 -0.866 -0.866 0.5 145.7294 404.8729)">
	<stop  offset="9.999999e-08" style="stop-color:#F9E933"/>
	<stop  offset="1" style="stop-color:#FBB83E"/>
</linearGradient>
<path class="st20" d="M135.5,52.9l45.6,78.3c3.4,5.8,10.9,7.8,16.7,4.5l1.2-0.7c5.8-3.4,7.8-10.9,4.5-16.7L158,39.9
	c-3.4-5.8-10.9-7.8-16.7-4.5l-1.2,0.7C134.2,39.5,132.2,47,135.5,52.9z"/>
<linearGradient id="SVGID_22_" gradientUnits="userSpaceOnUse" x1="79.7165" y1="40.4724" x2="194.8286" y2="40.4724" gradientTransform="matrix(-0.8593 -0.5115 -0.5115 0.8593 225.22 197.9975)">
	<stop  offset="9.999999e-08" style="stop-color:#F9E933"/>
	<stop  offset="1" style="stop-color:#FBB83E"/>
</linearGradient>
<path class="st21" d="M40.9,150.6l78,46.1c5.8,3.4,13.3,1.5,16.8-4.3l0.7-1.2c3.4-5.8,1.5-13.3-4.3-16.8l-78-46.1
	c-5.8-3.4-13.3-1.5-16.8,4.3l-0.7,1.2C33.2,139.7,35.1,147.2,40.9,150.6z"/>
<linearGradient id="SVGID_23_" gradientUnits="userSpaceOnUse" x1="620.712" y1="549.6331" x2="505.5948" y2="548.0957" gradientTransform="matrix(0.8593 -0.5115 0.5115 0.8593 -680.0935 197.9975)">
	<stop  offset="9.999999e-08" style="stop-color:#F9E933"/>
	<stop  offset="1" style="stop-color:#FBB83E"/>
</linearGradient>
<path class="st22" d="M130.2,369.6l-78,46.1c-5.8,3.4-13.3,1.5-16.8-4.3l-0.7-1.2c-3.4-5.8-1.5-13.3,4.3-16.8l78-46.1
	c5.8-3.4,13.3-1.5,16.8,4.3l0.7,1.2C137.9,358.7,136,366.2,130.2,369.6z"/>
<linearGradient id="SVGID_24_" gradientUnits="userSpaceOnUse" x1="523.1401" y1="769.0035" x2="408.0252" y2="769.7322" gradientTransform="matrix(0.5055 -0.8628 0.8628 0.5055 -735.6194 475.3871)">
	<stop  offset="9.999999e-08" style="stop-color:#F9E933"/>
	<stop  offset="1" style="stop-color:#FBB83E"/>
</linearGradient>
<path class="st23" d="M197.8,430.1l-46.1,78c-3.4,5.8-10.9,7.8-16.7,4.4l-1.2-0.7c-5.8-3.4-7.8-10.9-4.4-16.7l46.1-78
	c3.4-5.8,10.9-7.8,16.7-4.4l1.2,0.7C199.2,416.7,201.2,424.3,197.8,430.1z"/>
<linearGradient id="SVGID_25_" gradientUnits="userSpaceOnUse" x1="16.3092" y1="306.0418" x2="131.4214" y2="306.0418" gradientTransform="matrix(-0.9999 -1.176565e-02 -1.176565e-02 0.9999 135.0242 -33.595)">
	<stop  offset="9.999999e-08" style="stop-color:#F9E933"/>
	<stop  offset="1" style="stop-color:#FBB83E"/>
</linearGradient>
<path class="st24" d="M12.1,284.1l90.6,0.7c6.7,0.1,12.3-5.4,12.4-12.1l0-1.4c0.1-6.7-5.4-12.3-12.1-12.4l-90.6-0.7
	c-6.7-0.1-12.3,5.4-12.4,12.1l0,1.4C-0.1,278.5,5.4,284.1,12.1,284.1z"/>
</svg>
