<?xml version="1.0" encoding="utf-8"?>
<!-- Generator: Adobe Illustrator 23.0.1, SVG Export Plug-In . SVG Version: 6.00 Build 0)  -->
<svg version="1.1" id="Isolation_Mode" xmlns="http://www.w3.org/2000/svg" xmlns:xlink="http://www.w3.org/1999/xlink" x="0px"
	 y="0px" viewBox="0 0 6.8 6.8" style="enable-background:new 0 0 6.8 6.8;" xml:space="preserve">
<style type="text/css">
	.st0{opacity:0.5;}
	.st1{fill:url(#SVGID_1_);}
	.st2{fill:url(#SVGID_2_);}
	.st3{opacity:0.4;}
	.st4{fill:#C18EA6;}
	.st5{opacity:0.6;fill:#C2989C;enable-background:new    ;}
	.st6{opacity:0.7;fill:#C3E8FA;enable-background:new    ;}
</style>
<g class="st0">
	
		<linearGradient id="SVGID_1_" gradientUnits="userSpaceOnUse" x1="1.827" y1="8.032" x2="5.0051" y2="1.0978" gradientTransform="matrix(1 0 0 -1 0 8)">
		<stop  offset="3.198740e-02" style="stop-color:#89D2D9"/>
		<stop  offset="0.2733" style="stop-color:#E36233"/>
		<stop  offset="0.7748" style="stop-color:#E79338"/>
		<stop  offset="1" style="stop-color:#A7ADA2"/>
	</linearGradient>
	<path class="st1" d="M6.8,3.4c0,1.9-1.5,3.4-3.4,3.4S0,5.3,0,3.4S1.5,0,3.4,0S6.8,1.5,6.8,3.4z"/>
	
		<linearGradient id="SVGID_2_" gradientUnits="userSpaceOnUse" x1="2.4019" y1="7.7051" x2="4.4244" y2="1.4129" gradientTransform="matrix(1 0 0 -1 0 8)">
		<stop  offset="0" style="stop-color:#E36233"/>
		<stop  offset="0.2784" style="stop-color:#DF1F2F"/>
		<stop  offset="0.2839" style="stop-color:#DF212F"/>
		<stop  offset="0.4555" style="stop-color:#E25132"/>
		<stop  offset="0.5865" style="stop-color:#E46F34"/>
		<stop  offset="0.6606" style="stop-color:#E57A35"/>
		<stop  offset="0.7164" style="stop-color:#E57335"/>
		<stop  offset="0.8006" style="stop-color:#E35E33"/>
		<stop  offset="0.9021" style="stop-color:#E13C31"/>
		<stop  offset="0.9161" style="stop-color:#E13731"/>
	</linearGradient>
	<path class="st2" d="M6.8,3.4c0,1.9-1.5,3.4-3.4,3.4S0,5.3,0,3.4S1.5,0,3.4,0S6.8,1.5,6.8,3.4z"/>
	<g class="st3">
		<path class="st4" d="M1.4,3.5c0.3-0.1,0.7,0,1-0.2S2.7,2.8,3,2.6c0.2-0.1,0.3-0.1,0.5-0.2c0.2,0,0.4-0.1,0.5-0.2
			c0.1,0,0.3-0.2,0.2-0.3c0,0-0.2-0.1-0.3-0.1c-0.3,0-0.5,0-0.8,0C3,1.8,2.8,1.9,2.6,1.9C2.5,2,2.3,2.1,2.1,2.2
			C1.7,2.3,1.4,2.2,1,2.1c-0.2,0-0.4,0-0.6,0c0,0,0,0-0.1,0C0.2,2.5,0.1,2.9,0.1,3.4c0,0.3,0,0.6,0.1,0.9C0.4,4.2,0.6,4,0.8,3.9
			C1,3.7,1.1,3.6,1.4,3.5z"/>
		<path class="st4" d="M2,6.5c0.1,0,0.3-0.1,0.4-0.2C2.5,6.2,2.6,6,2.8,5.8c0.1-0.1,0.3-0.3,0.5-0.4c0.3-0.2,0.7-0.2,1-0.3
			C4.5,5.1,4.7,5,4.9,5s0.4,0.1,0.6,0.1c0.2,0.2,0.5,0.2,0.7,0.2c0.4-0.6,0.6-1.2,0.6-1.9c0-0.6-0.2-1.2-0.5-1.8
			c0,0.1-0.1,0.2-0.2,0.3C6,2,5.9,2.2,5.9,2.4c0,0.2,0,0.3,0,0.5S6,3.2,6,3.4S5.9,3.7,5.8,3.8C5.7,4,5.5,4,5.4,4.2
			C5.3,4.3,5.3,4.4,5.3,4.5s0,0.2-0.1,0.2c0,0.1-0.1,0.2-0.3,0.2S4.6,4.8,4.5,4.8C4.3,4.7,4.1,4.6,3.8,4.5c-0.1,0-0.2,0-0.3,0
			c-0.1,0-0.1,0.1-0.1,0.1C3.3,4.7,3.1,4.8,2.9,4.8c-0.2,0-0.4,0.1-0.6,0C2.2,4.8,2,4.7,1.8,4.6c-0.2,0-0.4,0-0.6-0.1
			c-0.1,0-0.2,0-0.4,0s-0.3,0-0.5,0.1H0.2C0.6,5.4,1.2,6.1,2,6.5z"/>
		<path class="st4" d="M4.6,1c0.1,0,0.1,0,0.2-0.1c0.1,0,0.2,0,0.3,0c0.1,0,0.2,0,0.3,0c0.1,0,0.2,0,0.3,0C5.6,0.8,5.5,0.7,5.3,0.6
			C5.1,0.8,4.6,0.9,4.3,1C4.4,1,4.5,1.1,4.6,1z"/>
	</g>
	<g class="st3">
		<path class="st4" d="M0.8,2.5c-0.2,0-0.5-0.1-0.7,0c0,0.1,0,0.2-0.1,0.2c0.1,0,0.2,0,0.3-0.1C0.5,2.6,0.7,2.6,0.8,2.5z"/>
		<path class="st4" d="M2,3c0.2,0,0.3-0.1,0.5-0.2l0,0C2.3,2.9,2.1,3,2,3z"/>
		<path class="st4" d="M2.6,2.3C2.6,2.3,2.5,2.3,2.6,2.3c-0.1,0-0.1,0-0.2,0c0,0,0,0-0.1,0c0.2,0,0.3,0,0.4-0.1
			C2.7,2.3,2.7,2.3,2.6,2.3L2.6,2.3z"/>
		<path class="st4" d="M0,3.9L0,3.9c0.1,0,0.2,0,0.3-0.1C0.2,3.8,0.1,3.8,0,3.9z"/>
		<path class="st4" d="M3.6,2c0,0,0.1,0,0.2-0.1C3.6,2,3.4,2,3.2,2.1C3.3,2.1,3.5,2.1,3.6,2z"/>
		<path class="st4" d="M1.2,2.9c0.1,0,0.2-0.1,0.2-0.2c-0.2,0-0.3,0.1-0.5,0.2C1,2.9,1.1,2.9,1.2,2.9z"/>
		<path class="st4" d="M2.1,5.9c0.1,0,0.2,0,0.2-0.1c0.1-0.1,0.1-0.1,0.2-0.2C2.2,5.7,2,5.8,1.8,5.8C1.6,5.9,1.4,6,1.3,6.1
			c0.1,0,0.1,0.1,0.2,0.1C1.6,6.1,1.7,6,1.9,6C1.9,6,2,6,2.1,5.9z"/>
		<path class="st4" d="M2.2,5.3c0.1,0,0.1,0,0.2,0c0.1,0,0.2,0,0.4-0.1C2.6,5.2,2.4,5.2,2.2,5.3z"/>
		<path class="st4" d="M6.7,2.7L6.7,2.7c-0.1,0-0.2,0-0.2,0C6.6,2.7,6.7,2.7,6.7,2.7z"/>
		<path class="st4" d="M3.8,4.8C3.9,4.8,3.9,4.8,3.8,4.8c0-0.1-0.2,0-0.3,0C3.6,4.9,3.7,4.9,3.8,4.8z"/>
		<path class="st4" d="M6.1,3.9c0.1,0,0.2,0,0.3-0.1c0,0,0,0,0-0.1C6.3,3.8,6.2,3.8,6.1,3.9z"/>
		<path class="st4" d="M6.3,4.4c0.1,0,0.3,0,0.4-0.1V4.2c-0.1,0-0.1,0-0.2,0C6.4,4.2,6.4,4.3,6.3,4.4z"/>
	</g>
	<path class="st5" d="M3.4,0C1.5,0,0,1.5,0,3.4s1.5,3.4,3.4,3.4s3.4-1.5,3.4-3.4S5.3,0,3.4,0z M3.2,5.9c-1.6,0-2.8-1.3-2.8-2.8
		c0-1.6,1.3-2.8,2.8-2.8S6,1.5,6,3.1C6,4.6,4.7,5.9,3.2,5.9z"/>
	<path class="st6" d="M0.8,5.2C0.3,4.5,0.2,3.8,0.1,3.4l0,0c0-0.2,0-0.3,0-0.5C0,3.4,0,4.2,0.5,5.1C1.4,6.6,3,6.8,3.8,6.7
		C3.8,6.7,1.9,6.9,0.8,5.2z"/>
</g>
</svg>
