<?xml version="1.0" encoding="utf-8"?>
<!-- Generator: Adobe Illustrator 23.0.1, SVG Export Plug-In . SVG Version: 6.00 Build 0)  -->
<svg version="1.1" id="Layer_1" xmlns="http://www.w3.org/2000/svg" xmlns:xlink="http://www.w3.org/1999/xlink" x="0px" y="0px"
	 viewBox="0 0 2500.6 1235.3" style="enable-background:new 0 0 2500.6 1235.3;" xml:space="preserve">
<style type="text/css">
	.st0{fill:#44302C;}
	.st1{fill:#245C40;}
	.st2{clip-path:url(#SVGID_2_);}
	.st3{fill:#4A612B;}
	.st4{fill:#6C8C24;}
	.st5{fill:#3D5727;}
	.st6{fill:#314B23;}
	.st7{fill:#33501F;}
	.st8{fill:#577D1F;}
	.st9{fill:#684718;}
	.st10{clip-path:url(#SVGID_4_);fill:#479728;}
</style>
<rect x="1065.5" y="555.7" class="st0" width="18.3" height="40.4"/>
<path class="st1" d="M1123.1,502.2c0,34.1-25.1,61.8-48.7,61.8s-48.1-27.7-48.1-61.8c0-34.1,22.5-91.4,48.4-93.3
	C1098.2,407.2,1123.1,468.1,1123.1,502.2z"/>
<g>
	<rect x="180.3" y="563.4" class="st0" width="69.9" height="154.4"/>
	<path class="st1" d="M400.3,358.9c0,130.5-96.1,236.3-186.2,236.3S30.2,489.4,30.2,358.9S116.4,9.4,215.3,2.1
		C305-4.5,400.3,228.4,400.3,358.9z"/>
</g>
<rect x="1174.5" y="549.2" class="st0" width="18.3" height="40.4"/>
<path class="st1" d="M1232.1,495.8c0,34.1-25.1,61.8-48.7,61.8s-48.1-27.7-48.1-61.8c0-34.1,22.5-91.4,48.4-93.3
	C1207.2,400.8,1232.1,461.7,1232.1,495.8z"/>
<rect x="1283.5" y="533.2" class="st0" width="18.3" height="40.4"/>
<path class="st1" d="M1341.1,479.8c0,34.1-25.1,61.8-48.7,61.8s-48.1-27.7-48.1-61.8c0-34.1,22.5-91.4,48.4-93.3
	C1316.2,384.7,1341.1,445.6,1341.1,479.8z"/>
<g>
	<g>
		<g>
			<rect x="1379" y="543.8" class="st0" width="9.4" height="20.7"/>
		</g>
		<g>
			<path class="st1" d="M1408.5,516.4c0,17.5-12.9,31.7-25,31.7c-12.1,0-24.7-14.2-24.7-31.7c0-17.5,11.6-46.9,24.8-47.9
				C1395.7,467.6,1408.5,498.9,1408.5,516.4z"/>
		</g>
	</g>
</g>
<g>
	<defs>
		<rect id="SVGID_1_" y="512.5" width="2500.6" height="722.8"/>
	</defs>
	<clipPath id="SVGID_2_">
		<use xlink:href="#SVGID_1_"  style="overflow:visible;"/>
	</clipPath>
	<g class="st2">
		<path class="st3" d="M2594.1,1252.2c-30.3,37.3-73.3,61.8-116.8,82.2c-195.6,91.9-415.4,116.9-631.1,130.7
			c-283.5,18.2-567.9,19.1-852,20.1c-272.7,0.9-545.6,1.9-818-11.5c-98-4.8-201.7-13.5-281.3-70.8c-105.2-75.7-141-221.3-118.8-349
			c18-103.9,67.9-198.8,123.6-287.1c26.5-42,37.7-63.6,86.2-75.8c52.9-13.3,106.6-23.2,160.7-30.2c173.5-22.2,349.1-13.2,521.9,12.6
			c46.1,6.9,92,15,137.6,24c122.4,24.2,243.4,55.2,363.5,89c398.5,112.1,798.8,251.2,1212.7,243.1c45.5-0.9,91.8-3.5,136,7.5
			c21.3,5.3,42.4,14.5,60.3,27.3c19.2,13.7,34.8,31.6,43.4,53.4C2639.6,1162.3,2624.4,1214.9,2594.1,1252.2z"/>
		<path class="st4" d="M70.4,814.6c28.1,6.8,50.9,31.7,55.3,60.3c3.2,21-2.7,43.2,3.7,63.5c8,25.4,33.7,41.6,59.7,47.5
			c47.5,10.8,96.3-5.7,144.4-13.5c48.1-7.8,105.2-3.1,133.7,36.5c19.7,27.3,20,63.5,27.3,96.3c7.3,32.9,29.3,68.7,63,69
			c26.8,0.3,47.7-22,66.1-41.5c18.4-19.5,43-39.6,69.1-33.3c29.1,7,40.6,41.4,60.3,63.9c22,25.2,58.6,36.6,91,28.2
			c21.4-5.5,40.4-18.7,62-23.4s49.4,4.1,53.7,25.8c2.9,14.7-6.6,29.6-19.2,37.6c-12.6,8.1-27.8,10.7-42.6,13.3
			c-203.9,34.8-409,69.6-615.9,70.5c-84.2,0.4-170.8-5.5-246.9-41.4s-140.2-107.6-145.6-191.5c-4.2-65.3,26.7-125.7,64.3-176.9
			C-17.1,865.7,9.8,799.8,70.4,814.6z"/>
		<path class="st4" d="M2537.5,1056.4c-75.8,19.1-152.4,19.2-282.7,21.3c-46.1,0.8-98.9,1.8-160.7,4
			c-275.5,9.8-750.2-109.4-851.8-158.2c-75.8-36.5-429.4-182-607.6-255c46.1,6.9,84.7,12,130.3,21c91.2,18.1,181.6,39.9,271.5,63.8
			c30.7,8.2,61.4,16.6,92,25.2c398.5,112.1,798.8,251.2,1212.7,243.1c45.5-0.9,91.8-3.5,136,7.5
			C2498.5,1034.4,2519.5,1043.6,2537.5,1056.4z"/>
		<path class="st5" d="M2739.8,1173.2l-168-56.7c130.3-2.1-107.2-39.5-31.4-58.5c-17.9-12.8-39-22-60.3-27.3
			c-44.2-11-90.5-8.4-136-7.5c-413.9,8.1-814.2-131-1212.7-243.1c-30.6-8.6-61.3-17-92-25.2c45.7-8.2,157.1-27.1,303.9-45.6
			c245.3-31,589.4-60.9,889.9-37.4c142.8,11.1,275.8,34.4,383.5,75.4C3130.5,942.7,2739.8,1173.2,2739.8,1173.2z"/>
		<path class="st6" d="M1689.2,673.2c0,0-43.8,66.8-70.7,20.6c-16.6-28.6-59.7-74.6-93.8-102.9c-0.2-0.1,2.8,0.8,2.7,0.7
			c0.9,0.3,1.7,0.6,2.6,0.9c0,0,0,0,0.1,0c53.3,17.4,105.1,42.4,153.8,76.7c0.1,0.1,0.2,0.2,0.3,0.3
			C1687.1,671.6,1689.2,673.2,1689.2,673.2z"/>
		<path class="st7" d="M1227.3,802.3l-458.3-112c0,0,390.6-202.6,736.5-105.3c7.3,2,14.5,4.2,21.8,6.5h0l0,0
			c0.2,0.1,0.3,0.2,0.4,0.4c34.1,28.3,81.9,70.8,98.5,99.3c26.8,46.3,62.4-18.2,62.4-18.2s-1.6-1.3-4.5-3.6c2.3,1.6,4.7,3.3,7,5
			C2060.7,945,1227.3,802.3,1227.3,802.3z"/>
		<path class="st8" d="M2320.9,682.3c0,0-591.3,28.7-752.8,82.1c-161.5,53.4-317.8-35.2-317.8-35.2l93-19.9
			c245.3-31,589.4-60.9,889.9-37.4L2320.9,682.3z"/>
	</g>
</g>
<g>
	<path class="st9" d="M2475.7,1138.6H13.6c-7.2,0-13-5.8-13-13c0-3.6,1.5-6.8,3.8-9.2c2.4-2.4,5.6-3.8,9.2-3.8
		c1443.5,0,1687-0.2,1727.8,0.2c0.5,0,734.1,0,734.5,0"/>
	<g>
		<path class="st9" d="M2485.6,1138.6l1.4,0c7.2,0,13-5.8,13-13c0-3.6-1.5-6.8-3.8-9.2c-2.4-2.4-6.8-3.6-10.4-3.6"/>
	</g>
</g>
<g>
	<defs>
		<rect id="SVGID_3_" x="0.7" y="997.9" width="2499.9" height="237.4"/>
	</defs>
	<clipPath id="SVGID_4_">
		<use xlink:href="#SVGID_3_"  style="overflow:visible;"/>
	</clipPath>
	<path class="st10" d="M0.7,1167.8l21.6,48c0,0,4.8-48-21.6-72c0,0,50.6-9,67.6,51c0,0,18-94,11-115c0,0,35,39,34,126
		c0,0,22-53,37-58c0,0-7,52,0,68c0,0,23-44,51-47c0,0-35,33-24,67l35-26c0,0,7-120,33-130c0,0,4,104,9,117c0,0,17-59,65-55
		c0,0-25,41-19,76l36-76v74l21-97l17,98l23-59l17,60l24-138l8,128l16-76l21,68v-129l21,134l25-105c0,0,3,64,27,93c0,0,16-140,43-154
		s-5,0-5,0l15.8,140l17.2-34c0,0-3,53,22,67c0,0,7-54-14-71c0,0,34-8,58,55l11-111c0,0,34,28,34,116c0,0,26-50,38-53v78.5
		c0,0,29.5-59.5,57.5-58.5c0,0-29,31-29,68l29-25c0,0,0.5-94.5,33.5-116l8,104c0,0,30-64.5,68.5-57.5c0,0-24.5,19-18.5,75.5
		l35.5-82.6v81.6l22.5-94.5l18.5,95.5l22-64l15.5,66l24.5-147.5l8,139.5l15-81.5l19.5,56.5l7.5-122l16,143l26.5-98
		c0,0,5.5,62,24.5,84c0,0,6.5-128.5,44.5-153l10.5,141.5l14.8-31c0,0,2.7,45.5,23.7,64c0,0,0.3-45.9-21.5-71.5c0,0,43-12,68.5,59
		l7.5-123.5c0,0,37,32.5,35.5,125.5c0,0,24.5-51.5,36.5-55.5l2.5,75.5c0,0,32.5-54.5,53-57.5l-25,67l29-20c0,0-1-102.5,33.5-134
		l10,115.5c0,0,17-50.5,64.5-53.5c0,0-23,50-17,74.5l35.5-79v77l23-92.5l17.5,98.5l22.5-68l16,66.5l24.5-146l8.5,138.5l15-83.5
		l16,57l11-119l17,152.5c0,0,11-100,21.5-113c0,0,9.5,74,25,87.5c0,0,15-144.5,44.5-152l10.5,140c0,0,8.5-19.3,12.9-26
		c0.6-0.9,1.1-1.6,1.6-2c3.5-3,0,35,25,61.5c0,0-3-54.5-21-73.5c0,0,54,4.5,65,57c0,0,20.5-100,11.5-118c0,0,36,53,35.5,126.5
		c0,0,16-52,36.5-57.5v78c0,0,35.5-60,56-57l-30,62.5l33.5-22.5c0,0-4-88.5,31.5-123.5l11,115c0,0,10-53,61.5-61.5
		c0,0-21,58-15.5,74c0,0,34.5-56,35.5-73.5l2.5,78l22-97.5l19.5,96.5l18-60.5l16.5,58.5l25.5-134l12.5,130.5l10.5-89.5l20,72l6-127
		l19.5,143.5c0,0,15.5-98,21.5-103.5c0,0,2.5,43,30,85.5c0,0-6-112,41.5-155l8.5,141l16.8-26.5v84.3H0.7V1167.8z"/>
</g>
</svg>
