<?xml version="1.0" encoding="utf-8"?>
<!-- Generator: Adobe Illustrator 23.0.1, SVG Export Plug-In . SVG Version: 6.00 Build 0)  -->
<svg version="1.1" id="Layer_1" xmlns="http://www.w3.org/2000/svg" xmlns:xlink="http://www.w3.org/1999/xlink" x="0px" y="0px"
	 viewBox="0 0 2476.1 1306.3" style="enable-background:new 0 0 2476.1 1306.3;" xml:space="preserve">
<style type="text/css">
	.st0{display:none;fill:#D82EFF;}
	.st1{fill:#44302C;}
	.st2{fill:#245C40;}
	.st3{fill:#4A612B;}
	.st4{fill:#6C8C24;}
	.st5{fill:#3D5727;}
	.st6{fill:#314B23;}
	.st7{fill:#33501F;}
	.st8{fill:#577D1F;}
	.st9{fill:#684718;}
	.st10{fill:#479728;}
</style>
<rect class="st0" width="2525.3" height="1306.3"/>
<g>
	<rect x="1065" y="561.7" class="st1" width="18.3" height="40.4"/>
	<path class="st2" d="M1122.5,508.2c0,34.1-25.1,61.8-48.7,61.8s-48.1-27.7-48.1-61.8s22.5-91.4,48.4-93.3
		C1097.6,413.2,1122.5,474.1,1122.5,508.2z"/>
</g>
<g>
	<rect x="179.8" y="569.4" class="st1" width="69.9" height="154.4"/>
	<path class="st2" d="M399.8,364.9c0,130.5-96.1,236.3-186.2,236.3s-184-105.8-184-236.3S115.8,15.4,214.7,8.1
		C304.5,1.5,399.8,234.4,399.8,364.9z"/>
</g>
<g>
	<rect x="1174" y="555.2" class="st1" width="18.3" height="40.4"/>
	<path class="st2" d="M1231.5,501.8c0,34.1-25.1,61.8-48.7,61.8s-48.1-27.7-48.1-61.8s22.5-91.4,48.4-93.3
		C1206.6,406.8,1231.5,467.7,1231.5,501.8z"/>
</g>
<g>
	<rect x="1283" y="539.2" class="st1" width="18.3" height="40.4"/>
	<path class="st2" d="M1340.5,485.8c0,34.1-25.1,61.8-48.7,61.8s-48.1-27.7-48.1-61.8s22.5-91.4,48.4-93.3
		C1315.6,390.7,1340.5,451.6,1340.5,485.8z"/>
</g>
<g>
	<rect x="1378.4" y="549.8" class="st1" width="9.4" height="20.7"/>
	<path class="st2" d="M1407.9,522.4c0,17.5-12.9,31.7-25,31.7s-24.7-14.2-24.7-31.7s11.6-46.9,24.8-47.9
		C1395.1,473.6,1407.9,504.9,1407.9,522.4z"/>
</g>
<g>
	<g>
		<path class="st3" d="M2593.5,1258.2c-30.3,37.3-73.3,61.8-116.8,82.2c-195.6,91.9-415.4,116.9-631.1,130.7
			c-283.5,18.2-567.9,19.1-852,20.1c-272.7,0.9-545.6,1.9-818-11.5c-98-4.8-201.7-13.5-281.3-70.8c-105.2-75.7-141-221.3-118.8-349
			c18-103.9,67.9-198.8,123.6-287.1c26.5-42,37.7-63.6,86.2-75.8c52.9-13.3,106.6-23.2,160.7-30.2c173.5-22.2,349.1-13.2,521.9,12.6
			c46.1,6.9,92,15,137.6,24c122.4,24.2,243.4,55.2,363.5,89c398.5,112.1,798.8,251.2,1212.7,243.1c45.5-0.9,91.8-3.5,136,7.5
			c21.3,5.3,42.4,14.5,60.3,27.3c19.2,13.7,34.8,31.6,43.4,53.4C2639,1168.3,2623.8,1220.9,2593.5,1258.2z"/>
		<path class="st4" d="M69.9,820.6c28.1,6.8,50.9,31.7,55.3,60.3c3.2,21-2.7,43.2,3.7,63.5c8,25.4,33.7,41.6,59.7,47.5
			c47.5,10.8,96.3-5.7,144.4-13.5s105.2-3.1,133.7,36.5c19.7,27.3,20,63.5,27.3,96.3c7.3,32.9,29.3,68.7,63,69
			c26.8,0.3,47.7-22,66.1-41.5c18.4-19.5,43-39.6,69.1-33.3c29.1,7,40.6,41.4,60.3,63.9c22,25.2,58.6,36.6,91,28.2
			c21.4-5.5,40.4-18.7,62-23.4s49.4,4.1,53.7,25.8c2.9,14.7-6.6,29.6-19.2,37.6c-12.6,8.1-27.8,10.7-42.6,13.3
			c-203.9,34.8-409,69.6-615.9,70.5c-84.2,0.4-170.8-5.5-246.9-41.4s-140.4-107.5-145.8-191.4c-4.2-65.3,26.7-125.7,64.3-176.9
			C-17.7,871.7,9.2,805.8,69.9,820.6z"/>
		<path class="st4" d="M2536.9,1062.4c-75.8,19.1-152.4,19.2-282.7,21.3c-46.1,0.8-98.9,1.8-160.7,4
			c-275.5,9.8-750.2-109.4-851.8-158.2c-75.8-36.5-436.7-185-614.9-258c46.1,6.9,92,15,137.6,24c91.2,18.1,181.6,39.9,271.5,63.8
			c30.7,8.2,61.4,16.6,92,25.2c398.5,112.1,798.8,251.2,1212.7,243.1c45.5-0.9,91.8-3.5,136,7.5
			C2497.9,1040.4,2518.9,1049.6,2536.9,1062.4z"/>
		<path class="st5" d="M2739.2,1179.2l-168-56.7c130.3-2.1-107.2-39.5-31.4-58.5c-17.9-12.8-39-22-60.3-27.3
			c-44.2-11-90.5-8.4-136-7.5c-413.9,8.1-814.2-131-1212.7-243.1c-30.6-8.6-61.3-17-92-25.2c45.7-8.2,157.1-27.1,303.9-45.6
			c245.3-31,589.4-60.9,889.9-37.4c142.8,11.1,275.8,34.4,383.5,75.4C3129.9,948.7,2739.2,1179.2,2739.2,1179.2z"/>
		<path class="st6" d="M1688.1,679c0,0-35.6,64.5-62.4,18.2c-16.6-28.6-64.4-71-98.5-99.3c-0.2-0.1-0.3-0.2-0.4-0.4
			c0.9,0.3,1.7,0.6,2.6,0.9c0,0,0,0,0.1,0c53.3,17.4,105.1,42.4,153.8,76.7c0.1,0.1,0.2,0.2,0.3,0.3
			C1686.5,677.6,1688.1,679,1688.1,679z"/>
		<path class="st7" d="M1226.7,808.3L763,698.3c0,0,396-204.6,741.9-107.3c7.3,2,14.5,4.2,21.8,6.5l0,0l0,0c0.2,0.1,0.3,0.2,0.4,0.4
			c34.4,26.2,83.1,70.2,98.5,99.3c26.8,46.3,62.4-18.2,62.4-18.2s-1.6-1.3-4.5-3.6c2.3,1.6,4.7,3.3,7,5
			C2060.1,951,1226.7,808.3,1226.7,808.3z"/>
		<path class="st8" d="M2320.3,688.3c0,0-591.3,28.7-752.8,82.1c-161.5,53.4-317.8-35.2-317.8-35.2l93-19.9
			c245.3-31,589.4-60.9,889.9-37.4L2320.3,688.3z"/>
	</g>
</g>
<g>
	<path class="st9" d="M2545.2,1144.6H-228.1c-8.1,0-14.6-5.8-14.6-13c0-3.6,1.7-6.8,4.3-9.2c2.7-2.4,6.3-3.8,10.3-3.8
		c1619.3,0,1892.5-0.2,1938.2,0.2c0.6,0,834.7,0,835.2,0"/>
	<g>
		<path class="st9" d="M2545.1,1144.6h1.4c7.2,0,13-5.8,13-13c0-3.6-1.5-6.8-3.8-9.2c-2.3-2.4-6.8-3.6-10.4-3.6"/>
	</g>
</g>
<g>
	<path class="st10" d="M-242.7,1173.8l24.4,48c0,0,5.4-48-24.4-72c0,0,57.1-9,76.3,51c0,0,20.3-94,12.4-115c0,0,39.5,39,38.4,126
		c0,0,24.8-53,41.8-58c0,0-7.9,52,0,68c0,0,26-44,57.6-47c0,0-39.5,33-27.1,67l39.5-26c0,0,7.9-120,37.2-130c0,0,4.5,104,10.2,117
		c0,0,19.2-59,73.4-55c0,0-28.2,41-21.4,76l40.6-76v74l23.7-97l19.2,98l26-59l19.2,60l27.1-138l9,128l18.1-76l23.7,68v-129l23.7,134
		l28.2-105c0,0,3.4,64,30.5,93c0,0,18.1-140,48.5-154s-5.6,0-5.6,0l17.8,140l19.4-34c0,0-3.4,53,24.8,67c0,0,7.9-54-15.8-71
		c0,0,38.4-8,65.5,55l12.4-111c0,0,38.4,28,38.4,116c0,0,29.3-50,42.9-53v78.5c0,0,33.3-59.5,64.9-58.5c0,0-32.7,31-32.7,68l32.7-25
		c0,0,0.6-94.5,37.8-116l9,104c0,0,33.9-64.5,77.3-57.5c0,0-27.7,19-20.9,75.5l40.1-82.6v81.6l25.4-94.5l20.9,95.5l24.8-64l17.5,66
		l27.7-147.5l9,139.5l16.9-81.5l22,56.5l8.5-122l18.1,143l29.9-98c0,0,6.2,62,27.7,84c0,0,7.3-128.5,50.2-153l11.9,141.5l16.7-31
		c0,0,3,45.5,26.8,64c0,0,0.3-45.9-24.3-71.5c0,0,48.5-12,77.3,59l8.5-123.5c0,0,41.8,32.5,40.1,125.5c0,0,27.7-51.5,41.2-55.5
		l2.8,75.5c0,0,36.7-54.5,59.8-57.5l-28.2,67l32.7-20c0,0-1.1-102.5,37.8-134l11.3,115.5c0,0,19.2-50.5,72.8-53.5
		c0,0-26,50-19.2,74.5l40.1-79v77l26-92.5l19.8,98.5l25.4-68l18.1,66.5l27.7-146l9.6,138.5l16.9-83.5l18.1,57l12.4-119l19.2,152.5
		c0,0,12.4-100,24.3-113c0,0,10.7,74,28.2,87.5c0,0,16.9-144.5,50.2-152l11.9,140c0,0,9.6-19.3,14.6-26c0.7-0.9,1.2-1.6,1.8-2
		c4-3,0,35,28.2,61.5c0,0-3.4-54.5-23.7-73.5c0,0,61,4.5,73.4,57c0,0,23.1-100,13-118c0,0,40.6,53,40.1,126.5c0,0,18.1-52,41.2-57.5
		v78c0,0,40.1-60,63.2-57l-33.9,62.5l37.8-22.5c0,0-4.5-88.5,35.6-123.5l12.4,115c0,0,11.3-53,69.4-61.5c0,0-23.7,58-17.5,74
		c0,0,38.9-56,40.1-73.5l2.8,78l24.8-97.5l22,96.5l20.3-60.5l18.6,58.5l28.8-134l14.1,130.5l11.9-89.5l22.6,72l6.8-127l22,143.5
		c0,0,17.5-98,24.3-103.5c0,0,2.8,43,33.9,85.5c0,0-6.8-112,46.8-155l9.6,141l19-26.5v150H-242.7V1173.8z"/>
</g>
</svg>
