<?xml version="1.0" encoding="utf-8"?>
<!-- Generator: Adobe Illustrator 23.0.1, SVG Export Plug-In . SVG Version: 6.00 Build 0)  -->
<svg version="1.1" id="Layer_1" xmlns="http://www.w3.org/2000/svg" xmlns:xlink="http://www.w3.org/1999/xlink" x="0px" y="0px"
	 viewBox="0 0 80 80" style="enable-background:new 0 0 80 80;" xml:space="preserve">
<style type="text/css">
	.st0{fill:url(#SVGID_1_);}
	.st1{fill:url(#SVGID_2_);}
	.st2{display:none;}
	.st3{display:inline;}
	.st4{fill:url(#SVGID_3_);}
	.st5{fill:url(#SVGID_4_);}
	.st6{fill:url(#SVGID_5_);}
	.st7{fill:url(#SVGID_6_);}
</style>
<g>
	<g>
		
			<linearGradient id="SVGID_1_" gradientUnits="userSpaceOnUse" x1="11.7538" y1="469.4105" x2="68.3421" y2="522.6797" gradientTransform="matrix(1 0 0 1 0 -456)">
			<stop  offset="0.1885" style="stop-color:#DDDEE0"/>
			<stop  offset="1" style="stop-color:#DDDEE0"/>
		</linearGradient>
		<circle class="st0" cx="40" cy="40" r="40"/>
	</g>
	
		<linearGradient id="SVGID_2_" gradientUnits="userSpaceOnUse" x1="12.2288" y1="469.8577" x2="67.8654" y2="522.231" gradientTransform="matrix(1 0 0 1 0 -456)">
		<stop  offset="0" style="stop-color:#DDDEE0"/>
		<stop  offset="0.8115" style="stop-color:#FFFFFF"/>
	</linearGradient>
	<circle class="st1" cx="40" cy="40" r="38.3"/>
</g>
<g>
	<g class="st2">
		<g class="st3">
			
				<linearGradient id="SVGID_3_" gradientUnits="userSpaceOnUse" x1="12.9597" y1="-26.3125" x2="39.9597" y2="-26.3125" gradientTransform="matrix(1 0 0 -1 0 14)">
				<stop  offset="0" style="stop-color:#E9423A"/>
				<stop  offset="0.9868" style="stop-color:#F9AF23"/>
			</linearGradient>
			<path class="st4" d="M38.6,20c-0.9-0.5-1.9-0.5-2.8,0l-0.1,0.1L23.5,30.4h-9.6c-0.5,0-0.9,0.4-0.9,0.9v17.1
				c0,0.2,0.1,0.5,0.3,0.6c0.2,0.2,0.4,0.3,0.6,0.3h9.5l12.2,11.2l0.1,0.1c0.4,0.3,0.9,0.4,1.4,0.4s0.9-0.1,1.4-0.4
				c0.9-0.5,1.4-1.4,1.4-2.5V22.5C40,21.4,39.5,20.5,38.6,20z"/>
			<g>
				
					<linearGradient id="SVGID_4_" gradientUnits="userSpaceOnUse" x1="43.3591" y1="-26.0125" x2="65.3598" y2="-26.0125" gradientTransform="matrix(1 0 0 -1 0 14)">
					<stop  offset="0" style="stop-color:#E9423A"/>
					<stop  offset="0.9868" style="stop-color:#F9AF23"/>
				</linearGradient>
				<path class="st5" d="M56.1,40l8.9-8.9c0.5-0.5,0.5-1.3,0-1.7c-0.5-0.5-1.3-0.5-1.7,0l-8.9,8.9l-8.9-8.9c-0.5-0.5-1.3-0.5-1.7,0
					s-0.5,1.3,0,1.7l8.9,8.9l-8.9,8.9c-0.5,0.5-0.5,1.3,0,1.7c0.2,0.2,0.6,0.4,0.9,0.4c0.3,0,0.6-0.1,0.9-0.4l8.9-8.9l8.9,8.9
					c0.2,0.2,0.6,0.4,0.9,0.4s0.6-0.1,0.9-0.4c0.5-0.5,0.5-1.3,0-1.7L56.1,40z"/>
			</g>
		</g>
	</g>
</g>
<g>
	<g id="info">
		<g>
			<linearGradient id="SVGID_5_" gradientUnits="userSpaceOnUse" x1="24.5" y1="51.625" x2="55.5" y2="51.625">
				<stop  offset="0" style="stop-color:#E9423A"/>
				<stop  offset="0.9868" style="stop-color:#F9AF23"/>
			</linearGradient>
			<path class="st6" d="M28.4,40c2.1,0,3.9,1.7,3.9,3.9v15.5c0,2.1-1.7,3.9-3.9,3.9h-3.9V71h31v-7.8h-3.9c-2.1,0-3.9-1.7-3.9-3.9
				l0-27.1H24.5V40H28.4z"/>
			<linearGradient id="SVGID_6_" gradientUnits="userSpaceOnUse" x1="32.25" y1="16.75" x2="47.75" y2="16.75">
				<stop  offset="0" style="stop-color:#E9423A"/>
				<stop  offset="0.9868" style="stop-color:#F9AF23"/>
			</linearGradient>
			<circle class="st7" cx="40" cy="16.8" r="7.8"/>
		</g>
	</g>
</g>
</svg>
