<?xml version="1.0" encoding="utf-8"?>
<!-- Generator: Adobe Illustrator 23.0.1, SVG Export Plug-In . SVG Version: 6.00 Build 0)  -->
<svg version="1.1" id="Layer_1" xmlns="http://www.w3.org/2000/svg" xmlns:xlink="http://www.w3.org/1999/xlink" x="0px" y="0px"
	 viewBox="0 0 216.8 216.8" style="enable-background:new 0 0 216.8 216.8;" xml:space="preserve">
<style type="text/css">
	.st0{fill:#FAFAFA;}
	.st1{fill:#E0E0E0;}
	.st2{fill:#EEEEEE;}
	.st3{opacity:0.46;fill:#E0E0E0;enable-background:new    ;}
</style>
<g>
	<circle class="st0" cx="108.4" cy="108.4" r="108.4"/>
	<g>
		<g>
			
				<ellipse transform="matrix(0.7861 -0.6181 0.6181 0.7861 -30.2904 41.8511)" class="st1" cx="45.3" cy="64.7" rx="18.7" ry="18.7"/>
			<ellipse class="st2" cx="46.5" cy="64.7" rx="17.5" ry="18.6"/>
		</g>
		<g>
			<path class="st1" d="M143.9,159.3c3.5,9.7-1.6,20.4-11.3,23.9c-9.7,3.5-20.4-1.6-23.9-11.3c-3.5-9.7,1.6-20.4,11.3-23.9
				S140.4,149.6,143.9,159.3z"/>
			
				<ellipse transform="matrix(0.9412 -0.3379 0.3379 0.9412 -48.3316 52.7643)" class="st2" cx="127.4" cy="165.2" rx="17.5" ry="18.6"/>
		</g>
		<g>
			<circle class="st1" cx="181.1" cy="125.7" r="18.7"/>
			<ellipse class="st2" cx="182.3" cy="125.7" rx="17.5" ry="18.6"/>
		</g>
		<g>
			<path class="st1" d="M61.6,107.8c-3.2,3.6-8.6,3.9-12.2,0.7s-3.9-8.6-0.7-12.2c3.2-3.6,8.6-3.9,12.2-0.7
				C64.4,98.7,64.7,104.2,61.6,107.8z"/>
			<path class="st2" d="M61.3,95.9c-3.6-2.8-8.7-2.4-11.8,1c-3.1,3.4-2.9,8.6,0.3,11.8c3.6,2.8,8.7,2.4,11.8-1
				C64.6,104.3,64.4,99.2,61.3,95.9z"/>
		</g>
		<g>
			<path class="st1" d="M105.5,148.8c-3.2,3.6-8.6,3.9-12.2,0.7c-3.6-3.2-3.9-8.6-0.7-12.2c3.2-3.6,8.6-3.9,12.2-0.7
				C108.3,139.8,108.6,145.2,105.5,148.8z"/>
			<path class="st2" d="M105.2,137c-3.6-2.8-8.7-2.4-11.8,1s-2.9,8.6,0.3,11.8c3.6,2.8,8.7,2.4,11.8-1
				C108.5,145.4,108.3,140.2,105.2,137z"/>
		</g>
		<g>
			<path class="st1" d="M138.8,128.5c-1.6,1.8-4.3,1.9-6.1,0.3c-1.8-1.6-1.9-4.3-0.3-6.1c1.6-1.8,4.3-1.9,6.1-0.3
				C140.2,124,140.4,126.8,138.8,128.5z"/>
			<path class="st2" d="M138.6,122.6c-1.8-1.4-4.4-1.2-5.9,0.5s-1.4,4.3,0.1,5.9c1.8,1.4,4.4,1.2,5.9-0.5
				C140.3,126.8,140.2,124.2,138.6,122.6z"/>
		</g>
		<g>
			<ellipse class="st1" cx="161.3" cy="37.4" rx="8.6" ry="8.6"/>
			<path class="st2" d="M167.4,31.4c-3.6-2.8-8.7-2.4-11.8,1s-2.9,8.6,0.3,11.8c3.6,2.8,8.7,2.4,11.8-1S170.6,34.6,167.4,31.4z"/>
		</g>
		<g>
			<path class="st1" d="M205,89.1c-3.2,3.6-8.6,3.9-12.2,0.7c-3.6-3.2-3.9-8.6-0.7-12.2c3.2-3.6,8.6-3.9,12.2-0.7
				C207.9,80.1,208.2,85.5,205,89.1z"/>
			<path class="st2" d="M204.8,77.3c-3.6-2.8-8.7-2.4-11.8,1c-3.1,3.4-2.9,8.6,0.3,11.8c3.6,2.8,8.7,2.4,11.8-1
				C208.1,85.7,207.9,80.5,204.8,77.3z"/>
		</g>
		<g>
			<path class="st1" d="M76.9,173.6c-4.4,4.9-12,5.4-16.9,0.9c-4.9-4.4-5.4-12-0.9-16.9c4.4-4.9,12-5.4,16.9-0.9
				C80.9,161.1,81.4,168.7,76.9,173.6z"/>
			<path class="st2" d="M76.5,157.2c-4.9-3.9-12.1-3.3-16.4,1.4c-4.2,4.7-4,11.9,0.4,16.4c4.9,3.9,12.1,3.3,16.4-1.4
				C81.2,168.9,80.9,161.7,76.5,157.2z"/>
		</g>
		<g>
			<path class="st1" d="M46.2,172.1c-2.7,3-7.2,3.2-10.2,0.6c-3-2.7-3.2-7.2-0.6-10.2c2.7-3,7.2-3.2,10.2-0.6
				C48.6,164.5,48.8,169.1,46.2,172.1z"/>
			<path class="st2" d="M45.9,162.2c-3-2.3-7.3-2-9.8,0.8c-2.6,2.8-2.4,7.2,0.2,9.9c3,2.3,7.3,2,9.8-0.8
				C48.7,169.2,48.6,164.9,45.9,162.2z"/>
		</g>
		<g>
			<path class="st1" d="M89.1,63.4c-0.8,4.7-5.3,7.8-10,7s-7.8-5.3-7-10s5.3-7.8,10-7C86.9,54.2,90,58.7,89.1,63.4z"/>
			<path class="st2" d="M82.7,53.5c-4.5-0.5-8.7,2.5-9.5,7s2,8.8,6.4,9.9c4.5,0.5,8.7-2.5,9.5-7C90,58.9,87.1,54.6,82.7,53.5z"/>
		</g>
	</g>
	<path class="st3" d="M108.4,191.7C52.8,191.7,7,149.8,0.7,95.8C0.2,99.9,0,104.1,0,108.4c0,59.9,48.5,108.4,108.4,108.4
		s108.4-48.5,108.4-108.4c0-4.2-0.3-8.4-0.7-12.6C209.8,149.8,164,191.7,108.4,191.7z"/>
</g>
</svg>
