<?xml version="1.0" encoding="utf-8"?>
<!-- Generator: Adobe Illustrator 23.0.1, SVG Export Plug-In . SVG Version: 6.00 Build 0)  -->
<svg version="1.1" id="Layer_1" xmlns="http://www.w3.org/2000/svg" xmlns:xlink="http://www.w3.org/1999/xlink" x="0px" y="0px"
	 viewBox="0 0 132.8 132.8" style="enable-background:new 0 0 132.8 132.8;" xml:space="preserve">
<style type="text/css">
	.st0{fill:#094867;stroke:#FFFFFF;stroke-width:3;stroke-miterlimit:10;}
	.st1{fill:#073644;}
	.st2{fill:#FDE085;}
	.st3{fill:#FFC91B;}
</style>
<g>
	<circle class="st0" cx="66.4" cy="66.4" r="64.9"/>
	<path class="st1" d="M43.6,96.6L76,129c22.6-3.4,41.2-18.6,48.8-38.2L97.5,63.4L43.6,96.6z"/>
	<path class="st2" d="M49.6,35.3L96,62.1c3.3,1.9,3.3,6.7,0,8.6L49.6,97.4c-3.3,1.9-7.4-0.5-7.4-4.3V39.6
		C42.2,35.8,46.3,33.4,49.6,35.3z"/>
	<path class="st3" d="M42.2,66.6v26.6c0,3.8,4.1,6.2,7.4,4.3L96,70.7c1.6-0.9,2.4-2.5,2.5-4.1H42.2z"/>
</g>
</svg>
