<?xml version="1.0" encoding="utf-8"?>
<!-- Generator: Adobe Illustrator 23.0.1, SVG Export Plug-In . SVG Version: 6.00 Build 0)  -->
<svg version="1.1" id="Isolation_Mode" xmlns="http://www.w3.org/2000/svg" xmlns:xlink="http://www.w3.org/1999/xlink" x="0px"
	 y="0px" viewBox="0 0 16.5 34.3" style="enable-background:new 0 0 16.5 34.3;" xml:space="preserve">
<style type="text/css">
	.st0{fill:#626467;}
	.st1{fill:url(#SVGID_1_);}
	.st2{fill:#3A3C3F;}
	.st3{opacity:0.9;fill:#B3B5B8;}
	.st4{fill:url(#SVGID_2_);}
	.st5{fill:#008ED0;}
	.st6{fill:#FFFFFF;}
	.st7{fill:#083879;}
	.st8{fill:#C2C4C6;}
	.st9{fill:url(#SVGID_3_);}
	.st10{fill:#FF0026;}
	.st11{fill:#ECB020;}
	.st12{opacity:0.7;fill:#C9E9EB;}
	.st13{fill:url(#SVGID_4_);}
	.st14{fill:url(#SVGID_5_);}
	.st15{fill:url(#SVGID_6_);}
	.st16{opacity:0.8;fill:#DEDFE0;}
	.st17{opacity:0.5;fill:#FFF2BB;}
</style>
<g>
	<g>
		<g>
			<path class="st0" d="M11.3,29.3H10c0,0-1.3,1.9-1.2,4.7c0,0,0.8,0.3,1.9,0.3c1.1,0,1.9-0.3,1.9-0.3
				C12.6,31.1,11.3,29.3,11.3,29.3z"/>
			<g>
				<linearGradient id="SVGID_1_" gradientUnits="userSpaceOnUse" x1="10.3313" y1="27.9004" x2="11.2905" y2="35.9018">
					<stop  offset="0.4575" style="stop-color:#E5E0DF"/>
					<stop  offset="1" style="stop-color:#8CA99C"/>
				</linearGradient>
				<path class="st1" d="M12,30.6c-0.3-0.8-0.6-1.3-0.6-1.3H10c0,0-0.3,0.5-0.6,1.3C9.9,30.7,10.8,30.8,12,30.6z"/>
				<path class="st2" d="M8.8,33.4c0,0.1,0,0.2,0,0.2c0.3,0.1,0.9,0.2,1.8,0.2c0.6,0,1.3-0.1,2-0.3c0-0.1,0-0.2,0-0.2
					C10.6,33.9,9.2,33.6,8.8,33.4z"/>
				<path class="st2" d="M8.8,32.7c0,0.1,0,0.2,0,0.2c0.3,0.1,0.9,0.2,1.7,0.2c0.6,0,1.2-0.1,2-0.2c0-0.1,0-0.2,0-0.2
					C10.6,33.1,9.3,32.9,8.8,32.7z"/>
				<path class="st2" d="M12.3,31.5c0-0.1,0-0.1-0.1-0.2c-1.4,0.3-2.5,0.2-3.1,0c0,0.1,0,0.1-0.1,0.2c0.3,0.1,0.8,0.2,1.5,0.2
					C11,31.7,11.6,31.6,12.3,31.5z"/>
				<path class="st2" d="M8.9,32c0,0.1,0,0.1,0,0.2c0.3,0.1,0.9,0.2,1.6,0.2c0.5,0,1.2-0.1,1.9-0.2c0-0.1,0-0.1,0-0.2
					C10.7,32.4,9.5,32.1,8.9,32z"/>
				<path class="st2" d="M12.1,30.8c0-0.1-0.1-0.1-0.1-0.2c-1.2,0.2-2.1,0.1-2.7,0c0,0.1-0.1,0.1-0.1,0.2c0.3,0.1,0.7,0.1,1.3,0.1
					C11,30.9,11.5,30.9,12.1,30.8z"/>
			</g>
			<path class="st3" d="M11.3,29.3H10c0,0-1.3,1.9-1.2,4.7c0,0,0.1,0,0.2,0.1c0-0.7,0.1-1.3,0.2-2c0.1-0.4,0.3-1.4,0.9-1.4
				c0.7,0,0.6,3,0.6,3.6c0,0,0,0,0,0c1.1,0,1.9-0.3,1.9-0.3C12.6,31.1,11.3,29.3,11.3,29.3z"/>
			<path class="st3" d="M11.3,29.3h-0.7c0.7,1.5,1,3.3,1.1,5c0.5-0.1,0.8-0.2,0.8-0.2C12.6,31.1,11.3,29.3,11.3,29.3z"/>
		</g>
		<g>
			<path class="st0" d="M6.6,29.3H5.2c0,0-1.3,1.9-1.2,4.7c0,0,0.8,0.3,1.9,0.3c1.1,0,1.9-0.3,1.9-0.3C7.9,31.1,6.6,29.3,6.6,29.3z"
				/>
			<g>
				<linearGradient id="SVGID_2_" gradientUnits="userSpaceOnUse" x1="5.6077" y1="27.9004" x2="6.5668" y2="35.9018">
					<stop  offset="0.4575" style="stop-color:#E5E0DF"/>
					<stop  offset="1" style="stop-color:#8CA99C"/>
				</linearGradient>
				<path class="st4" d="M7.3,30.6c-0.3-0.8-0.6-1.3-0.6-1.3H5.2c0,0-0.3,0.5-0.6,1.3C5.2,30.7,6.1,30.8,7.3,30.6z"/>
				<path class="st2" d="M4,33.4c0,0.1,0,0.2,0,0.2c0.3,0.1,0.9,0.2,1.8,0.2c0.6,0,1.3-0.1,2-0.3c0-0.1,0-0.2,0-0.2
					C5.9,33.9,4.5,33.6,4,33.4z"/>
				<path class="st2" d="M4.1,32.7c0,0.1,0,0.2,0,0.2C4.4,33,5,33.2,5.8,33.2c0.6,0,1.2-0.1,2-0.2c0-0.1,0-0.2,0-0.2
					C5.9,33.1,4.6,32.9,4.1,32.7z"/>
				<path class="st2" d="M7.5,31.5c0-0.1,0-0.1-0.1-0.2c-1.4,0.3-2.5,0.2-3.1,0c0,0.1,0,0.1-0.1,0.2c0.3,0.1,0.8,0.2,1.5,0.2
					C6.3,31.7,6.9,31.6,7.5,31.5z"/>
				<path class="st2" d="M4.2,32c0,0.1,0,0.1,0,0.2c0.3,0.1,0.9,0.2,1.6,0.2c0.5,0,1.2-0.1,1.9-0.2c0-0.1,0-0.1,0-0.2
					C6,32.4,4.8,32.1,4.2,32z"/>
				<path class="st2" d="M7.3,30.8c0-0.1-0.1-0.1-0.1-0.2c-1.2,0.2-2.1,0.1-2.7,0c0,0.1-0.1,0.1-0.1,0.2c0.3,0.1,0.7,0.1,1.3,0.1
					C6.2,30.9,6.8,30.9,7.3,30.8z"/>
			</g>
			<path class="st3" d="M6.6,29.3H5.2c0,0-1.3,1.9-1.2,4.7c0,0,0.1,0,0.2,0.1c0-0.7,0.1-1.3,0.2-2c0.1-0.4,0.3-1.4,0.9-1.4
				c0.7,0,0.6,3,0.6,3.6c0,0,0,0,0,0c1.1,0,1.9-0.3,1.9-0.3C7.9,31.1,6.6,29.3,6.6,29.3z"/>
			<path class="st3" d="M6.6,29.3H5.9c0.7,1.5,1,3.3,1.1,5C7.5,34.1,7.8,34,7.8,34C7.9,31.1,6.6,29.3,6.6,29.3z"/>
		</g>
	</g>
	<g>
		<path class="st5" d="M2.3,22.4c0,0-2.2,0.7-2.3,3c-0.2,2.3,3.2,9.3,3.4,8.4c0.3-0.9,0.5-5.9,0.5-5.9L2.3,22.4z"/>
		<path class="st5" d="M1.8,23.2c0.1,0,0.1,0,0.1,0.1c-0.6,1.9-0.3,4,0,5.9c0.3,1.6,0.8,3.2,1.5,4.6c0,0,0,0,0-0.1
			c0.3-0.9,0.5-5.9,0.5-5.9l-1.6-5.5c0,0-2.2,0.7-2.3,3c0,0.1,0,0.3,0,0.4C0.2,24.7,0.8,23.7,1.8,23.2z"/>
		<path class="st6" d="M1.7,29.9c-0.2-0.7-0.5-1.4-0.7-2.1c-0.2-0.5-0.6-1-0.8-1.6c0,0,0,0,0,0c0.4,1.9,1.6,4.7,2.4,6.3
			C2.3,31.6,2,30.7,1.7,29.9z"/>
		<path class="st7" d="M14.2,22.4c0,0,2.2,0.7,2.3,3c0.2,2.3-3.2,9.3-3.4,8.4c-0.3-0.9-0.5-5.9-0.5-5.9L14.2,22.4z"/>
		<path class="st5" d="M13.2,33.8c0-0.1,0-0.1,0-0.2c0.1-0.5,0.1-1,0.2-1.6c0.1-0.9,0.2-1.8,0.3-2.8c0.3-1.8,0.6-3.7,1.3-5.4
			c0,0,0.1-0.1,0.1,0c0.7,0.5,1.1,1.2,1.3,1.9c0-0.2,0-0.3,0-0.4c-0.2-2.3-2.3-3-2.3-3l-1.6,5.5c0,0,0.2,4.9,0.5,5.9
			C13.1,33.8,13.2,33.8,13.2,33.8z"/>
		<path class="st8" d="M14.7,14.9c-0.1-3-0.4-4.2-0.4-4.5C13.9,7.7,9.4,0.8,9,0.3C8.7,0,8.3,0,8.2,0C8.1,0,7.7,0,7.4,0.3
			C7,0.8,2.5,7.7,2.1,10.4c-0.1,0.3-0.3,1.5-0.4,4.5c-0.1,3.5,0.7,12.3,2.5,15.3c0,0,1.5,0.4,4,0.3c2.5,0.1,4-0.3,4-0.3
			C14,27.2,14.9,18.4,14.7,14.9z"/>
		<path class="st7" d="M9,22.2c-0.1-0.1-0.3-0.1-0.4-0.2H7.9c-0.1,0-0.2,0.1-0.4,0.1c-0.3,0.2-0.9,0.9-0.8,3c0.1,2.3,1.3,9,1.5,8.7
			c0.2,0.3,1.5-6.4,1.5-8.7C9.7,23.2,9.3,22.5,9,22.2z"/>
		<path class="st5" d="M8.2,22.6C8.1,22.6,8,22.5,8,22.5H7.6c-0.1,0-0.1,0-0.2,0.1c-0.2,0.2-0.4,0.6-0.4,2.1c0,1.6,0.6,6.5,0.7,6.3
			c0.1,0.2,0.7-4.6,0.7-6.3C8.5,23.4,8.3,22.8,8.2,22.6z"/>
		<path class="st6" d="M7.5,26.5c0-1.2-0.2-2.4-0.1-3.7c-0.1,0.3-0.2,0.8-0.2,1.7c0,0.8,0.2,2.3,0.3,3.7C7.5,27.7,7.5,27.1,7.5,26.5
			z"/>
		<g>
			<linearGradient id="SVGID_3_" gradientUnits="userSpaceOnUse" x1="-1.9609" y1="5.508" x2="18.287" y2="5.508">
				<stop  offset="0.4575" style="stop-color:#E5E0DF"/>
				<stop  offset="1" style="stop-color:#8CA99C"/>
			</linearGradient>
			<path class="st9" d="M8.2,0C8.1,0,7.7,0,7.4,0.3c-0.4,0.4-4.7,7-5.3,9.8C3.9,10.7,6,11,8.2,11c2.2,0,4.3-0.3,6.1-0.8
				C13.7,7.4,9.4,0.8,9,0.3C8.7,0,8.3,0,8.2,0z"/>
			<path class="st10" d="M8.2,0C8.1,0,7.7,0,7.4,0.3c-0.4,0.4-4.7,7-5.3,9.8C3.9,10.7,6,11,8.2,11c2.2,0,4.3-0.3,6.1-0.8
				C13.7,7.4,9.4,0.8,9,0.3C8.7,0,8.3,0,8.2,0z"/>
		</g>
		<g>
			<path class="st6" d="M2.9,10.8c0,0.1-0.1,0.3-0.3,0.3c-0.1,0-0.3-0.1-0.3-0.3c0-0.1,0.1-0.3,0.3-0.3C2.8,10.6,2.9,10.7,2.9,10.8z
				"/>
			<path class="st6" d="M8.5,11.6c0,0.1-0.1,0.3-0.3,0.3c-0.1,0-0.3-0.1-0.3-0.3c0-0.1,0.1-0.3,0.3-0.3C8.4,11.4,8.5,11.5,8.5,11.6z
				"/>
			<path class="st6" d="M14,10.8c0,0.1-0.1,0.3-0.3,0.3c-0.1,0-0.3-0.1-0.3-0.3c0-0.1,0.1-0.3,0.3-0.3C13.9,10.5,14,10.6,14,10.8z"
				/>
			<path class="st6" d="M11.3,11.5c0,0.1-0.1,0.3-0.3,0.3c-0.1,0-0.3-0.1-0.3-0.3c0-0.1,0.1-0.3,0.3-0.3
				C11.1,11.2,11.3,11.3,11.3,11.5z"/>
			<circle class="st6" cx="5.4" cy="11.5" r="0.3"/>
		</g>
		<path class="st11" d="M11.2,16.6c0,1.5-1.2,2.7-2.7,2.7c-1.5,0-2.7-1.2-2.7-2.7c0-1.5,1.2-2.7,2.7-2.7
			C10,13.8,11.2,15.1,11.2,16.6z"/>
		<path class="st12" d="M10.8,16.7c0,1.3-1,2.3-2.3,2.3c-1.3,0-2.3-1-2.3-2.3c0-1.3,1-2.3,2.3-2.3C9.7,14.3,10.8,15.4,10.8,16.7z"/>
		<radialGradient id="SVGID_4_" cx="7.1646" cy="15.5152" r="3.5002" gradientUnits="userSpaceOnUse">
			<stop  offset="0.1486" style="stop-color:#21687E"/>
			<stop  offset="0.491" style="stop-color:#023F5F"/>
			<stop  offset="0.9801" style="stop-color:#000000"/>
		</radialGradient>
		<path class="st13" d="M10.5,16.6c0,1.2-0.9,2.1-2.1,2.1c-1.2,0-2.1-0.9-2.1-2.1c0-1.2,0.9-2.1,2.1-2.1
			C9.6,14.5,10.5,15.4,10.5,16.6z"/>
		<g>
			<radialGradient id="SVGID_5_" cx="6.1556" cy="15.5158" r="3.3185" gradientUnits="userSpaceOnUse">
				<stop  offset="0.2851" style="stop-color:#FFFFFF"/>
				<stop  offset="0.6912" style="stop-color:#6C6C6C"/>
				<stop  offset="1" style="stop-color:#000000"/>
			</radialGradient>
			<path class="st14" d="M7,16.9c-0.1,0-0.2,0-0.3-0.1c0.1,0.5,0.4,1,0.8,1.3C7.2,17.8,7,17.4,7,16.9C7,16.9,7,16.9,7,16.9z"/>
			<radialGradient id="SVGID_6_" cx="6.1544" cy="15.5155" r="3.3192" gradientUnits="userSpaceOnUse">
				<stop  offset="0.2851" style="stop-color:#FFFFFF"/>
				<stop  offset="0.6912" style="stop-color:#6C6C6C"/>
				<stop  offset="1" style="stop-color:#000000"/>
			</radialGradient>
			<path class="st15" d="M8.5,14.7c-1,0-1.8,0.8-1.9,1.7c0.1,0,0.3,0,0.4,0.1C7.2,15.7,8,15,8.9,15c0.4,0,0.8,0.1,1.1,0.3
				C9.6,15,9.1,14.7,8.5,14.7z"/>
		</g>
		<path class="st6" d="M16.3,25.8c0,0-0.6,4.1-2.7,7.2C13.6,33,15.4,29.3,16.3,25.8z"/>
		<path class="st12" d="M5.1,11.2c-0.1,0-0.2,0-0.4,0c-0.4-0.1-0.8-0.2-1.2-0.2c-0.3,1.4-0.4,2.9-0.4,4.4c0.1,4.8,1.1,9.5,1.9,14.3
			c0.3,0,0.7,0.1,1.1,0.1c-0.4-4.4-1-8.8-1.2-13.2C4.9,14.7,4.9,12.9,5.1,11.2z"/>
		<path class="st16" d="M14.8,15c-0.1-3-0.4-4.2-0.4-4.5C14,7.8,9.4,0.9,9.1,0.4C8.7,0.1,8.4,0.1,8.3,0.1c0,0,0,0,0,0
			c0.5,1.2,0.9,2.4,1.3,3.7c2.5,8.6,2.4,17.9,1.3,26.8c0.9-0.1,1.4-0.2,1.4-0.2C14.1,27.3,14.9,18.5,14.8,15z"/>
		<path class="st17" d="M4.7,10.4c0.2,0,0.3,0,0.5,0.1c0.1-0.6,0.2-1.2,0.3-1.9c0.4-2,0.8-4.1,1.3-6.1C5.8,4.3,4.9,6.2,4.3,8.1
			c-0.2,0.7-0.4,1.4-0.6,2.1C4,10.3,4.3,10.4,4.7,10.4z"/>
	</g>
</g>
</svg>
