<?xml version="1.0" encoding="utf-8"?>
<!-- Generator: Adobe Illustrator 23.0.1, SVG Export Plug-In . SVG Version: 6.00 Build 0)  -->
<svg version="1.1" id="Isolation_Mode" xmlns="http://www.w3.org/2000/svg" xmlns:xlink="http://www.w3.org/1999/xlink" x="0px"
	 y="0px" viewBox="0 0 58.1 34.6" style="enable-background:new 0 0 58.1 34.6;" xml:space="preserve">
<style type="text/css">
	.st0{opacity:0.9;fill:url(#SVGID_1_);}
	.st1{fill:url(#SVGID_2_);}
	.st2{opacity:0.6;fill:#A898AB;}
	.st3{opacity:0.6;fill:#4A5CA9;}
	.st4{fill:url(#SVGID_3_);}
	.st5{fill:url(#SVGID_4_);}
	.st6{fill:url(#SVGID_5_);}
	.st7{fill:url(#SVGID_6_);}
	.st8{fill:url(#SVGID_7_);}
	.st9{fill:url(#SVGID_8_);}
	.st10{fill:url(#SVGID_9_);}
	.st11{fill:url(#SVGID_10_);}
	.st12{fill:url(#SVGID_11_);}
	.st13{fill:url(#SVGID_12_);}
	.st14{fill:url(#SVGID_13_);}
	.st15{fill:url(#SVGID_14_);}
	.st16{fill:url(#SVGID_15_);}
	.st17{fill:url(#SVGID_16_);}
	.st18{opacity:0.6;fill:url(#SVGID_17_);}
	.st19{opacity:0.7;fill:url(#SVGID_18_);}
	.st20{opacity:0.6;fill:#FFF8A7;}
	.st21{opacity:0.6;fill:#EF7B5A;}
</style>
<g>
	
		<linearGradient id="SVGID_1_" gradientUnits="userSpaceOnUse" x1="-168.6416" y1="265.0595" x2="-188.6335" y2="292.9328" gradientTransform="matrix(0.8863 0.4631 -0.4631 0.8863 313.8412 -147.6581)">
		<stop  offset="0.4636" style="stop-color:#F7C7B1"/>
		<stop  offset="1" style="stop-color:#F59F1D"/>
	</linearGradient>
	<path class="st0" d="M29.3,23.6c0.7-0.8,1.5-1.4,2.3-2.1c0.9-0.7,1.8-1.5,2.7-2.3c0.8-0.7,1.6-1.5,2.5-2.1c0.8-0.6,1.6-1.2,2.3-1.9
		c-2.3,1.1-8.2,4.4-8.1,4.3c0.4-0.3,0.9-0.6,1.3-0.9c1.6-1,3.1-2.1,4.6-3.1c1.9-1.4,3.8-2.8,5.7-4.2c2.8-2.1,5.7-4.1,8.5-6.3
		c-3,1.7-9.2,5-9.2,4.9c3.5-2.3,6.9-4.9,10.6-6.9c1.8-1,3.7-2,5.5-3.1c-0.4,0.1-0.8,0.3-1.2,0.4c-0.7,0.3-1.5,0.4-2.2,0.6
		c-1.2,0.4-7.4,2.5-9.2,3.2c-2.4,0.9-4.8,1.6-7.2,2.4c-1,0.3-5.8,1.8-5.8,1.7c1.4-1.2,3.3-1.6,4.9-2.5C37.2,5.9,37,6,36.7,6
		c-5,1.4-9.6,3.8-14.6,5.4c-0.1,0,2.1-1.3,3.2-1.9c-1,0.3-1.9,0.6-2.9,1c-0.9,0.4-2.8,0.9-2.8,0.9c1.7-0.7,3.4-1.5,5.1-2.3
		c-1.6,0.4-3.1,0.9-4.6,1.4c-2.9,0.9-5.8,1.6-8.7,2.5c-2.3,0.7-4.8,1.6-6.7,3.1c-2,1.5-3.1,3.7-3,6.2c0,2.3,1.2,4.4,2.6,6.1
		c1.4,1.7,3.2,3,5.2,3.9c5,2.1,8.5,1.5,12.8-1.3c1.5-1,4.9-3.9,6.3-5c0.6-0.4,1.1-0.9,1.7-1.3c1.7-1.6,3.5-3.1,5-4.9
		C33.2,20.9,29.3,23.6,29.3,23.6z"/>
	<g>
		
			<radialGradient id="SVGID_2_" cx="-194.8887" cy="278.3523" r="23.1764" gradientTransform="matrix(0.8863 0.4631 -0.4631 0.8863 313.8574 -147.6581)" gradientUnits="userSpaceOnUse">
			<stop  offset="0.4096" style="stop-color:#6487A9"/>
			<stop  offset="0.9053" style="stop-color:#A06D7E"/>
		</radialGradient>
		<path class="st1" d="M22.5,27.2c0.6-1.2,1.7-2.2,1.9-3.5c0.2-1.1-0.2-2.3-0.8-3.3c-0.7-1.1-1.9-1.6-2.7-2.7
			c-0.4-0.5-0.5-1.1-0.8-1.7c-0.3-0.5-0.6-1-1.1-1.4c-0.8-0.7-1.9-1-3-1.1c-0.6,0-1.2,0-1.8-0.1c-0.6-0.1-1.2-0.3-1.8-0.4
			c-1-0.1-2,0.1-2.9,0.5c-0.4,0.2-0.7,0.6-0.9,0.9c0,0.1-0.1,0.1-0.2,0.2c-1,0.5-2,0.8-3,1.3c-1.2,0.6-1.9,1.8-2.4,3
			c-0.5,1.2-0.2,2.6,0.1,3.9c0.2,0.7,0.3,1.3,0.5,2c0.2,0.6,0.1,1.3,0.2,1.9c0.1,1.2,1,2,2.2,2.3c0.6,0.1,1.3,0.2,1.9,0.3
			c0.8,0.1,1.5,0.6,2.1,1.1c1.1,0.9,2.3,1.6,3.7,1.9c1.1,0.3,2.4,0.5,3.6,0.4C20.3,32.5,21.3,29.3,22.5,27.2z"/>
		<path class="st2" d="M22.5,27.2c0.6-1.2,1.7-2.2,1.9-3.5c0.2-1.1-0.2-2.3-0.8-3.3c-0.7-1.1-1.9-1.6-2.7-2.7
			c-0.4-0.5-0.5-1.1-0.8-1.7c-0.3-0.5-0.6-1-1.1-1.4c-0.8-0.7-1.9-1-3-1.1c-0.6,0-1.2,0-1.8-0.1c-0.6-0.1-1.2-0.3-1.8-0.4
			c-1-0.1-2,0.1-2.9,0.5c-0.4,0.2-0.7,0.6-0.9,0.9c0,0.1-0.1,0.1-0.2,0.2c-1,0.5-2,0.8-3,1.3c-1.2,0.6-1.9,1.8-2.4,3
			c-0.5,1.2-0.2,2.6,0.1,3.9c0.2,0.7,0.3,1.3,0.5,2c0.2,0.6,0.1,1.3,0.2,1.9c0.1,1.2,1,2,2.2,2.3c0.6,0.1,1.3,0.2,1.9,0.3
			c0.8,0.1,1.5,0.6,2.1,1.1c1.1,0.9,2.3,1.6,3.7,1.9c1.1,0.3,2.4,0.5,3.6,0.4C20.3,32.5,21.3,29.3,22.5,27.2z M20.3,21.2
			c-0.3,0.2-0.7,0.1-1,0.1c-0.5,0-0.9,0-1.3,0.3c-0.4,0.2-0.8,0.6-1.3,0.8c-0.3,0.2-0.7,0.5-1.1,0.5c-0.2,0-0.5,0-0.7,0
			c-0.3,0-0.5,0.3-0.7,0.5c-0.2,0.3-0.5,0.3-0.8,0.2c-1-0.3-2-0.2-2.8,0.5c0.7,0,1.5,0.1,2,0.6c0.1,0.1,0,0.1-0.1,0.1
			c-0.9-0.2-2.1,0.4-2.7,1c-0.3,0.3-0.8,1.3-1.3,0.9c-0.3-0.2-0.5-0.6-0.8-0.8c-0.4-0.4-0.8-0.7-1.3-0.7c-0.3,0-0.6,0.1-0.8-0.1
			c-0.3-0.2-0.1-0.7-0.4-0.9c-0.3-0.1-0.6-0.2-0.7-0.5c-0.1-0.3-0.2-0.6-0.3-0.9c-0.2-0.8-0.6-1.6-0.7-2.4c-0.2-1.1,0.2-2.2,0.9-3.1
			C4.5,17.3,4.7,17,5,16.8c0.5-0.5,1.2-0.8,1.9-1c0.4-0.1,0.8-0.1,1.1-0.2c0.6-0.1,0.7-0.5,0.9-0.9c0-0.1,0.1-0.1,0.1,0
			c0.1,0.4,0,0.7-0.1,1c0.4-0.5,0.9-1.1,1.6-1.1c0.2,0,0.6,0,0.8,0.1c0.2,0.2,0.2,0.5,0.3,0.7c0.1-0.4,0.1-0.7,0.2-1.1
			c0,0,0.1-0.1,0.1-0.1c0.4,0,0.7-0.3,1-0.2c0.1,0,0.3,0.1,0.4,0.2c0-0.1-0.1-0.2-0.1-0.3c0-0.1,0-0.1,0.1-0.1
			c0.2,0,0.5,0.1,0.7,0.1c-0.1-0.1-0.2-0.1-0.4-0.2c-0.1,0,0-0.2,0.1-0.1c1.3,0.1,2.7-0.1,3.9,0.5c0.4,0.2,0.9,0.5,1,1
			c0,0.4-0.4,0.9-0.7,1.1c-0.1,0-0.2,0-0.1-0.1c0.1-0.2,0.2-0.4,0.3-0.6c-0.2,0.2-0.3,0.4-0.5,0.5c0,0-0.1,0-0.1,0
			c-0.2-0.3-0.3-0.5-0.5-0.8c0,0.1,0,0.1,0,0.2c0,0.1-0.1,0.1-0.1,0c-0.1-0.3-0.7-0.9-1.1-0.7c-0.4,0.2-0.1,0.8-0.2,1.1
			c0,0,0,0.1-0.1,0.1c-0.5,0-1.2-0.3-1.6,0c0.4,0.4,1,0.6,1.5,0.7c0.2,0.1,0.5,0.1,0.7,0.2c0.1,0,0.3,0.1,0.4,0.2
			c0.2,0.3-0.3,0.6-0.5,0.7c-0.3,0.2-0.6,0.3-0.9,0.6c0,0,0,0,0,0.1c0.6,0.1,1.1-0.3,1.7-0.4c0.1,0,0.1,0,0.1,0.1
			c0,0.1-0.1,0.3-0.1,0.4c0,0.1-0.1,0.2-0.1,0.3c0,0.1,0.1,0.2,0.2,0.1c0.2-0.2,0.4-0.5,0.6-0.6c0.1-0.1,0.3-0.2,0.4,0
			c0.2,0.2,0.2,0.5,0.4,0.7c0-0.2,0-0.3,0-0.5c0-0.1,0.1-0.1,0.1,0c0.2,0.6,0.6,1.2,1,1.6c0.3,0.3,0.7,0.7,0.9,1.1
			C20.4,21.1,20.4,21.2,20.3,21.2z"/>
		<path class="st3" d="M8.5,15.6c-0.4,0.1-0.8,0.3-1.3,0.3c-0.4,0.1-0.7,0.2-1.1,0.3c-0.8,0.3-1.4,0.9-1.9,1.6
			c-0.5,0.8-0.7,1.6-0.6,2.5c0,0.5,0.2,1,0.3,1.4c0.1,0.4,0.2,0.8,0.4,1.1c0,0,0.1,0,0.1,0c-0.4-1.6-0.8-3.2-0.1-4.7
			c0.4-0.8,1.1-1.4,1.9-1.8C6.6,16.2,7,16.1,7.4,16C7.8,15.9,8.2,15.7,8.5,15.6C8.6,15.6,8.6,15.6,8.5,15.6z"/>
		
			<radialGradient id="SVGID_3_" cx="-175.4749" cy="289.6443" r="30.5374" gradientTransform="matrix(0.8863 0.4631 -0.4631 0.8863 313.8574 -147.6581)" gradientUnits="userSpaceOnUse">
			<stop  offset="0.4083" style="stop-color:#32485D"/>
			<stop  offset="0.9053" style="stop-color:#A06D7E"/>
		</radialGradient>
		<path class="st4" d="M13.6,13.8c-0.1,0-0.3-0.2-0.5-0.2c0-0.1-0.3-0.2-0.4-0.2c-0.5-0.1-1.1-0.1-1.6-0.1c-0.3,0-0.5,0.1-0.7,0.2
			c-0.3,0.1-0.7,0.2-0.9,0.5c0,0,0,0,0,0c0,0.1-0.1,0.1-0.1,0.2c0,0.1-0.1,0.1-0.1,0.2c0,0,0.1,0,0.1,0c0-0.1,0.1-0.1,0.2-0.2
			c0,0,0,0,0-0.1c0.1,0,0.2,0.1,0.3,0.1c0,0,0,0.1,0,0.1c0,0.1-0.1,0.2-0.1,0.3c0,0.1-0.1,0.2-0.1,0.3c0,0,0,0,0.1,0
			c0.1-0.1,0.2-0.2,0.2-0.3c0-0.1,0.1-0.1,0.1-0.2c0,0,0,0,0-0.1c0.3,0,0.7,0,1.1,0c0,0,0,0,0,0c0,0.1,0,0.2,0,0.3c0,0,0.1,0,0.1,0
			c0-0.1,0-0.2,0-0.2c0,0,0,0,0-0.1c0,0,0,0,0.1,0c0,0.1,0,0.2,0,0.2c0,0.2,0,0.3,0,0.5c0,0,0.1,0,0.1,0c0-0.2,0.1-0.3,0.1-0.5
			c0-0.1,0-0.2,0-0.2c0.1,0,0.2,0,0.2,0c0.1,0,0.1,0,0.2,0c0.2,0,0.4-0.1,0.6-0.1c0,0,0,0,0,0c0,0,0.1,0,0.1,0.1
			c0.1,0.1,0.2,0.1,0.2,0.2c0,0,0.1,0,0.1,0c-0.1-0.1-0.1-0.2-0.3-0.3c0,0,0,0,0,0c0,0,0,0,0,0c0.1,0,0.1,0.1,0.2,0.1c0,0,0.1,0,0,0
			c0,0-0.1-0.1-0.1-0.1C13.3,13.8,13.4,13.9,13.6,13.8C13.7,13.9,13.7,13.8,13.6,13.8z M12.9,13.7C12.9,13.7,12.9,13.7,12.9,13.7
			c0-0.1-1.7,0-1.8,0c-0.4,0-0.8,0.1-1.2,0.2c0,0,0-0.1,0.1-0.1c0,0,0,0,0,0c0.7-0.3,1.3-0.4,2-0.3c0.2,0,0.5,0.1,0.7,0.1
			C13,13.6,13,13.6,12.9,13.7z"/>
		
			<radialGradient id="SVGID_4_" cx="-175.464" cy="289.6489" r="30.5512" gradientTransform="matrix(0.8863 0.4631 -0.4631 0.8863 313.8574 -147.6581)" gradientUnits="userSpaceOnUse">
			<stop  offset="0.4083" style="stop-color:#32485D"/>
			<stop  offset="0.9053" style="stop-color:#A06D7E"/>
		</radialGradient>
		<path class="st5" d="M7.1,27.7c0.1-0.5-0.3-1.4-0.8-1.5c0,0,0,0,0,0c-0.2-0.2-0.5-0.2-0.6,0c-0.3,0.5,0.3,1.3,0.6,1.6
			C6.6,28.1,6.9,28.2,7.1,27.7z"/>
		
			<radialGradient id="SVGID_5_" cx="-175.4734" cy="289.6447" r="30.5421" gradientTransform="matrix(0.8863 0.4631 -0.4631 0.8863 313.8574 -147.6581)" gradientUnits="userSpaceOnUse">
			<stop  offset="0.4083" style="stop-color:#32485D"/>
			<stop  offset="0.9053" style="stop-color:#A06D7E"/>
		</radialGradient>
		<path class="st6" d="M20.7,24.1c-0.9-0.1-2,0.2-2.5,0.9c0-0.1,0-0.1,0-0.2c0.1-0.2,0.2-0.4,0.4-0.6c0,0,0,0,0,0
			c-0.2,0.1-0.3,0.3-0.4,0.5c-0.1-0.2-0.3-0.3-0.5-0.4c-0.1-0.1-0.3-0.2-0.5-0.2c0-0.1,0.1-0.3,0.2-0.4c0.1-0.2,0.4-0.6,0.6-0.7
			c0,0,0,0,0,0c-0.3,0.1-0.5,0.4-0.7,0.6c-0.1,0.1-0.2,0.3-0.3,0.5c-0.3,0-0.5-0.1-0.8,0c-0.4,0-0.7,0.1-1.1,0.1c0,0,0,0,0-0.1
			c0-0.1,0-0.2-0.1-0.2c0-0.1,0-0.2-0.1-0.2c0-0.1-0.1-0.1-0.1-0.2c0,0-0.1,0-0.1,0c0,0.1,0,0.1,0.1,0.2c0,0.1,0.1,0.2,0.1,0.3
			c0,0.1,0,0.2,0.1,0.3c0,0,0,0,0,0c0,0-0.1,0-0.1,0c0,0,0,0,0-0.1c0-0.1,0-0.1-0.1-0.2c0,0-0.1,0-0.1,0c0,0.1,0,0.1,0,0.2
			c0,0,0,0,0,0.1c-0.2,0-0.3,0.1-0.4,0.1c-0.1-0.2-0.4-0.3-0.6-0.4c-0.4-0.2-0.8-0.3-1.3-0.3c0,0,0,0,0,0c0.5,0,0.9,0.2,1.3,0.4
			c0.1,0.1,0.3,0.2,0.4,0.3c0,0,0,0,0,0c-0.4,0.2-0.8,0.5-1.1,0.8c-0.2-0.1-0.5-0.1-0.7,0c-0.2,0-0.4,0.1-0.6,0.2
			c-0.1,0.1-0.3,0.3-0.4,0.3c0,0,0,0,0,0c0.2,0,0.4-0.2,0.6-0.3c0.4-0.1,0.7-0.1,1-0.1c0,0.1-0.1,0.1-0.1,0.2
			c-0.1,0.1-0.1,0.2-0.1,0.3c-0.1,0-0.2,0-0.2,0c-0.1,0-0.2,0.1-0.4,0.2c0,0,0,0.1,0,0c0.1,0,0.2-0.1,0.3-0.1c0.1,0,0.1,0,0.2,0
			c0,0,0.1,0,0.1,0c0,0.1,0,0.2,0.1,0.3c-0.1,0-0.1,0-0.2,0.1c0,0,0,0-0.1,0c0,0,0,0,0,0v0c0,0,0,0,0,0c0,0,0.1,0,0.1,0
			c0.1,0,0.1,0,0.2-0.1c0.1,0.2,0.4,0.4,0.6,0.5c0.4,0.2,1,0.4,1.5,0.5c0,0.1,0,0.1,0,0.2c0,0.1,0,0.2,0,0.3c0,0,0.1,0,0.1,0
			c0-0.1,0-0.2,0.1-0.3c0-0.1,0-0.1,0-0.2c0,0,0,0,0,0c0.7,0.1,1.4,0,2-0.4c0.3-0.2,0.5-0.5,0.7-0.9c0,0,0.1,0,0.1,0
			c0,0,0.1,0,0.1,0c0,0,0.1,0,0,0c-0.1,0-0.2-0.1-0.2-0.1c0.1-0.1,0.1-0.2,0.2-0.3l0,0c0.1,0,0.2,0,0.3,0c0.1,0,0.1,0,0.2,0
			c0,0,0.1,0,0.1,0c0,0,0.2,0,0.1,0c0,0,0,0,0,0c0.1,0,0,0,0.1,0c0,0,0,0,0,0c-0.1-0.2-0.4-0.1-0.5-0.2c0,0-0.1,0-0.2,0
			c0-0.1,0.1-0.2,0.1-0.3c0,0,0-0.1,0-0.1c0.3-0.3,0.6-0.7,1-0.9C19.7,24.2,20.2,24.2,20.7,24.1C20.7,24.1,20.7,24.1,20.7,24.1z
			 M16.9,26.9c-0.9,0.9-2.2,0.4-3.2-0.1c-0.5-0.2-1-0.6-0.7-1.2c0,0,0,0,0,0c0.1,0.3,0.6,0.7,0.9,0.8c0.4,0.3,1,0.2,1.5,0.2
			c0.5,0,1.1,0,1.5-0.3c0.3-0.2,0.5-0.4,0.7-0.6c0.2-0.2,0.3-0.4,0.4-0.6c0,0.1,0,0.2,0,0.2C17.7,26,17.4,26.5,16.9,26.9z"/>
		
			<radialGradient id="SVGID_6_" cx="-175.4733" cy="289.645" r="30.5397" gradientTransform="matrix(0.8863 0.4631 -0.4631 0.8863 313.8574 -147.6581)" gradientUnits="userSpaceOnUse">
			<stop  offset="0.4083" style="stop-color:#32485D"/>
			<stop  offset="0.9053" style="stop-color:#A06D7E"/>
		</radialGradient>
		<path class="st7" d="M23.7,22.8c0.1-0.2,0-0.6,0-0.7c0-0.5-0.2-1.1-0.5-1.5c-0.1-0.2-0.4-0.5-0.7-0.5c-0.2-0.1-0.4-0.1-0.6-0.2
			c-0.3-0.1-0.5-0.3-0.8-0.4c0,0,0,0,0,0c0.2,0.4,0.7,0.5,1.1,0.6c-0.1,0-0.1,0.1-0.1,0.2c-0.2,0-0.4,0-0.6-0.1c0,0-0.1,0,0,0
			c0.2,0.1,0.4,0.1,0.6,0.2c0,0.2,0,0.4,0,0.5c0,0.1,0,0.2,0.1,0.4c0,0,0,0-0.1,0c0,0,0,0,0,0c0,0,0,0,0,0c0,0,0,0,0,0
			c0,0,0.1,0,0.1,0c0,0,0,0,0,0.1c0,0-0.1,0-0.1,0c0,0-0.1,0,0,0c0.1,0,0.1,0,0.2,0c0,0,0,0.1,0.1,0.1c-0.1,0-0.2,0-0.3,0
			c-0.1,0-0.2,0-0.3,0.1c-0.1,0-0.2,0.1-0.3,0.1c0,0,0,0,0,0c0,0,0,0,0.1,0c0.1,0,0.2-0.1,0.4-0.1c0.2,0,0.3,0,0.5,0
			c0,0.1,0.1,0.2,0.1,0.3c0,0,0,0-0.1,0c-0.2,0.1-0.3,0.2-0.5,0.2c0,0,0,0,0,0c0.1-0.1,0.3-0.1,0.5-0.2c0,0,0.1,0,0.1,0
			c0.1,0.1,0.1,0.2,0.2,0.3c-0.1,0.1-0.2,0.2-0.3,0.2c0,0,0,0,0,0c0.1,0,0.2-0.1,0.2-0.1c0,0,0.1,0,0.1-0.1c0,0.1,0.1,0.1,0.1,0.2
			c0.1,0.1,0.1,0.2,0.2,0.2c-0.2,0.1-0.4,0.3-0.6,0.5c0,0,0,0,0.1,0c0.1-0.1,0.2-0.2,0.3-0.3c0.1-0.1,0.2-0.1,0.3-0.2
			c0,0,0.1,0.1,0.2,0.1c-0.2,0.2-0.4,0.5-0.5,0.8c0,0,0.1,0,0.1,0C23.1,23.4,23.4,23.1,23.7,22.8C23.7,22.8,23.7,22.8,23.7,22.8z
			 M23.4,22.7C23.4,22.7,23.4,22.7,23.4,22.7C23.4,22.7,23.4,22.6,23.4,22.7C23.4,22.6,23.4,22.6,23.4,22.7c0.2-0.3-0.2-1.3-0.2-1.4
			c-0.1-0.1-0.5-1-0.7-1c0.1-0.1,0.1-0.2,0.3,0c0.3,0.2,0.4,0.5,0.6,0.7c0.2,0.5,0.3,1,0.2,1.5C23.5,22.8,23.5,22.8,23.4,22.7z"/>
		
			<radialGradient id="SVGID_7_" cx="-175.4739" cy="289.6445" r="30.5383" gradientTransform="matrix(0.8863 0.4631 -0.4631 0.8863 313.8574 -147.6581)" gradientUnits="userSpaceOnUse">
			<stop  offset="0.4083" style="stop-color:#32485D"/>
			<stop  offset="0.9053" style="stop-color:#A06D7E"/>
		</radialGradient>
		<path class="st8" d="M19.3,18.8c-0.3-0.4-0.6-0.7-1-1.1c0.1-0.1,0.1-0.2,0-0.3c0,0,0.1,0,0.1,0c0.3,0.1,0.7,0.2,1,0.3
			c0,0,0.1,0,0,0c-0.3-0.1-0.6-0.2-0.9-0.3c-0.1,0-0.2-0.1-0.3-0.1c-0.1-0.1-0.1-0.2-0.2-0.3c0.1,0,0.1,0,0.1,0c0.1,0,0.3,0,0.4-0.1
			c0,0,0,0,0,0c-0.2,0-0.4,0-0.6,0c0,0,0-0.1-0.1-0.1c0,0,0,0,0,0c0.1,0,0.1-0.1,0.2-0.1c0,0,0,0,0,0c-0.1,0-0.2,0.1-0.2,0.1
			c0,0-0.1-0.1-0.1-0.1c-0.1-0.1-0.2-0.2-0.3-0.3c0.1-0.1,0.1-0.2,0.1-0.3c0.1-0.2,0.3-0.4,0.3-0.7c0,0,0,0-0.1,0
			c-0.1,0.2-0.2,0.4-0.3,0.6c-0.1,0.1-0.1,0.2-0.2,0.3c-0.1-0.1-0.1-0.1-0.2-0.1c0-0.1,0-0.2,0-0.3c0,0-0.1,0-0.1,0
			c0,0.1,0,0.1,0,0.2c0,0,0,0.1,0,0.1c-0.2-0.1-0.3-0.2-0.4-0.2c0,0,0-0.1-0.1-0.1c-0.1-0.1-0.2-0.3-0.2-0.5c0,0-0.1,0-0.1,0
			c0,0.1,0.1,0.3,0.1,0.5c0,0,0,0,0,0.1c-0.1,0-0.1,0-0.1,0c-0.1-0.1-0.1-0.1-0.2-0.1c-0.1-0.1-0.3-0.2-0.4-0.3c0,0-0.1,0,0,0
			c0.1,0.1,0.2,0.2,0.3,0.3c0.1,0.1,0.2,0.2,0.2,0.2c-0.1,0.1-0.1,0.3,0,0.4c0,0,0,0-0.1,0c-0.1,0-0.2,0-0.2,0c0,0,0,0,0,0
			c0.1,0,0.2,0,0.3,0.1c0,0,0,0,0,0.1c-0.1,0-0.3,0-0.4,0c-0.3,0-0.7,0-1-0.1c0,0-0.1,0,0,0c0.2,0.1,0.5,0.1,0.7,0.1
			c0.3,0,0.5,0.1,0.8,0.1c0,0,0,0.1,0.1,0.1c0.1,0.1,0.2,0.3,0.4,0.4c0,0-0.1,0.1-0.1,0.1c-0.1,0.1-0.2,0.3-0.3,0.4c0,0,0.1,0,0.1,0
			c0.1-0.2,0.3-0.3,0.5-0.5c0.1,0.1,0.3,0.2,0.4,0.3c0,0.1,0,0.1,0,0.2c0,0,0.1,0,0.1,0c0,0,0-0.1,0-0.1c0,0,0,0,0,0c0,0,0,0,0.1,0
			c0,0,0,0.1,0,0.1c0,0.1,0.1,0.2,0.1,0.3c0,0,0.1,0,0.1,0c0-0.1,0-0.2-0.1-0.3c0.1,0,0.2,0.1,0.3,0.1c0.1,0.1,0.3,0.2,0.4,0.3
			C18.8,18.4,19,18.6,19.3,18.8C19.3,18.8,19.4,18.8,19.3,18.8z"/>
		
			<radialGradient id="SVGID_8_" cx="-175.4741" cy="289.6475" r="30.5329" gradientTransform="matrix(0.8863 0.4631 -0.4631 0.8863 313.8574 -147.6581)" gradientUnits="userSpaceOnUse">
			<stop  offset="0.4083" style="stop-color:#32485D"/>
			<stop  offset="0.9053" style="stop-color:#A06D7E"/>
		</radialGradient>
		<path class="st9" d="M17,31.5c-0.3,0-0.7-0.1-1-0.1c-0.3,0-0.7,0-1.1,0c-0.3,0-0.5,0-0.7,0.2c-0.3,0.2,0.2,0.4,0.4,0.5
			c0.6,0.2,1.2,0.3,1.8,0.3c0.4,0,1.1,0,1.5-0.3C18.5,31.6,17.2,31.5,17,31.5z"/>
		<g>
			
				<radialGradient id="SVGID_9_" cx="-175.4763" cy="289.6451" r="30.5361" gradientTransform="matrix(0.8863 0.4631 -0.4631 0.8863 313.8574 -147.6581)" gradientUnits="userSpaceOnUse">
				<stop  offset="0.4083" style="stop-color:#32485D"/>
				<stop  offset="0.9053" style="stop-color:#A06D7E"/>
			</radialGradient>
			<path class="st10" d="M8.9,19C8.5,19,8,18.8,7.7,18.6c-0.2-0.1-0.5-0.3-0.7-0.4c0.1-0.3,0.2-0.6,0.2-0.8c0.1,0,0.2,0.1,0.3,0.1
				c0.1,0,0.3,0.1,0.4,0.1c0,0,0.1,0,0,0c-0.1,0-0.3-0.1-0.4-0.1c-0.1,0-0.2-0.1-0.3-0.1c0,0,0,0,0,0c0,0,0.1,0,0.1,0
				c0.1,0,0.1,0,0.2,0c0,0,0.1,0,0,0c-0.1,0-0.1,0-0.2-0.1c0,0,0,0-0.1,0c0,0,0-0.1,0-0.1c0,0,0,0,0.1,0c0.1,0,0.3,0,0.4,0
				c0.2,0,0.4,0,0.6-0.2c0,0,0,0,0,0C8,17.1,7.5,17,7.3,16.9c-0.1-0.1-0.2-0.1-0.4-0.1c-0.1,0-0.1,0-0.2,0c-0.2,0.1-0.4,0.2-0.6,0.4
				c-0.8,0.5-1.4,1.4-1.7,2.2c-0.1,0.2-0.2,0.6,0.1,0.8c0.1,0.1,0.2,0.2,0.2,0.3c0.1,0.1,0.2,0.3,0.3,0.4c0.1,0.2,0.1,0.4,0.2,0.6
				c0,0,0.1,0,0.1,0c0-0.1,0-0.3,0-0.4c0-0.1-0.2-0.3-0.2-0.4c-0.1-0.1-0.2-0.3-0.3-0.4c0,0,0,0,0,0c0.2,0,0.4-0.1,0.6-0.2
				c0,0,0.1,0.1,0.1,0.1c0.1,0.1,0.2,0.2,0.2,0.3c0,0,0.1,0,0.1,0c-0.1-0.1-0.1-0.2-0.2-0.4c0-0.1-0.1-0.1-0.1-0.2
				c0.1-0.1,0.2-0.1,0.2-0.2c0,0,0,0,0.1-0.1c0.1,0.1,0.1,0.1,0.2,0.2c0.2,0.2,0.4,0.3,0.6,0.5c0,0,0.1,0,0.1,0
				c-0.1-0.1-0.2-0.2-0.3-0.3C6.2,20,6.1,19.9,6,19.8c-0.1-0.1-0.1-0.1-0.2-0.2C6,19.5,6.3,19.3,6.4,19c0,0,0.1,0,0,0c0,0,0,0,0,0
				c0.1-0.1,0.2-0.2,0.3-0.4c0.1,0,0.1,0.1,0.2,0.1c0.1,0.1,0.2,0.2,0.3,0.2c0,0,0.1,0,0.1,0c-0.1-0.1-0.2-0.2-0.3-0.2
				c-0.1,0-0.1-0.1-0.2-0.1c0,0,0.1-0.1,0.1-0.1c0,0,0.1,0.1,0.1,0.1c0.2,0.1,0.4,0.3,0.6,0.3C7.9,19,8.5,19,8.9,19
				C8.9,19.1,8.9,19,8.9,19z M7,17.4c-0.5,0.4-0.9,0.6-1.3,1.1c-0.3,0.4-0.6,1-0.7,1.5c-0.2,0.1-0.4,0-0.4-0.3
				c0-0.2,0.1-0.5,0.2-0.7c0,0,0,0,0,0l0,0C5,19,5,19.1,5.1,19.1c0,0,0.1,0,0.1,0c0,0,0,0,0,0c0,0,0,0,0,0C5.1,19,5,18.9,5,18.9
				c0,0,0,0,0,0c0-0.1,0.1-0.2,0.1-0.2c0.1,0,0.1,0,0.2,0c0,0,0.1,0,0-0.1c-0.1,0-0.1,0-0.2,0c0.1-0.2,0.3-0.5,0.5-0.7c0,0,0,0,0,0
				c0.3-0.3,0.5-0.5,0.8-0.7C6.9,16.8,7,17.1,7,17.4C7,17.4,7,17.4,7,17.4z"/>
			
				<radialGradient id="SVGID_10_" cx="-175.4061" cy="289.6467" r="30.6389" gradientTransform="matrix(0.8863 0.4631 -0.4631 0.8863 313.8574 -147.6581)" gradientUnits="userSpaceOnUse">
				<stop  offset="0.4083" style="stop-color:#32485D"/>
				<stop  offset="0.9053" style="stop-color:#A06D7E"/>
			</radialGradient>
			<path class="st11" d="M5.6,18.3C5.5,18.3,5.5,18.3,5.6,18.3c-0.1-0.1-0.1-0.1-0.1-0.1c0,0,0,0-0.1,0C5.3,18.3,5.5,18.3,5.6,18.3
				C5.5,18.4,5.6,18.3,5.6,18.3z"/>
		</g>
		
			<radialGradient id="SVGID_11_" cx="-175.4868" cy="289.6389" r="30.5249" gradientTransform="matrix(0.8863 0.4631 -0.4631 0.8863 313.8574 -147.6581)" gradientUnits="userSpaceOnUse">
			<stop  offset="0.4083" style="stop-color:#32485D"/>
			<stop  offset="0.9053" style="stop-color:#A06D7E"/>
		</radialGradient>
		<path class="st12" d="M8.8,28.3L8.8,28.3c0.1-0.2-0.2-0.6-0.5-0.4c-0.1,0.1-0.1,0.2-0.1,0.3c0,0.1,0,0.2,0.1,0.3
			C8.4,28.5,8.6,28.4,8.8,28.3C8.8,28.3,8.8,28.3,8.8,28.3C8.8,28.3,8.8,28.3,8.8,28.3z"/>
		
			<radialGradient id="SVGID_12_" cx="-175.476" cy="289.6422" r="30.5383" gradientTransform="matrix(0.8863 0.4631 -0.4631 0.8863 313.8574 -147.6581)" gradientUnits="userSpaceOnUse">
			<stop  offset="0.4083" style="stop-color:#32485D"/>
			<stop  offset="0.9053" style="stop-color:#A06D7E"/>
		</radialGradient>
		<path class="st13" d="M5.2,25.4C5.2,25.2,5.1,25,4.9,25c-0.2,0-0.3,0.1-0.3,0.2c0,0,0,0.1,0,0.1c0,0.2,0.2,0.6,0.5,0.6
			C5.3,25.8,5.3,25.6,5.2,25.4z"/>
		
			<radialGradient id="SVGID_13_" cx="-175.4723" cy="289.6465" r="30.5381" gradientTransform="matrix(0.8863 0.4631 -0.4631 0.8863 313.8574 -147.6581)" gradientUnits="userSpaceOnUse">
			<stop  offset="0.4083" style="stop-color:#32485D"/>
			<stop  offset="0.9053" style="stop-color:#A06D7E"/>
		</radialGradient>
		<path class="st14" d="M18.9,28.4c-0.1,0-0.2,0-0.3,0c-0.1,0-0.2,0.1-0.2,0.1c0,0,0,0.1,0,0.1c0.1,0.1,0.1,0.1,0.2,0.1
			c0.1,0,0.2,0,0.2-0.1c0,0,0,0,0.1-0.1C19,28.5,18.9,28.4,18.9,28.4z"/>
		
			<radialGradient id="SVGID_14_" cx="-175.4738" cy="289.6455" r="30.536" gradientTransform="matrix(0.8863 0.4631 -0.4631 0.8863 313.8574 -147.6581)" gradientUnits="userSpaceOnUse">
			<stop  offset="0.4083" style="stop-color:#32485D"/>
			<stop  offset="0.9053" style="stop-color:#A06D7E"/>
		</radialGradient>
		<path class="st15" d="M21.8,26.8c0-0.2-0.2-0.3-0.4-0.3c-0.2,0-0.3,0.1-0.4,0.2c-0.2,0.1-0.4,0.3-0.4,0.4
			c-0.1,0.1-0.1,0.2-0.1,0.3c0,0,0,0,0,0.1c-0.1,0.2,0.1,0.4,0.3,0.4c0.2,0,0.3,0,0.5,0C21.6,27.7,21.8,27.2,21.8,26.8z"/>
		
			<radialGradient id="SVGID_15_" cx="-175.4616" cy="289.6445" r="30.6477" gradientTransform="matrix(0.8863 0.4631 -0.4631 0.8863 313.8574 -147.6581)" gradientUnits="userSpaceOnUse">
			<stop  offset="0.4083" style="stop-color:#32485D"/>
			<stop  offset="0.9053" style="stop-color:#A06D7E"/>
		</radialGradient>
		<path class="st16" d="M22,25.5C21.9,25.5,21.9,25.4,22,25.5c-0.1-0.1-0.2-0.1-0.2,0c0,0,0,0,0,0c0,0,0,0,0,0.1c0,0,0.1,0,0.1,0
			c0,0,0,0,0,0C21.8,25.6,21.8,25.6,22,25.5C21.9,25.6,22,25.5,22,25.5z"/>
		
			<radialGradient id="SVGID_16_" cx="-175.4692" cy="289.6331" r="30.5266" gradientTransform="matrix(0.8863 0.4631 -0.4631 0.8863 313.8574 -147.6581)" gradientUnits="userSpaceOnUse">
			<stop  offset="0.4083" style="stop-color:#32485D"/>
			<stop  offset="0.9053" style="stop-color:#A06D7E"/>
		</radialGradient>
		<path class="st17" d="M20.4,19.6c0-0.1-0.2-0.2-0.3-0.2c0,0,0,0-0.1,0c0,0,0,0,0,0c0,0-0.1,0.1,0,0.1c0,0,0,0,0,0.1
			c0,0.1,0.1,0.1,0.1,0.2C20.3,19.9,20.5,19.8,20.4,19.6z"/>
		<path class="st3" d="M18.3,14.8c-1.1-0.9-2.6-1-3.9-1c0,0-0.1,0,0,0c0.6,0.1,1.3,0.1,1.9,0.2C17,14.2,17.7,14.5,18.3,14.8
			C18.3,14.9,18.3,14.9,18.3,14.8z"/>
	</g>
	
		<linearGradient id="SVGID_17_" gradientUnits="userSpaceOnUse" x1="-168.6416" y1="265.0595" x2="-188.6335" y2="292.9328" gradientTransform="matrix(0.8863 0.4631 -0.4631 0.8863 313.8412 -147.6581)">
		<stop  offset="0.4636" style="stop-color:#F7C7B1"/>
		<stop  offset="1" style="stop-color:#F59F1D"/>
	</linearGradient>
	<path class="st18" d="M58.1,0c-0.4,0.1-0.8,0.3-1.2,0.4c-0.7,0.3-1.5,0.4-2.2,0.6c-1.2,0.4-7.4,2.5-9.2,3.2
		c-2.4,0.9-4.8,1.6-7.2,2.4c-1,0.3-5.8,1.8-5.8,1.7c1.4-1.2,3.3-1.6,4.9-2.5C37.2,5.9,37,6,36.7,6c-5,1.4-9.6,3.8-14.6,5.4
		c-0.1,0,2.1-1.3,3.2-1.9c-1,0.3-1.9,0.6-2.9,1c-0.9,0.4-2.8,0.9-2.8,0.9c1.7-0.7,3.4-1.5,5.1-2.3c-1.6,0.4-3.1,0.9-4.6,1.4
		c-2.9,0.9-5.8,1.6-8.7,2.5c-2.3,0.7-4.8,1.6-6.7,3.1c-2,1.5-3.1,3.7-3,6.2c0,2.3,1.2,4.4,2.6,6.1c1.4,1.7,3.2,3,5.2,3.9
		c5,2.1,8.5,1.5,12.8-1.3c1.5-1,4.9-3.9,6.3-5c0.6-0.4,1.1-0.9,1.7-1.3c1.7-1.6,3.5-3.1,5-4.9c-2,1.3-5.9,4-5.9,4
		c0.7-0.8,1.5-1.4,2.3-2.1c0.9-0.7,1.8-1.5,2.7-2.3c0.8-0.7,1.6-1.5,2.5-2.1c0.8-0.6,1.6-1.2,2.3-1.9c-2.3,1.1-8.2,4.4-8.1,4.3
		c0.4-0.3,0.9-0.6,1.3-0.9c1.6-1,3.1-2.1,4.6-3.1c1.9-1.4,3.8-2.8,5.7-4.2c2.8-2.1,5.7-4.1,8.5-6.3c-3,1.7-9.2,5-9.2,4.9
		c3.5-2.3,6.9-4.9,10.6-6.9C54.5,2,56.3,1.1,58.1,0z M46.7,5.9c-3.9,2.4-7.9,4.4-11.7,7c-2.9,2-5.9,4-8.4,6.4
		c0.3-0.2,0.5-0.3,0.8-0.5c0-0.1,0-0.1,0.1-0.2c0-0.1,0.2-0.1,0.2,0c0,0,0,0,0,0c4.5-3,8.8-6.4,13.6-9c0.1,0,0.2,0.1,0.1,0.1
		c-2.1,2.3-4.6,4.1-7,6.1c-1.2,1-2.3,2.1-3.5,3.1c-1,0.9-2,1.8-3,2.8c1.5-0.8,3-1.5,4.6-2.2c0.1,0,0.1,0.1,0.1,0.1
		c-1.2,0.8-2.5,1.4-3.6,2.3c-0.8,0.7-1.6,1.5-2.6,1.9c-0.1,0-0.1,0-0.1-0.1c0.1-0.4,0.1-0.7,0.2-1.1c-0.7,1.2-1.6,2.3-2.6,3.1
		c-0.1,0.1-0.2,0-0.1-0.1c0.3-0.7,0.7-1.3,1-2c-0.5,0.7-1,1.3-1.6,2c-0.9,1-1.8,2-2.9,2.9c-0.8,0.7-1.8,1.3-2.8,1.7
		c-0.9,0.4-1.9,0.7-2.8,0.3c0,0-0.1-0.1,0-0.1c0.4-0.3,0.8-0.5,1.2-0.8c-3.4,0.8-7.5,0-9.5-3c0.2,0.6,0.4,1.3,0.7,1.9
		c0,0.1-0.1,0.1-0.1,0.1C4.3,27.2,3,23.2,5,20.8c0-0.1,0.1,0,0.1,0c0,0.6,0,1.2,0.1,1.8c0.1-1.2,0.4-2.3,1-3.3
		c0.7-1.2,1.6-2.2,2.7-3c1.9-1.5,4.1-3,6.5-3.5c0.1,0,0.1,0.1,0.1,0.1c-0.8,1-1.8,1.9-2.2,3.1c1.1-1,2.3-2.1,3.7-2.7c0,0,0,0,0,0
		l0,0c0,0,0,0,0,0c0.1,0,0.1,0.1,0.1,0.1c-1.9,1.3-3.4,3.1-4.5,5.1c0.9-1.4,2.2-2.5,3.5-3.5c1.7-1.3,3.7-2.3,5.7-3
		c0.1,0,0.1,0.1,0.1,0.1c-1.7,0.9-2.6,2.7-3.3,4.5c0.4-0.3,0.8-0.6,1.2-0.8c1.7-1.2,3.5-2.3,5.3-3.2c1.8-0.9,3.7-1.8,5.3-3
		c0.1-0.1,0.2,0.1,0.1,0.1c-1,1.3-2.1,2.4-3.3,3.6c0,0,0,0,0,0c0.5-0.3,0.9-0.6,1.4-0.8c2.1-1.3,4.3-2.6,6.6-3.4
		c0.1,0,0.1,0.1,0.1,0.1c-2,1.1-3.7,2.5-5.4,4.1c1.2-0.7,2.3-1.4,3.5-2c4.3-2.3,8.8-4.1,13.4-5.8C46.7,5.7,46.8,5.8,46.7,5.9z"/>
	
		<linearGradient id="SVGID_18_" gradientUnits="userSpaceOnUse" x1="-172.2527" y1="272.3704" x2="-191.5714" y2="294.188" gradientTransform="matrix(0.8863 0.4631 -0.4631 0.8863 313.8412 -147.6581)">
		<stop  offset="0.4636" style="stop-color:#F7C7B1"/>
		<stop  offset="0.9996" style="stop-color:#583600"/>
	</linearGradient>
	<path class="st19" d="M33.3,12.7c-2.7,1.1-5.4,2.3-7.9,3.7c0.7-0.7,1.4-1.4,2.2-2c0.1-0.1-0.1-0.2-0.2-0.2
		c-0.3,0.1-0.6,0.3-0.9,0.5c-0.4,0.3-0.9,0.5-1.3,0.8c-0.4,0.3-0.9,0.5-1.3,0.8c0.5-0.5,1.1-1,1.5-1.5c0.2-0.2-0.1-0.3-0.3-0.3
		c-0.6,0.1-1.1,0.4-1.6,0.7c-0.6,0.4-1.3,0.7-2,1.1c-1.3,0.7-2.5,1.6-3.7,2.4c-1.2,0.8-2.3,1.8-3.4,2.7c0,0,0,0,0,0
		c0-0.1,0.1-0.1,0.1-0.2c0.3-0.8,0.7-1.6,1.2-2.3c0.4-0.7,0.9-1.4,1.4-2.1c0.3-0.4,0.5-0.7,0.8-1.1c0.2-0.3,0.5-0.5,0.7-0.8
		c0.1-0.2-0.2-0.1-0.3-0.1c-0.8,0.3-1.5,0.9-2.1,1.3c-0.8,0.5-1.6,1.2-2.3,1.8c-0.8,0.7-1.5,1.4-2.3,2.1c-0.3,0.3-0.6,0.7-0.9,1
		c0-0.1,0.1-0.2,0.1-0.3c0.2-0.6,0.4-1.1,0.7-1.7c0.4-1.1,1.1-2,1.7-3c0.1-0.1-0.1-0.1-0.2-0.1c-0.8,0.4-1.3,1-1.9,1.6
		c-0.3,0.3-0.6,0.7-0.9,1.1c-0.2,0.2-0.3,0.5-0.5,0.7c0-0.1,0.1-0.1,0.1-0.2c0.2-0.4,0.4-0.9,0.6-1.3c0.4-0.8,0.9-1.5,1.3-2.2
		c0.1-0.2-0.2-0.2-0.2-0.2c-0.4,0.1-0.6,0.4-1,0.6c-0.4,0.3-0.8,0.6-1.1,1c-0.5,0.6-1,1.2-1.4,1.9c-0.1,0.1-0.2,0.3-0.3,0.5
		c-0.5,0.9-0.7,1.8-0.8,2.8c-0.1,1.8,0.6,3.3,2,4.4c2.7,2.1,6.4,1.6,9.4,0.2c-0.3,0.3-0.6,0.5-0.9,0.8c0,0-0.1,0.1,0,0.2
		c0.3,0.2,0.6,0.1,0.9-0.1c0.5-0.2,1-0.5,1.4-0.7c1.1-0.6,2-1.3,2.9-2.1c2.1-1.8,4.1-3.6,6-5.6c0.2-0.2-0.2-0.2-0.3-0.1
		c-0.7,0.5-1.5,0.8-2.2,1.2c-0.8,0.4-1.6,0.8-2.5,1.2c-0.1,0.1-0.3,0.1-0.4,0.2c0.4-0.5,0.9-1,1.4-1.5c0.9-0.9,1.9-1.8,2.9-2.7
		c1-0.9,2.1-1.7,3.1-2.5c0.5-0.4,1-0.8,1.5-1.2c0.5-0.3,0.9-0.8,1.5-1C33.8,12.8,33.6,12.6,33.3,12.7z"/>
	<path class="st20" d="M4.5,27.4C3.9,26.3,3.1,25.3,3,24c-0.2-1.2-0.3-2.4,0-3.6c0.3-1.3,1.1-2.7,2-3.7c0.5-0.5,1-1,1.6-1.4
		C7,15,7.5,14.8,8,14.4c0,0,0,0,0,0c-0.5,0.3-1.1,0.5-1.7,0.9c-0.6,0.4-1.1,0.8-1.6,1.3c-1,1-1.7,2.3-2.1,3.7
		C1.8,22.8,2.9,25.5,4.5,27.4C4.4,27.5,4.5,27.5,4.5,27.4z"/>
	<path class="st20" d="M20.5,31.1c-2,0.8-4.1,1.1-6.2,1.1c-1,0-2.1-0.1-3.1-0.4c-1.1-0.3-2.1-0.7-3.2-1c0,0-0.1,0,0,0
		c1,0.5,1.9,1,2.9,1.4c1,0.3,2.2,0.4,3.3,0.4C16.3,32.6,18.6,32.1,20.5,31.1C20.6,31.2,20.5,31.1,20.5,31.1z"/>
	<path class="st21" d="M12.5,10.5c-0.8,0.2-1.6,0.3-2.5,0.5c-0.8,0.2-1.6,0.5-2.3,0.8c-1.5,0.6-2.9,1.5-4.2,2.5
		c-1.3,1.1-2.3,2.3-2.9,3.9c-0.5,1.5-0.8,3.1-0.7,4.7c0,0,0.1,0,0.1,0c-0.1-3.1,1.7-6.2,4-8.2c1.2-1,2.5-1.9,3.9-2.5
		C9.5,11.4,11,11,12.5,10.5C12.6,10.6,12.6,10.5,12.5,10.5z"/>
	<path class="st21" d="M10.2,33.8c-0.8-0.2-1.5-0.3-2.3-0.6c-0.8-0.3-1.5-0.8-2.1-1.3c-1.2-1-2.2-2.2-3-3.5
		c-0.7-1.3-1.4-2.7-1.7-4.2c-0.2-0.7-0.3-1.4-0.3-2.2c0-0.8,0.1-1.6,0.3-2.3c0,0-0.1,0-0.1,0c-0.4,1.5-0.7,3.1-0.5,4.7
		c0.2,1.5,0.9,3,1.6,4.3c0.8,1.4,2,2.5,3.3,3.4C6.9,33,8.5,33.8,10.2,33.8C10.2,33.9,10.3,33.8,10.2,33.8z"/>
	<path class="st21" d="M24.9,30.7c-0.3,0.3-0.7,0.4-1.1,0.6c-0.4,0.2-0.8,0.5-1.3,0.7c-0.8,0.4-1.7,0.7-2.6,1
		c-1.7,0.6-3.4,1.1-5.2,1.3c-0.1,0-0.2,0.1,0,0.1c0.9,0.1,1.8,0.1,2.7-0.1c1-0.2,1.9-0.5,2.8-0.9c0.9-0.4,1.8-0.8,2.7-1.3
		c0.4-0.2,0.8-0.5,1.2-0.8C24.3,31.2,24.7,31.1,24.9,30.7C25,30.7,24.9,30.7,24.9,30.7z"/>
	<path class="st21" d="M20.6,9.7c-0.8,0.3-1.8,0.3-2.7,0.5c-1,0.2-2.1,0.4-3.1,0.6c-2.1,0.4-4.2,0.9-6.1,1.8c-0.1,0.1,0,0.2,0.1,0.1
		c1-0.2,2-0.6,3-0.8c1-0.3,2.1-0.5,3.1-0.8c1-0.2,2.1-0.5,3.1-0.7C18.8,10.2,19.8,10.1,20.6,9.7C20.7,9.7,20.6,9.7,20.6,9.7z"/>
	<path class="st21" d="M30.8,24.7c-2.8,2.2-5.7,4.2-8.3,6.5c-0.1,0.1,0.1,0.2,0.2,0.1c1.6-0.7,2.9-1.9,4.2-3
		C28.3,27.2,29.7,26,30.8,24.7C31,24.7,30.9,24.7,30.8,24.7z"/>
	<path class="st21" d="M46.3,9.8c-1.2,1-2.4,1.9-3.5,2.8c-1.1,1-2.2,2-3.2,3.1c-2.2,2.2-4.2,4.5-6.3,6.8c-0.1,0.1,0.1,0.1,0.2,0.1
		c2.3-2.1,4.3-4.4,6.5-6.5c1-1,2.1-2.1,3.2-3.1C44.2,11.9,45.3,10.9,46.3,9.8C46.5,9.8,46.3,9.8,46.3,9.8z"/>
	<path class="st21" d="M53.9,3.6c-2.5,1.5-5.1,3-7.4,4.8c-1.2,0.9-2.3,1.7-3.5,2.6c-1.1,0.8-2.2,1.8-3,2.8c-0.1,0.1,0.1,0.1,0.2,0.1
		C44.6,10.2,49.3,6.9,53.9,3.6C54,3.6,53.9,3.6,53.9,3.6z"/>
	<path class="st21" d="M53.7,0c-0.6,0.1-1.1,0.3-1.7,0.4c-0.7,0.2-1.3,0.3-2,0.5c-1.3,0.4-2.6,0.8-3.8,1.3c-1.2,0.5-2.5,0.9-3.6,1.4
		c-1.3,0.6-2.6,1.2-3.9,1.8c-0.2,0.1-0.1,0.2,0.1,0.2c1.3-0.4,2.5-0.7,3.7-1.3c1.2-0.5,2.4-0.9,3.6-1.4c1.3-0.5,2.5-1,3.8-1.5
		c0.6-0.2,1.2-0.4,1.8-0.6C52.3,0.6,53,0.3,53.7,0C53.7,0.1,53.8,0,53.7,0z"/>
	<path class="st21" d="M46.3,1.8c-0.7,0.3-1.4,0.4-2.1,0.5c-0.8,0.2-1.6,0.4-2.4,0.7c-1.7,0.5-3.3,1-5,1.5c-1.6,0.5-3.2,1-4.9,1.6
		c-1.6,0.6-3.1,1.3-4.7,2c-0.1,0,0,0.1,0,0.1c1.6-0.5,3.3-0.9,4.9-1.5c1.7-0.6,3.3-1.1,5-1.6c1.6-0.5,3.2-1,4.8-1.6
		c0.8-0.3,1.6-0.6,2.3-0.8C44.9,2.3,45.7,2.2,46.3,1.8C46.4,1.8,46.3,1.8,46.3,1.8z"/>
	<path class="st21" d="M34.4,4.7C34,4.9,33.6,5,33.2,5c-0.4,0.1-0.8,0.2-1.2,0.2c-0.9,0.1-1.7,0.3-2.5,0.5C27.7,6.2,26,6.6,24.2,7
		c-3.4,0.8-6.9,1.6-10.3,2.8c-0.1,0,0,0.1,0.1,0.1c3.5-0.8,7-1.7,10.5-2.5C26.2,7,28,6.5,29.8,6.1c0.9-0.2,1.8-0.4,2.7-0.6
		C33.1,5.3,33.9,5.1,34.4,4.7C34.5,4.8,34.4,4.7,34.4,4.7z"/>
</g>
</svg>
