<?xml version="1.0" encoding="utf-8"?>
<!-- Generator: Adobe Illustrator 23.0.1, SVG Export Plug-In . SVG Version: 6.00 Build 0)  -->
<svg version="1.1" id="Layer_1" xmlns="http://www.w3.org/2000/svg" xmlns:xlink="http://www.w3.org/1999/xlink" x="0px" y="0px"
	 viewBox="0 0 80 80" style="enable-background:new 0 0 80 80;" xml:space="preserve">
<style type="text/css">
	.st0{fill:url(#SVGID_1_);}
	.st1{fill:url(#SVGID_2_);}
	.st2{fill:url(#SVGID_3_);}
	.st3{fill:url(#SVGID_4_);}
	.st4{fill:url(#SVGID_5_);}
	.st5{fill:url(#SVGID_6_);}
	.st6{display:none;}
	.st7{display:inline;}
	.st8{fill:url(#SVGID_7_);}
	.st9{fill:url(#SVGID_8_);}
</style>
<g>
	<g>
		
			<linearGradient id="SVGID_1_" gradientUnits="userSpaceOnUse" x1="11.7538" y1="0.5895" x2="68.3421" y2="-52.6797" gradientTransform="matrix(1 0 0 -1 0 14)">
			<stop  offset="0.1885" style="stop-color:#DDDEE0"/>
			<stop  offset="1" style="stop-color:#DDDEE0"/>
		</linearGradient>
		<circle class="st0" cx="40" cy="40" r="40"/>
	</g>
	
		<linearGradient id="SVGID_2_" gradientUnits="userSpaceOnUse" x1="12.2288" y1="0.1423" x2="67.8654" y2="-52.231" gradientTransform="matrix(1 0 0 -1 0 14)">
		<stop  offset="0" style="stop-color:#DDDEE0"/>
		<stop  offset="0.8115" style="stop-color:#FFFFFF"/>
	</linearGradient>
	<circle class="st1" cx="40" cy="40" r="38.3"/>
</g>
<g>
	<g>
		
			<linearGradient id="SVGID_3_" gradientUnits="userSpaceOnUse" x1="13" y1="-26.3125" x2="40" y2="-26.3125" gradientTransform="matrix(1 0 0 -1 0 14)">
			<stop  offset="0" style="stop-color:#E9423A"/>
			<stop  offset="0.9868" style="stop-color:#F9AF23"/>
		</linearGradient>
		<path class="st2" d="M38.6,20c-0.9-0.5-1.9-0.5-2.8,0l-0.1,0.1L23.5,30.4h-9.6c-0.5,0-0.9,0.4-0.9,0.9v17.1c0,0.2,0.1,0.5,0.3,0.6
			c0.2,0.2,0.4,0.3,0.6,0.3h9.5l12.2,11.2l0.1,0.1c0.4,0.3,0.9,0.4,1.4,0.4s0.9-0.1,1.4-0.4c0.9-0.5,1.4-1.4,1.4-2.5V22.5
			C40,21.4,39.5,20.5,38.6,20z"/>
		
			<linearGradient id="SVGID_4_" gradientUnits="userSpaceOnUse" x1="46.7274" y1="-25.8687" x2="59.8234" y2="-25.8687" gradientTransform="matrix(1 0 0 -1 0 14)">
			<stop  offset="0" style="stop-color:#E9423A"/>
			<stop  offset="0.9868" style="stop-color:#F9AF23"/>
		</linearGradient>
		<path class="st3" d="M59.8,39.9c0-7.5-4.8-14.2-11.9-16.6c-0.5-0.2-1,0.1-1.1,0.6c-0.2,0.5,0.1,1,0.6,1.1
			C53.7,27.1,58,33.1,58,39.9c0,6.7-4.3,12.7-10.7,14.9c-0.5,0.2-0.7,0.7-0.6,1.1c0.1,0.4,0.5,0.6,0.9,0.6c0.1,0,0.2,0,0.3,0
			C55,54,59.8,47.4,59.8,39.9z"/>
		
			<linearGradient id="SVGID_5_" gradientUnits="userSpaceOnUse" x1="51.1234" y1="-26.0117" x2="67" y2="-26.0117" gradientTransform="matrix(1 0 0 -1 0 14)">
			<stop  offset="0" style="stop-color:#E9423A"/>
			<stop  offset="0.9868" style="stop-color:#F9AF23"/>
		</linearGradient>
		<path class="st4" d="M53,18.7c-0.5-0.2-1,0-1.2,0.5s0,1,0.5,1.2c7.8,3.3,12.9,11,12.9,19.5c0,8.8-5.3,16.5-13.5,19.7
			c-0.5,0.2-0.7,0.7-0.5,1.2c0.1,0.4,0.5,0.6,0.8,0.6c0.1,0,0.2,0,0.3-0.1C61.2,57.8,67,49.4,67,39.9C67,30.6,61.5,22.3,53,18.7z"/>
		
			<linearGradient id="SVGID_6_" gradientUnits="userSpaceOnUse" x1="41.7996" y1="-25.8375" x2="51.7234" y2="-25.8375" gradientTransform="matrix(1 0 0 -1 0 14)">
			<stop  offset="0" style="stop-color:#E9423A"/>
			<stop  offset="0.9868" style="stop-color:#F9AF23"/>
		</linearGradient>
		<path class="st5" d="M51.7,39.9c0-5.4-3.6-10.2-8.8-11.7c-0.5-0.1-1,0.1-1.1,0.6s0.1,1,0.6,1.1c4.4,1.3,7.5,5.4,7.5,9.9
			s-3.1,8.7-7.5,9.9c-0.5,0.1-0.8,0.6-0.6,1.1c0.1,0.4,0.5,0.7,0.9,0.7c0.1,0,0.2,0,0.2,0C48.1,50,51.7,45.2,51.7,39.9z"/>
	</g>
	<g class="st6">
		<g class="st7">
			
				<linearGradient id="SVGID_7_" gradientUnits="userSpaceOnUse" x1="12.9597" y1="108.3125" x2="39.9597" y2="108.3125" gradientTransform="matrix(1 0 0 1 0 -68)">
				<stop  offset="0" style="stop-color:#E9423A"/>
				<stop  offset="0.9868" style="stop-color:#F9AF23"/>
			</linearGradient>
			<path class="st8" d="M38.6,20c-0.9-0.5-1.9-0.5-2.8,0l-0.1,0.1L23.5,30.4h-9.6c-0.5,0-0.9,0.4-0.9,0.9v17.1
				c0,0.2,0.1,0.5,0.3,0.6c0.2,0.2,0.4,0.3,0.6,0.3h9.5l12.2,11.2l0.1,0.1c0.4,0.3,0.9,0.4,1.4,0.4s0.9-0.1,1.4-0.4
				c0.9-0.5,1.4-1.4,1.4-2.5V22.5C40,21.4,39.5,20.5,38.6,20z"/>
			<g>
				
					<linearGradient id="SVGID_8_" gradientUnits="userSpaceOnUse" x1="43.3591" y1="108.0125" x2="65.3598" y2="108.0125" gradientTransform="matrix(1 0 0 1 0 -68)">
					<stop  offset="0" style="stop-color:#E9423A"/>
					<stop  offset="0.9868" style="stop-color:#F9AF23"/>
				</linearGradient>
				<path class="st9" d="M56.1,40l8.9-8.9c0.5-0.5,0.5-1.3,0-1.7c-0.5-0.5-1.3-0.5-1.7,0l-8.9,8.9l-8.9-8.9c-0.5-0.5-1.3-0.5-1.7,0
					s-0.5,1.3,0,1.7l8.9,8.9l-8.9,8.9c-0.5,0.5-0.5,1.3,0,1.7c0.2,0.2,0.6,0.4,0.9,0.4c0.3,0,0.6-0.1,0.9-0.4l8.9-8.9l8.9,8.9
					c0.2,0.2,0.6,0.4,0.9,0.4s0.6-0.1,0.9-0.4c0.5-0.5,0.5-1.3,0-1.7L56.1,40z"/>
			</g>
		</g>
	</g>
</g>
</svg>
