<?xml version="1.0" encoding="utf-8"?>
<!-- Generator: Adobe Illustrator 23.0.1, SVG Export Plug-In . SVG Version: 6.00 Build 0)  -->
<svg version="1.1" id="Layer_1" xmlns="http://www.w3.org/2000/svg" xmlns:xlink="http://www.w3.org/1999/xlink" x="0px" y="0px"
	 viewBox="0 0 114.8 71.4" style="enable-background:new 0 0 114.8 71.4;" xml:space="preserve">
<style type="text/css">
	.st0{fill:#807E8E;}
	.st1{fill:#504F59;}
	.st2{fill:#605F6B;}
	.st3{fill:#8F8E9B;}
	.st4{fill:#A5A3AF;}
	.st5{fill:#C5C4CE;}
</style>
<g>
	<g>
		<path class="st0" d="M88.8,55.7c-0.2-5.4-2-20.4-2.7-25.3c-1,0.1-1.8,0.4-2.8,1.2c-1.7,1.3-3,2.7-4.8,3.4c1,5.9,0.8,12.2,1,18.2
			c0.1,4.3,0.2,8.6,0.4,12.9c2.9-1.4,7.3-4.2,8.9-4.4C88.9,59.6,88.9,57.6,88.8,55.7z"/>
		<path class="st0" d="M100.8,54.2c0-1.3-0.1-2.6-0.2-3.9C99.8,45.6,98.7,40,97.8,36c-0.5-2-1.4-6.9-1.4-7.1c0,0-0.3-0.3-0.6-0.7
			c-1.5,0.9-2.9,1.4-4.3,1.8c0.6,5.6,2.6,13.7,3.3,18.4c0.3,2.2,0.9,4.3,1.2,6.5c0.3,2.1-0.4,5.2-0.4,7.4c1.1,0.1,2.2,0.1,3.1-0.1
			c1-0.3,1.4-1.5,2.1-2.4C100.3,58,100.8,55.4,100.8,54.2z"/>
		<path class="st1" d="M97.8,36c1,4.3,2.1,10.7,3,15.6c0.5-2.4,1-6.9,0.6-11.1c-0.5-5.7-1.5-12-2.4-15.6c-1.6,0.3-2.9,0.5-3.7,0.5
			c0,1.4-0.4,2.2,0.7,2.8c-0.1,0-0.1,0.1-0.2,0.1c0.4,0.4,0.6,0.7,0.6,0.7C96.5,29.1,97.4,34,97.8,36z"/>
		<path class="st2" d="M96,54.9c-0.3-2.2-0.8-4.3-1.2-6.5c-0.7-4.6-2.7-12.7-3.3-18.4c-1.1,0.2-2.2,0.4-3.6,0.3
			c-0.7,0-1.3,0-1.8,0.1c0.7,4.9,2.5,19.9,2.7,25.3c0.1,1.8,0,3.9-0.1,5.9c0,0,0.1,0,0.1,0c2-0.1,4.4,0.5,6.6,0.7
			C95.5,60.1,96.2,57,96,54.9z"/>
		<path class="st2" d="M78.5,35c-0.7,0.3-1.5,0.4-2.5,0.3c-2.2-0.2-7.1-1.1-7.1-1c0.4,1.6,0.1,2.8-1.2,3.2c-0.5,0.1-1,0.2-1.7,0.2
			c1.9,7.1,2.7,14.4,3,21.7c0.1,2.4,0.2,4.7,0.2,7.1c0,1.3-0.3,3,0,4.4c0.1,0,0.2-0.1,0.4-0.1c1.8-0.7,3.3-3.5,3.3-3.5
			s3.1,0.3,5.9-0.7c0.3-0.1,0.7-0.3,1-0.5c-0.1-4.3-0.2-8.6-0.4-12.9C79.3,47.2,79.5,40.9,78.5,35z"/>
	</g>
	<g>
		<path class="st2" d="M105.9,47.7c0.1-2.8-0.3-4.6,2.1-3.9c1.2,0.4,0.7-3.5,0.9-5.6c0.2-1.9,1.5-3.7,1.4-5.6
			c-0.1-3.4-0.3-6.9-0.3-10.3c-4,0.9-8.1,2-11.1,2.6c1,3.6,2,9.9,2.4,15.6c0.4,4.2-0.1,8.7-0.6,11.1c-0.1-0.4-0.2-0.9-0.3-1.4
			c0.1,1.3,0.2,2.6,0.2,3.9c0,1.3-0.5,3.8-0.1,5.6c0.3-0.4,0.6-0.7,1-0.8c1.4-0.4,2.8-0.9,4.1-1.3C105.7,54.5,105.8,50.6,105.9,47.7
			z"/>
		<path class="st1" d="M114.6,37.8c-0.2-4.4,0-10.7-0.4-16.5c-1.3,0.3-2.7,0.6-4.2,0.9c0,3.4,0.2,6.9,0.3,10.3
			c0.1,1.9-1.2,3.7-1.4,5.6c-0.3,2.1,0.3,6-0.9,5.6c-2.4-0.7-1.9,1-2.1,3.9c-0.1,2.9-0.2,6.8-0.2,9.9c3-1,6-1.9,9.1-2.7
			C114.9,49.3,114.8,43.5,114.6,37.8z"/>
	</g>
	<g>
		<path class="st3" d="M95.3,25.4c2.7,0.1,11.8-2.6,19-4c0,0,0-0.1,0-0.1c-5.5-2-10.8-4.3-16-6.9c-1.7-0.9-3.8-1.8-5.4-3.1
			c-3,0.4-6-1.1-8.7-2.3c-2.8-1.3-5.9-2.7-8.9-1c-1.9,1.1-3.2,3-5.3,3.8c-2.6,1.1-5.6,0.8-8.1,2.4c-2.1,1.4-3.6,3.6-4.2,6
			c-1.1,4.8,1.9,9,6,10.6c0.9-0.1,4.1,2.9,5.2,5.2c0.1-0.5,0.1-1.2-0.1-1.9c0-0.1,4.8,0.9,7.1,1c3.5,0.3,4.9-1.8,7.3-3.7
			c1.6-1.2,2.6-1.3,4.6-1.3c3.2,0,5.3-0.6,8.1-2.2C94.9,27.6,95.3,26.8,95.3,25.4z"/>
		<path class="st4" d="M63.8,30.9c-4.1-1.7-7.1-5.9-6-10.6c0.6-2.4,2.1-4.7,4.2-6c2.5-1.6,5.4-1.3,8.1-2.4c2.1-0.9,3.4-2.7,5.3-3.8
			c2.9-1.7,6.1-0.3,8.9,1c2.7,1.2,5.7,2.7,8.7,2.3c-0.4-0.4-0.8-0.8-1.2-1.2c-1.8-2.4,0.5-4.8-0.5-7.2C90-0.1,85.9,0,83.3,0
			C77.1,0.1,71,0.4,64.9,0.9C53.1,1.8,41.3,3.4,29.6,5.6c-5.7,1.1-11.4,2.3-17,3.8C10.1,10.1,8,11,6.6,12.7c-1,3.9,7.6,7.3,10.2,8.6
			c4.2,2.1,8.5,3.9,12.9,5.5c8.1,3.1,23.3,8.4,31.6,11c2.1-0.3,5,0.2,6.5-0.3c0.7-0.2,1.1-0.7,1.3-1.3
			C67.9,33.8,64.7,30.9,63.8,30.9z"/>
	</g>
	<g>
		<path class="st2" d="M62.3,65.1c-0.4-1.3-0.9-2.3-2.2-2.8c-0.1-0.1-0.3-0.1-0.4-0.1c-0.1,2.9-0.2,5.7-0.2,8.6
			c2.8,0.1,4.9,0.7,7.2,0.6C64.3,69.8,63.2,67.8,62.3,65.1z"/>
		<path class="st2" d="M59.4,70.8C59.4,70.8,59.4,70.8,59.4,70.8c0.1-2.9,0.2-5.7,0.3-8.6c-1.2-0.3-2.5,0.1-3.5,0.6
			c-0.6,0.4-1.1,0.8-1.6,1.4c-1.2,1.4-2,1.5-3.8,1.4c-5.9-0.6-11.9-1.7-17.6-3.2c-2.8-0.8-5.6-1.6-8.4-2.6c-2.8-1-5.7-2.2-6.9-5
			c-0.3-0.6-0.4-3.1-1-1c-1.1,3.6-3.2,3.7-5.6,3.3c-0.8-0.1-1.6-0.2-2.4-0.3c6.3,2.3,14.5,5.2,19.7,7C36.8,66.5,50.4,70.5,59.4,70.8
			z"/>
	</g>
	<g>
		<path class="st0" d="M69.2,66.5c0-2.4-0.1-4.7-0.2-7.1c-0.3-7.3-1.1-14.7-3-21.7c-1.5,0-3.4-0.1-4.8,0.1
			c-8.3-2.6-23.5-7.9-31.6-11c-3.7-1.4-7.3-2.9-10.9-4.6c-0.2,0.5-0.3,1-0.1,1.4c0.4,0.9,0.6,2.9,1.3,3.5c0.5,0.4,0.5,1.4-0.3,1
			c-0.9-0.4-1.3,0.1-1.6,1c-0.4,1.2-1.4,2.1-2.1,3.1c-1.5,2.1-1.8,4.2-2.1,6.7c-0.4,4.1-2.2,7.6-4.1,11.1c-0.2,0.4-0.7,0.2-0.8-0.1
			c-1.2-3.3-1.9-7-1.6-10.5C7.8,33,6.2,28,6.2,27.6c0-0.2,0.3-0.2,0.4,0c0,0.1,0,0.2,0.1,0.3c1.4-3.2,3-6.2,4.7-9.2c0,0,0,0,0,0
			C8.6,17,6,15,6.6,12.7c-0.7,0.8-1.2,1.8-1.5,3c-1.6,6.2-2,12.9-3,19.2C1.4,39.6,0.6,48.6,0,53.4c-0.3,0,3.5,1.4,8.8,3.3
			c0.8,0.1,1.6,0.2,2.4,0.3c2.4,0.4,4.5,0.4,5.6-3.3c0.6-2.1,0.8,0.4,1,1c1.3,2.8,4.2,4,6.9,5c2.8,1,5.6,1.9,8.4,2.6
			c5.8,1.6,11.7,2.7,17.6,3.2c1.8,0.2,2.6,0,3.8-1.4c0.5-0.5,1-1,1.6-1.4c1-0.6,2.3-0.9,3.5-0.6c0.2,0,0.3,0.1,0.4,0.1
			c1.3,0.5,1.8,1.5,2.2,2.8c0.8,2.7,2,4.7,4.3,6.3c0.9,0,1.7-0.2,2.6-0.5C69,69.5,69.2,67.8,69.2,66.5z"/>
		<path class="st2" d="M6.2,27.6c0,0.4,1.6,5.5,1.1,11.8C7,42.9,7.7,46.6,8.9,49.9c0.1,0.3,0.6,0.5,0.8,0.1c1.9-3.5,3.7-7,4.1-11.1
			c0.3-2.5,0.6-4.6,2.1-6.7c0.7-1,1.7-1.9,2.1-3.1c0.3-0.8,0.7-1.4,1.6-1c0.7,0.4,0.7-0.6,0.3-1c-0.7-0.6-0.9-2.6-1.3-3.5
			c-0.2-0.4-0.1-0.9,0.1-1.4c-0.7-0.3-1.3-0.6-2-0.9c-1.1-0.5-3.3-1.5-5.4-2.7c0,0,0,0,0,0C9.6,21.6,6.2,27.4,6.2,27.6z"/>
	</g>
	<path class="st5" d="M108,18.5c-4-1.6-8.1-3.1-11.8-5.3c-1-0.6-3.5-2.4-4.1-3.7c-0.5-1-0.5-1.8-0.4-2.9c0.2-1.5,0.3-3.3-0.5-3.8
		c0.3,2.1-1.9,4.9-2.6,6.1c-0.2,0.4-0.1,1.5,3.2,2.8c2.4,1,5,2.7,5.8,3.1c3.2,1.6,6.4,2.5,9.5,4.3c0.9,0.5,1.7,2.2-0.7,2.8
		c-0.4,0.1-2.3,0.7-2.7,0.8c-2.3,0.2-4.6,0.5-6.9,0.6c-3.3,0.1-2.2-2.1-2-3.8c-2.5,0.4-2.4,1.4-2.5,2.5c-0.1,1,0.5,2.1,1.2,3.1
		c0.9,1.5,0.1,2.8-0.7,3.2c-1.3,0.6-5,0.4-6.2,0.5c-2.9,0.3-4.7,2.3-6.2,3.9c-0.3,0.2-0.5,0.5-0.7,0.8c-0.4,0.3-0.9,0.6-1.3,0.8
		c-3.8,1.3-14.7-4.3-16.8-4.6c1.6,1,3,2.2,4.4,3.2c1.4,0.9,0.8,1.8,0.6,2.1c-1.3,1.6-5.8,1.4-7.7,1.1c-5.3-0.8-10.3-2.7-15.4-4.4
		c-10.1-3.4-19.2-8.5-28.9-13c-1.1-0.5-4.1-2.6-4.7-3.3c-1.2-1.6-0.3-4.4,1.7-5.9c-0.8,0.1-2.4,0.7-2.8,0.9c-1,0.5-2.4,1.7-2.5,2.3
		c-0.2,1.1,0.6,2.4,1.4,3.2c0.1,0.1,0.5,0.5,0.7,0.8c0.5,0.6,0.4,1.7,0.3,2.3c-0.4,2.4-0.8,3-1.6,5.4c-0.3,0.9-1,2.8-1,2.8
		c2.9-2.1,4.7-5.2,5.4-7.3c0.1-0.2,0.4-1,1-0.8C16.3,21.1,30.2,28,38,30.9c5,1.9,10,3.6,15.1,5c3.5,1,11.7,1.5,13.3,5.7
		c0.7,1.9,1.4,6.1,1.7,8c0.7,4.8,0.5,10.1,1.1,14.9c0.6-4.8,0.7-10.8-0.1-15.7c-0.4-2.9-1-5.2-0.6-8.2c0.2-1.4,0.7-3.1,0.7-4.8
		c1.2,0.6,7.1,0.8,8.4,0.3c1.2-0.3,2.3-0.8,3.3-1.8c1.6-1.1,3.3-3.4,5.2-3.8c1.4-0.3,2.1-0.2,3.4-0.1c0.4,0,2.3,0.1,2.7,0.1
		c1.5-0.1,3.6-0.5,4.2-1.7c-0.2-1.4-1.1-2.7-1.1-3.4c0.6,0,1.1-0.2,2.4-0.3c1.6-0.2,4-0.7,5.4-1c3.7-0.7,7.5-2.2,11.2-3
		C112.8,20.5,108.4,18.7,108,18.5z"/>
	<path class="st2" d="M65.7,54.2c0-1.9,0.2-5.9-1.7-6.6c-1.8-0.7-1-2.8-2.9-4.4c-1.3-1.1-3,0.1-3.4-0.5c-1-1.6-2.1-2.8-3.1-2.6
		c-0.5,4.1-0.2,6.7,2,10.2c0.4,0.6,1.8,1.4,2.1,2c0.5,0.9-0.3,2.6,1.3,3.4c1.9,1,2.8,1.1,2.9,3.2c0.1,2.4,0.5,5.8,3,5.8
		c0.4,0-0.9-2.4-0.4-4.8C66,57.2,65.8,56.8,65.7,54.2z"/>
</g>
</svg>
