<?xml version="1.0" encoding="utf-8"?>
<!-- Generator: Adobe Illustrator 23.0.1, SVG Export Plug-In . SVG Version: 6.00 Build 0)  -->
<svg version="1.1" id="Layer_1" xmlns="http://www.w3.org/2000/svg" xmlns:xlink="http://www.w3.org/1999/xlink" x="0px" y="0px"
	 viewBox="0 0 225.9 225.9" style="enable-background:new 0 0 225.9 225.9;" xml:space="preserve">
<style type="text/css">
	.st0{display:none;fill:url(#SVGID_1_);}
	.st1{display:none;fill:url(#SVGID_2_);}
	.st2{display:none;fill:url(#SVGID_3_);}
	.st3{display:none;fill:url(#SVGID_4_);}
	.st4{display:none;fill:url(#SVGID_5_);}
	.st5{display:none;fill:url(#SVGID_6_);}
	.st6{display:none;fill:url(#SVGID_7_);}
	.st7{display:none;fill:url(#SVGID_8_);}
	.st8{display:none;fill:url(#SVGID_9_);}
	.st9{display:none;fill:url(#SVGID_10_);}
	.st10{display:none;fill:url(#SVGID_11_);}
	.st11{display:none;fill:url(#SVGID_12_);}
	.st12{fill:url(#SVGID_13_);}
	.st13{display:none;fill:url(#SVGID_14_);}
	.st14{display:none;fill:url(#SVGID_15_);}
	.st15{display:none;fill:url(#SVGID_16_);}
	.st16{display:none;fill:url(#SVGID_17_);}
	.st17{display:none;fill:url(#SVGID_18_);}
	.st18{display:none;fill:url(#SVGID_19_);}
	.st19{display:none;fill:url(#SVGID_20_);}
	.st20{display:none;fill:url(#SVGID_21_);}
	.st21{display:none;fill:url(#SVGID_22_);}
	.st22{display:none;fill:url(#SVGID_23_);}
	.st23{display:none;fill:url(#SVGID_24_);}
	.st24{display:none;fill:url(#SVGID_25_);}
</style>
<g>
	<linearGradient id="SVGID_1_" gradientUnits="userSpaceOnUse" x1="99.7854" y1="-104.7481" x2="127.1464" y2="-104.7481">
		<stop  offset="9.999999e-08" style="stop-color:#F9E933"/>
		<stop  offset="1" style="stop-color:#FBB83E"/>
	</linearGradient>
	<path class="st0" d="M127.1-104.5c0,13.8,0.1,27.6,0,41.4c-0.1,9.6-5.1,15.6-12.8,16c-7.9,0.4-14.2-6-14.3-15.7
		c-0.2-27.9-0.2-55.8,0-83.6c0.1-10.1,5.7-15.9,14-15.8c8.3,0.2,13,5.9,13.1,16.5C127.2-132.1,127.1-118.3,127.1-104.5z"/>
	<linearGradient id="SVGID_2_" gradientUnits="userSpaceOnUse" x1="182.9556" y1="-76.8668" x2="253.7312" y2="-76.8668">
		<stop  offset="9.999999e-08" style="stop-color:#F9E933"/>
		<stop  offset="1" style="stop-color:#FBB83E"/>
	</linearGradient>
	<path class="st1" d="M251.6-121.4c2.1,2.5,2.7,6,1.5,9c-1.2,2.9-2,5.1-3.2,7.2c-13.2,23.1-26.5,46.2-39.9,69.2
		c-5.8,9.9-13.5,12.7-21,8.1c-6.9-4.3-7.9-12.3-2.4-21.9c13.6-23.6,27.2-47.2,40.9-70.7c3.7-6.4,14-9.2,21.4-5.9
		C251.8-125.2,249.3-124.2,251.6-121.4z"/>
	<linearGradient id="SVGID_3_" gradientUnits="userSpaceOnUse" x1="251.1305" y1="218.1186" x2="354.5413" y2="218.1186">
		<stop  offset="9.999999e-08" style="stop-color:#F9E933"/>
		<stop  offset="1" style="stop-color:#FBB83E"/>
	</linearGradient>
	<path class="st2" d="M263.1,181.8c5.2,2.3,8.4,3.4,11.3,5c23.6,13.5,47.3,27.1,70.8,40.8c9,5.2,11.8,13.4,7.3,20.6
		c-4.3,6.9-11.9,8.1-21,2.9c-23.9-13.7-47.8-27.4-71.6-41.3c-6.4-3.7-10.9-9.3-7.5-16.6C254.4,188.7,259.5,185.5,263.1,181.8z"/>
	<linearGradient id="SVGID_4_" gradientUnits="userSpaceOnUse" x1="189.1744" y1="300.2067" x2="259.9233" y2="300.2067">
		<stop  offset="9.999999e-08" style="stop-color:#F9E933"/>
		<stop  offset="1" style="stop-color:#FBB83E"/>
	</linearGradient>
	<path class="st3" d="M205.7,248.7c1.8,1.5,6.6,3.8,8.8,7.5c14.7,24.7,29.1,49.6,43.2,74.6c4.3,7.6,2,15.5-4.6,19.2
		c-6.6,3.6-14.5,1.6-18.9-5.8c-14.6-24.8-29-49.7-43.1-74.7C185.5,259.3,192.1,248.3,205.7,248.7z"/>
	<linearGradient id="SVGID_5_" gradientUnits="userSpaceOnUse" x1="249.0712" y1="1.6666" x2="351.1167" y2="1.6666">
		<stop  offset="9.999999e-08" style="stop-color:#F9E933"/>
		<stop  offset="1" style="stop-color:#FBB83E"/>
	</linearGradient>
	<path class="st4" d="M259.8,37.6c-3.5-2.9-9.2-5.4-10.4-9.2c-1.3-4.4,1.1-10.1,2.6-15c0.5-1.6,3.2-2.6,5.1-3.7
		c23.6-13.6,47.1-27.3,70.8-40.8c9.4-5.4,17.2-3.8,21.4,3.8c4,7.2,1.4,14.2-7.7,19.6C318,5.9,294.4,19.5,270.8,33.1
		C268,34.7,264.7,35.6,259.8,37.6z"/>
	<linearGradient id="SVGID_6_" gradientUnits="userSpaceOnUse" x1="272.8836" y1="109.486" x2="387.9982" y2="109.486">
		<stop  offset="9.999999e-08" style="stop-color:#F9E933"/>
		<stop  offset="1" style="stop-color:#FBB83E"/>
	</linearGradient>
	<path class="st5" d="M330.2,95.9c13.2,0,26.3,0,39.5,0c11.8,0.1,18.2,4.8,18.3,13.4c0.2,8.7-6.3,13.8-17.9,13.8
		c-26.6,0.1-53.3,0.1-79.9,0c-11.1,0-17.2-4.9-17.3-13.4c-0.1-8.8,6.1-13.8,17.8-13.9C303.8,95.8,317,95.9,330.2,95.9z"/>
	<linearGradient id="SVGID_7_" gradientUnits="userSpaceOnUse" x1="102.3168" y1="331.1182" x2="129.5518" y2="331.1182">
		<stop  offset="9.999999e-08" style="stop-color:#F9E933"/>
		<stop  offset="1" style="stop-color:#FBB83E"/>
	</linearGradient>
	<path class="st6" d="M129.5,331c0,13.8,0.1,27.6,0,41.3c-0.1,10.4-5.2,16.2-13.4,16.3c-8.3,0.1-13.6-5.7-13.6-16
		c-0.2-27.6-0.1-55.1,0-82.7c0.1-10.3,5.2-16.3,13.3-16.4c8.1-0.1,13.5,6,13.7,16.1C129.6,303.4,129.5,317.2,129.5,331z"/>
	
		<linearGradient id="SVGID_8_" gradientUnits="userSpaceOnUse" x1="1115.7384" y1="-77.6294" x2="1187.9376" y2="-77.6294" gradientTransform="matrix(-1 0 0 1 1166.3538 0)">
		<stop  offset="9.999999e-08" style="stop-color:#F9E933"/>
		<stop  offset="1" style="stop-color:#FBB83E"/>
	</linearGradient>
	<path class="st7" d="M-21.6-117.4c2.4,5.6,3.5,9.1,5.3,12.2c13.2,23.1,26.5,46.2,39.9,69.2c5.8,9.9,13.5,12.7,21,8.1
		c6.9-4.3,7.9-12.3,2.4-21.9C33.5-73.5,19.9-97,6.2-120.6c-3.7-6.4-9.2-11-16.5-7.8C-14.9-126.3-18-121-21.6-117.4z"/>
	
		<linearGradient id="SVGID_9_" gradientUnits="userSpaceOnUse" x1="1183.9133" y1="218.1186" x2="1287.324" y2="218.1186" gradientTransform="matrix(-1 0 0 1 1166.3538 0)">
		<stop  offset="9.999999e-08" style="stop-color:#F9E933"/>
		<stop  offset="1" style="stop-color:#FBB83E"/>
	</linearGradient>
	<path class="st8" d="M-29.5,181.8c-5.2,2.3-8.4,3.4-11.3,5c-23.6,13.5-47.3,27.1-70.8,40.8c-9,5.2-11.8,13.4-7.3,20.6
		c4.3,6.9,11.9,8.1,21,2.9c23.9-13.7,47.8-27.4,71.6-41.3c6.4-3.7,10.9-9.3,7.5-16.6C-20.8,188.7-25.9,185.5-29.5,181.8z"/>
	
		<linearGradient id="SVGID_10_" gradientUnits="userSpaceOnUse" x1="1121.9573" y1="300.2067" x2="1192.7061" y2="300.2067" gradientTransform="matrix(-1 0 0 1 1166.3538 0)">
		<stop  offset="9.999999e-08" style="stop-color:#F9E933"/>
		<stop  offset="1" style="stop-color:#FBB83E"/>
	</linearGradient>
	<path class="st9" d="M27.9,248.7c-1.8,1.5-6.6,3.8-8.8,7.5C4.3,280.9-10,305.8-24.2,330.8c-4.3,7.6-2,15.5,4.6,19.2
		c6.6,3.6,14.5,1.6,18.9-5.8c14.6-24.8,29-49.7,43.1-74.7C48,259.3,41.5,248.3,27.9,248.7z"/>
	
		<linearGradient id="SVGID_11_" gradientUnits="userSpaceOnUse" x1="1181.854" y1="1.6666" x2="1283.8994" y2="1.6666" gradientTransform="matrix(-1 0 0 1 1166.3538 0)">
		<stop  offset="9.999999e-08" style="stop-color:#F9E933"/>
		<stop  offset="1" style="stop-color:#FBB83E"/>
	</linearGradient>
	<path class="st10" d="M-26.2,37.6c3.5-2.9,9.2-5.4,10.4-9.2c1.3-4.4-1.1-10.1-2.6-15c-0.5-1.6-3.2-2.6-5.1-3.7
		C-47.1-4-70.7-17.6-94.3-31.1c-9.4-5.4-17.2-3.8-21.4,3.8c-4,7.2-1.4,14.2,7.7,19.6c23.5,13.7,47.1,27.3,70.7,40.9
		C-34.4,34.7-31.2,35.6-26.2,37.6z"/>
	
		<linearGradient id="SVGID_12_" gradientUnits="userSpaceOnUse" x1="1205.6664" y1="109.486" x2="1320.781" y2="109.486" gradientTransform="matrix(-1 0 0 1 1166.3538 0)">
		<stop  offset="9.999999e-08" style="stop-color:#F9E933"/>
		<stop  offset="1" style="stop-color:#FBB83E"/>
	</linearGradient>
	<path class="st11" d="M-96.6,95.9c-13.2,0-26.3,0-39.5,0c-11.8,0.1-18.2,4.8-18.3,13.4c-0.2,8.7,6.3,13.8,17.9,13.8
		c26.6,0.1,53.3,0.1,79.9,0c11.1,0,17.2-4.9,17.3-13.4c0.1-8.8-6.1-13.8-17.8-13.9C-70.3,95.8-83.4,95.9-96.6,95.9z"/>
</g>
<linearGradient id="SVGID_13_" gradientUnits="userSpaceOnUse" x1="0" y1="112.9559" x2="225.9118" y2="112.9559">
	<stop  offset="9.999999e-08" style="stop-color:#F9E933"/>
	<stop  offset="1" style="stop-color:#FBB83E"/>
</linearGradient>
<circle class="st12" cx="113" cy="113" r="113"/>
<linearGradient id="SVGID_14_" gradientUnits="userSpaceOnUse" x1="202.1902" y1="-70.9675" x2="317.3024" y2="-70.9675" gradientTransform="matrix(0.5 -0.866 0.866 0.5 149.8078 183.3866)">
	<stop  offset="9.999999e-08" style="stop-color:#F9E933"/>
	<stop  offset="1" style="stop-color:#FBB83E"/>
</linearGradient>
<path class="st13" d="M252.2-109.7l-45.6,78.3c-3.4,5.8-10.9,7.8-16.7,4.5l-1.2-0.7c-5.8-3.4-7.8-10.9-4.5-16.7l45.6-78.3
	c3.4-5.8,10.9-7.8,16.7-4.5l1.2,0.7C253.6-123.1,255.6-115.6,252.2-109.7z"/>
<linearGradient id="SVGID_15_" gradientUnits="userSpaceOnUse" x1="185.4146" y1="-175.9345" x2="300.5268" y2="-175.9345" gradientTransform="matrix(-4.930116e-04 -1 1 -4.930116e-04 289.2756 137.8398)">
	<stop  offset="9.999999e-08" style="stop-color:#F9E933"/>
	<stop  offset="1" style="stop-color:#FBB83E"/>
</linearGradient>
<path class="st14" d="M126.3-150.4L126-59.7c0,6.7-5.5,12.2-12.2,12.2l-1.4,0c-6.7,0-12.2-5.5-12.2-12.2l0.3-90.6
	c0-6.7,5.5-12.2,12.2-12.2l1.4,0C120.8-162.6,126.3-157.1,126.3-150.4z"/>
<linearGradient id="SVGID_16_" gradientUnits="userSpaceOnUse" x1="-135.4727" y1="-176.1211" x2="-250.5857" y2="-176.1778" gradientTransform="matrix(-4.930116e-04 -1 1 -4.930116e-04 289.2756 137.8398)">
	<stop  offset="9.999999e-08" style="stop-color:#F9E933"/>
	<stop  offset="1" style="stop-color:#FBB83E"/>
</linearGradient>
<path class="st15" d="M126.3,285.6l-0.3,90.6c0,6.7-5.5,12.2-12.2,12.2l-1.4,0c-6.7,0-12.2-5.5-12.2-12.2l0.3-90.6
	c0-6.7,5.5-12.2,12.2-12.2l1.4,0C120.8,273.4,126.3,278.9,126.3,285.6z"/>
<linearGradient id="SVGID_17_" gradientUnits="userSpaceOnUse" x1="187.6548" y1="38.4891" x2="302.7669" y2="38.4891" gradientTransform="matrix(0.8593 -0.5115 0.5115 0.8593 70.8308 92.3136)">
	<stop  offset="9.999999e-08" style="stop-color:#F9E933"/>
	<stop  offset="1" style="stop-color:#FBB83E"/>
</linearGradient>
<path class="st16" d="M346.9-12l-78,46.1c-5.8,3.4-13.3,1.5-16.8-4.3l-0.7-1.2c-3.4-5.8-1.5-13.3,4.3-16.8l78-46.1
	c5.8-3.4,13.3-1.5,16.8,4.3l0.7,1.2C354.6-22.9,352.7-15.4,346.9-12z"/>
<linearGradient id="SVGID_18_" gradientUnits="userSpaceOnUse" x1="189.028" y1="226.4151" x2="73.9108" y2="224.8777" gradientTransform="matrix(-0.8593 -0.5115 -0.5115 0.8593 531.6119 92.3136)">
	<stop  offset="9.999999e-08" style="stop-color:#F9E933"/>
	<stop  offset="1" style="stop-color:#FBB83E"/>
</linearGradient>
<path class="st17" d="M257.6,207l78,46.1c5.8,3.4,13.3,1.5,16.8-4.3l0.7-1.2c3.4-5.8,1.5-13.3-4.3-16.8l-78-46.1
	c-5.8-3.4-13.3-1.5-16.8,4.3l-0.7,1.2C249.9,196.1,251.8,203.6,257.6,207z"/>
<linearGradient id="SVGID_19_" gradientUnits="userSpaceOnUse" x1="202.549" y1="335.4702" x2="87.4341" y2="336.1989" gradientTransform="matrix(-0.5055 -0.8628 -0.8628 0.5055 587.283 255.3058)">
	<stop  offset="9.999999e-08" style="stop-color:#F9E933"/>
	<stop  offset="1" style="stop-color:#FBB83E"/>
</linearGradient>
<path class="st18" d="M190,267.5l46.1,78c3.4,5.8,10.9,7.8,16.7,4.4l1.2-0.7c5.8-3.4,7.8-10.9,4.4-16.7l-46.1-78
	c-3.4-5.8-10.9-7.8-16.7-4.4l-1.2,0.7C188.6,254.1,186.6,261.7,190,267.5z"/>
<linearGradient id="SVGID_20_" gradientUnits="userSpaceOnUse" x1="168.4146" y1="147.1356" x2="283.5268" y2="147.1356" gradientTransform="matrix(0.9999 -1.176565e-02 1.176565e-02 0.9999 102.5351 -35.5108)">
	<stop  offset="9.999999e-08" style="stop-color:#F9E933"/>
	<stop  offset="1" style="stop-color:#FBB83E"/>
</linearGradient>
<path class="st19" d="M375.7,121.5l-90.6,0.7c-6.7,0.1-12.3-5.4-12.4-12.1l0-1.4c-0.1-6.7,5.4-12.3,12.1-12.4l90.6-0.7
	c6.7-0.1,12.3,5.4,12.4,12.1l0,1.4C387.9,115.9,382.4,121.5,375.7,121.5z"/>
<linearGradient id="SVGID_21_" gradientUnits="userSpaceOnUse" x1="45.1903" y1="-342.8995" x2="160.3024" y2="-342.8995" gradientTransform="matrix(-0.5 -0.866 -0.866 0.5 -237.8961 183.3866)">
	<stop  offset="9.999999e-08" style="stop-color:#F9E933"/>
	<stop  offset="1" style="stop-color:#FBB83E"/>
</linearGradient>
<path class="st20" d="M-26.3-109.7l45.6,78.3c3.4,5.8,10.9,7.8,16.7,4.5l1.2-0.7c5.8-3.4,7.8-10.9,4.5-16.7l-45.6-78.3
	c-3.4-5.8-10.9-7.8-16.7-4.5l-1.2,0.7C-27.7-123.1-29.7-115.6-26.3-109.7z"/>
<linearGradient id="SVGID_22_" gradientUnits="userSpaceOnUse" x1="-82.1564" y1="-122.1283" x2="32.9558" y2="-122.1283" gradientTransform="matrix(-0.8593 -0.5115 -0.5115 0.8593 -158.919 92.3136)">
	<stop  offset="9.999999e-08" style="stop-color:#F9E933"/>
	<stop  offset="1" style="stop-color:#FBB83E"/>
</linearGradient>
<path class="st21" d="M-121-12l78,46.1c5.8,3.4,13.3,1.5,16.8-4.3l0.7-1.2c3.4-5.8,1.5-13.3-4.3-16.8l-78-46.1
	c-5.8-3.4-13.3-1.5-16.8,4.3l-0.7,1.2C-128.7-22.9-126.7-15.4-121-12z"/>
<linearGradient id="SVGID_23_" gradientUnits="userSpaceOnUse" x1="458.8392" y1="387.0324" x2="343.722" y2="385.4951" gradientTransform="matrix(0.8593 -0.5115 0.5115 0.8593 -619.7002 92.3136)">
	<stop  offset="9.999999e-08" style="stop-color:#F9E933"/>
	<stop  offset="1" style="stop-color:#FBB83E"/>
</linearGradient>
<path class="st22" d="M-31.7,207l-78,46.1c-5.8,3.4-13.3,1.5-16.8-4.3l-0.7-1.2c-3.4-5.8-1.5-13.3,4.3-16.8l78-46.1
	c5.8-3.4,13.3-1.5,16.8,4.3l0.7,1.2C-24,196.1-25.9,203.6-31.7,207z"/>
<linearGradient id="SVGID_24_" gradientUnits="userSpaceOnUse" x1="361.2673" y1="606.4029" x2="246.1523" y2="607.1316" gradientTransform="matrix(0.5055 -0.8628 0.8628 0.5055 -675.3713 255.3058)">
	<stop  offset="9.999999e-08" style="stop-color:#F9E933"/>
	<stop  offset="1" style="stop-color:#FBB83E"/>
</linearGradient>
<path class="st23" d="M35.9,267.5l-46.1,78c-3.4,5.8-10.9,7.8-16.7,4.4l-1.2-0.7c-5.8-3.4-7.8-10.9-4.4-16.7l46.1-78
	c3.4-5.8,10.9-7.8,16.7-4.4l1.2,0.7C37.3,254.1,39.3,261.7,35.9,267.5z"/>
<linearGradient id="SVGID_25_" gradientUnits="userSpaceOnUse" x1="-145.5636" y1="143.4411" x2="-30.4515" y2="143.4411" gradientTransform="matrix(-0.9999 -1.176565e-02 -1.176565e-02 0.9999 -190.6234 -35.5108)">
	<stop  offset="9.999999e-08" style="stop-color:#F9E933"/>
	<stop  offset="1" style="stop-color:#FBB83E"/>
</linearGradient>
<path class="st24" d="M-149.8,121.5l90.6,0.7c6.7,0.1,12.3-5.4,12.4-12.1l0-1.4c0.1-6.7-5.4-12.3-12.1-12.4l-90.6-0.7
	c-6.7-0.1-12.3,5.4-12.4,12.1l0,1.4C-162,115.9-156.5,121.5-149.8,121.5z"/>
</svg>
